ISO-10303-21;
HEADER;
/* Generated by software containing ST-Developer
 * from STEP Tools, Inc. (www.steptools.com) 
 */

FILE_DESCRIPTION(
/* description */ (''),
/* implementation_level */ '2;1');

FILE_NAME(
/* name */ 'frostpadvolumeknowb.step',
/* time_stamp */ '2026-09-14T11:45:28+06:00',
/* author */ (''),
/* organization */ (''),
/* preprocessor_version */ 'ST-DEVELOPER v20.1',
/* originating_system */ 'Autodesk Translation Framework v15.8.0.0',
/* authorisation */ '');

FILE_SCHEMA (('AUTOMOTIVE_DESIGN { 1 0 10303 214 3 1 1 }'));
ENDSEC;

DATA;
#10=MECHANICAL_DESIGN_GEOMETRIC_PRESENTATION_REPRESENTATION('',(#13),#1113);
#11=SHAPE_REPRESENTATION_RELATIONSHIP('SRR','None',#1120,#12);
#12=ADVANCED_BREP_SHAPE_REPRESENTATION('',(#14),#1112);
#13=STYLED_ITEM('',(#1130),#14);
#14=MANIFOLD_SOLID_BREP('Body1',#496);
#15=B_SPLINE_SURFACE_WITH_KNOTS('',3,3,((#805,#806,#807,#808,#809),(#810,
#811,#812,#813,#814),(#815,#816,#817,#818,#819),(#820,#821,#822,#823,#824),
(#825,#826,#827,#828,#829)),.UNSPECIFIED.,.F.,.F.,.F.,(4,1,4),(4,1,4),(0.,
0.571428571428571,1.),(0.,0.0973050901370544,0.170283907739845),
 .UNSPECIFIED.);
#16=B_SPLINE_SURFACE_WITH_KNOTS('',3,3,((#843,#844,#845,#846,#847),(#848,
#849,#850,#851,#852),(#853,#854,#855,#856,#857),(#858,#859,#860,#861,#862),
(#863,#864,#865,#866,#867)),.UNSPECIFIED.,.F.,.F.,.F.,(4,1,4),(4,1,4),(0.,
0.571428571428571,1.),(9.63735264431553E-19,0.0509050729959319,0.118778503657175),
 .UNSPECIFIED.);
#17=B_SPLINE_SURFACE_WITH_KNOTS('',3,3,((#879,#880,#881,#882,#883),(#884,
#885,#886,#887,#888),(#889,#890,#891,#892,#893),(#894,#895,#896,#897,#898),
(#899,#900,#901,#902,#903)),.UNSPECIFIED.,.F.,.F.,.F.,(4,1,4),(4,1,4),(0.,
0.571428571428571,1.),(4.02489206493465E-18,0.050905077355172,0.118778513828735),
 .UNSPECIFIED.);
#18=B_SPLINE_SURFACE_WITH_KNOTS('',3,3,((#915,#916,#917,#918,#919),(#920,
#921,#922,#923,#924),(#925,#926,#927,#928,#929),(#930,#931,#932,#933,#934),
(#935,#936,#937,#938,#939)),.UNSPECIFIED.,.F.,.F.,.F.,(4,1,4),(4,1,4),(0.,
0.571428571428571,1.),(0.,0.0729788176027908,0.170283907739845),
 .UNSPECIFIED.);
#19=B_SPLINE_SURFACE_WITH_KNOTS('',3,3,((#951,#952,#953,#954,#955),(#956,
#957,#958,#959,#960),(#961,#962,#963,#964,#965),(#966,#967,#968,#969,#970),
(#971,#972,#973,#974,#975)),.UNSPECIFIED.,.F.,.F.,.F.,(4,1,4),(4,1,4),(0.,
0.571428571428571,1.),(1.60995682597387E-17,0.0973035092543483,0.17028114119511),
 .UNSPECIFIED.);
#20=B_SPLINE_SURFACE_WITH_KNOTS('',3,3,((#987,#988,#989,#990,#991),(#992,
#993,#994,#995,#996),(#997,#998,#999,#1000,#1001),(#1002,#1003,#1004,#1005,
#1006),(#1007,#1008,#1009,#1010,#1011)),.UNSPECIFIED.,.F.,.F.,.F.,(4,1,
4),(4,1,4),(0.,0.571428571428571,1.),(9.63735264431547E-19,0.0509050729959319,
0.118778503657175),.UNSPECIFIED.);
#21=B_SPLINE_SURFACE_WITH_KNOTS('',3,3,((#1023,#1024,#1025,#1026,#1027),
(#1028,#1029,#1030,#1031,#1032),(#1033,#1034,#1035,#1036,#1037),(#1038,
#1039,#1040,#1041,#1042),(#1043,#1044,#1045,#1046,#1047)),.UNSPECIFIED.,
 .F.,.F.,.F.,(4,1,4),(4,1,4),(0.,0.571428571428571,1.),(9.95631195010151E-18,
0.050905077355172,0.118778513828735),.UNSPECIFIED.);
#22=B_SPLINE_SURFACE_WITH_KNOTS('',3,3,((#1059,#1060,#1061,#1062,#1063),
(#1064,#1065,#1066,#1067,#1068),(#1069,#1070,#1071,#1072,#1073),(#1074,
#1075,#1076,#1077,#1078),(#1079,#1080,#1081,#1082,#1083)),.UNSPECIFIED.,
 .F.,.F.,.F.,(4,1,4),(4,1,4),(0.,0.571428571428571,1.),(0.,0.0729788176027907,
0.170283907739845),.UNSPECIFIED.);
#23=CONICAL_SURFACE('',#523,3.2,0.540419500270585);
#24=B_SPLINE_CURVE_WITH_KNOTS('',3,(#717,#718,#719,#720,#721),
 .UNSPECIFIED.,.F.,.F.,(4,1,4),(0.,0.0973050901370544,0.170283907739845),
 .UNSPECIFIED.);
#25=B_SPLINE_CURVE_WITH_KNOTS('',3,(#728,#729,#730,#731,#732),
 .UNSPECIFIED.,.F.,.F.,(4,1,4),(0.,0.0729788176027907,0.170283907739845),
 .UNSPECIFIED.);
#26=B_SPLINE_CURVE_WITH_KNOTS('',3,(#736,#737,#738,#739,#740),
 .UNSPECIFIED.,.F.,.F.,(4,1,4),(9.95631195010151E-18,0.050905077355172,
0.118778513828735),.UNSPECIFIED.);
#27=B_SPLINE_CURVE_WITH_KNOTS('',3,(#744,#745,#746,#747,#748),
 .UNSPECIFIED.,.F.,.F.,(4,1,4),(9.63735264431547E-19,0.0509050729959319,
0.118778503657175),.UNSPECIFIED.);
#28=B_SPLINE_CURVE_WITH_KNOTS('',3,(#752,#753,#754,#755,#756),
 .UNSPECIFIED.,.F.,.F.,(4,1,4),(1.60995682597387E-17,0.0973035092543483,
0.17028114119511),.UNSPECIFIED.);
#29=B_SPLINE_CURVE_WITH_KNOTS('',3,(#760,#761,#762,#763,#764),
 .UNSPECIFIED.,.F.,.F.,(4,1,4),(0.,0.0729788176027908,0.170283907739845),
 .UNSPECIFIED.);
#30=B_SPLINE_CURVE_WITH_KNOTS('',3,(#768,#769,#770,#771,#772),
 .UNSPECIFIED.,.F.,.F.,(4,1,4),(4.02489206493465E-18,0.050905077355172,
0.118778513828735),.UNSPECIFIED.);
#31=B_SPLINE_CURVE_WITH_KNOTS('',3,(#776,#777,#778,#779,#780),
 .UNSPECIFIED.,.F.,.F.,(4,1,4),(9.63735264431553E-19,0.0509050729959319,
0.118778503657175),.UNSPECIFIED.);
#32=B_SPLINE_CURVE_WITH_KNOTS('',3,(#786,#787,#788,#789),.UNSPECIFIED.,
 .F.,.F.,(4,4),(-0.0606676856313342,0.),.UNSPECIFIED.);
#33=B_SPLINE_CURVE_WITH_KNOTS('',3,(#790,#791,#792,#793),.UNSPECIFIED.,
 .F.,.F.,(4,4),(-0.0606687171543174,0.),.UNSPECIFIED.);
#34=B_SPLINE_CURVE_WITH_KNOTS('',3,(#833,#834,#835,#836,#837),
 .UNSPECIFIED.,.F.,.F.,(4,1,4),(-0.170283907739845,-0.0973050901370544,
0.),.UNSPECIFIED.);
#35=B_SPLINE_CURVE_WITH_KNOTS('',3,(#870,#871,#872,#873,#874),
 .UNSPECIFIED.,.F.,.F.,(4,1,4),(-0.118778503657175,-0.0509050729959319,
-9.63735264431553E-19),.UNSPECIFIED.);
#36=B_SPLINE_CURVE_WITH_KNOTS('',3,(#906,#907,#908,#909,#910),
 .UNSPECIFIED.,.F.,.F.,(4,1,4),(-0.118778513828735,-0.050905077355172,-4.02489206493465E-18),
 .UNSPECIFIED.);
#37=B_SPLINE_CURVE_WITH_KNOTS('',3,(#942,#943,#944,#945,#946),
 .UNSPECIFIED.,.F.,.F.,(4,1,4),(-0.170283907739845,-0.0729788176027908,
0.),.UNSPECIFIED.);
#38=B_SPLINE_CURVE_WITH_KNOTS('',3,(#978,#979,#980,#981,#982),
 .UNSPECIFIED.,.F.,.F.,(4,1,4),(-0.17028114119511,-0.0973035092543483,-1.60995682597387E-17),
 .UNSPECIFIED.);
#39=B_SPLINE_CURVE_WITH_KNOTS('',3,(#1014,#1015,#1016,#1017,#1018),
 .UNSPECIFIED.,.F.,.F.,(4,1,4),(-0.118778503657175,-0.0509050729959319,
-9.63735264431547E-19),.UNSPECIFIED.);
#40=B_SPLINE_CURVE_WITH_KNOTS('',3,(#1050,#1051,#1052,#1053,#1054),
 .UNSPECIFIED.,.F.,.F.,(4,1,4),(-0.118778513828735,-0.050905077355172,-9.95631195010151E-18),
 .UNSPECIFIED.);
#41=B_SPLINE_CURVE_WITH_KNOTS('',3,(#1086,#1087,#1088,#1089,#1090),
 .UNSPECIFIED.,.F.,.F.,(4,1,4),(-0.170283907739845,-0.0729788176027907,
0.),.UNSPECIFIED.);
#42=CYLINDRICAL_SURFACE('',#516,6.5);
#43=CYLINDRICAL_SURFACE('',#526,3.05);
#44=CYLINDRICAL_SURFACE('',#531,0.15);
#45=CYLINDRICAL_SURFACE('',#538,0.15);
#46=CYLINDRICAL_SURFACE('',#545,0.15);
#47=CYLINDRICAL_SURFACE('',#552,0.15);
#48=CYLINDRICAL_SURFACE('',#558,0.9);
#49=CYLINDRICAL_SURFACE('',#560,0.9);
#50=CYLINDRICAL_SURFACE('',#563,0.9);
#51=CYLINDRICAL_SURFACE('',#564,0.9);
#52=FACE_BOUND('',#141,.T.);
#53=LINE('',#712,#75);
#54=LINE('',#724,#76);
#55=LINE('',#734,#77);
#56=LINE('',#750,#78);
#57=LINE('',#766,#79);
#58=LINE('',#781,#80);
#59=LINE('',#785,#81);
#60=LINE('',#798,#82);
#61=LINE('',#800,#83);
#62=LINE('',#801,#84);
#63=LINE('',#842,#85);
#64=LINE('',#914,#86);
#65=LINE('',#986,#87);
#66=LINE('',#1058,#88);
#67=LINE('',#1094,#89);
#68=LINE('',#1095,#90);
#69=LINE('',#1097,#91);
#70=LINE('',#1099,#92);
#71=LINE('',#1101,#93);
#72=LINE('',#1103,#94);
#73=LINE('',#1105,#95);
#74=LINE('',#1108,#96);
#75=VECTOR('',#578,10.);
#76=VECTOR('',#585,6.5);
#77=VECTOR('',#588,10.);
#78=VECTOR('',#591,10.);
#79=VECTOR('',#594,10.);
#80=VECTOR('',#597,10.);
#81=VECTOR('',#600,10.);
#82=VECTOR('',#607,10.);
#83=VECTOR('',#608,10.);
#84=VECTOR('',#609,10.);
#85=VECTOR('',#624,10.);
#86=VECTOR('',#639,10.);
#87=VECTOR('',#654,10.);
#88=VECTOR('',#669,10.);
#89=VECTOR('',#678,10.);
#90=VECTOR('',#679,10.);
#91=VECTOR('',#682,10.);
#92=VECTOR('',#685,10.);
#93=VECTOR('',#688,10.);
#94=VECTOR('',#691,10.);
#95=VECTOR('',#694,10.);
#96=VECTOR('',#699,10.);
#97=PLANE('',#514);
#98=PLANE('',#522);
#99=PLANE('',#525);
#100=PLANE('',#528);
#101=PLANE('',#557);
#102=PLANE('',#559);
#103=PLANE('',#561);
#104=PLANE('',#562);
#105=PLANE('',#565);
#106=FACE_OUTER_BOUND('',#139,.T.);
#107=FACE_OUTER_BOUND('',#140,.T.);
#108=FACE_OUTER_BOUND('',#142,.T.);
#109=FACE_OUTER_BOUND('',#143,.T.);
#110=FACE_OUTER_BOUND('',#144,.T.);
#111=FACE_OUTER_BOUND('',#145,.T.);
#112=FACE_OUTER_BOUND('',#146,.T.);
#113=FACE_OUTER_BOUND('',#147,.T.);
#114=FACE_OUTER_BOUND('',#148,.T.);
#115=FACE_OUTER_BOUND('',#149,.T.);
#116=FACE_OUTER_BOUND('',#150,.T.);
#117=FACE_OUTER_BOUND('',#151,.T.);
#118=FACE_OUTER_BOUND('',#152,.T.);
#119=FACE_OUTER_BOUND('',#153,.T.);
#120=FACE_OUTER_BOUND('',#154,.T.);
#121=FACE_OUTER_BOUND('',#155,.T.);
#122=FACE_OUTER_BOUND('',#156,.T.);
#123=FACE_OUTER_BOUND('',#157,.T.);
#124=FACE_OUTER_BOUND('',#158,.T.);
#125=FACE_OUTER_BOUND('',#159,.T.);
#126=FACE_OUTER_BOUND('',#160,.T.);
#127=FACE_OUTER_BOUND('',#161,.T.);
#128=FACE_OUTER_BOUND('',#162,.T.);
#129=FACE_OUTER_BOUND('',#163,.T.);
#130=FACE_OUTER_BOUND('',#164,.T.);
#131=FACE_OUTER_BOUND('',#165,.T.);
#132=FACE_OUTER_BOUND('',#166,.T.);
#133=FACE_OUTER_BOUND('',#167,.T.);
#134=FACE_OUTER_BOUND('',#168,.T.);
#135=FACE_OUTER_BOUND('',#169,.T.);
#136=FACE_OUTER_BOUND('',#170,.T.);
#137=FACE_OUTER_BOUND('',#171,.T.);
#138=FACE_OUTER_BOUND('',#172,.T.);
#139=EDGE_LOOP('',(#316,#317,#318,#319));
#140=EDGE_LOOP('',(#320));
#141=EDGE_LOOP('',(#321,#322));
#142=EDGE_LOOP('',(#323,#324,#325,#326,#327,#328,#329,#330,#331,#332,#333,
#334,#335,#336,#337,#338,#339,#340,#341,#342));
#143=EDGE_LOOP('',(#343,#344,#345,#346));
#144=EDGE_LOOP('',(#347,#348,#349,#350));
#145=EDGE_LOOP('',(#351,#352,#353,#354));
#146=EDGE_LOOP('',(#355,#356,#357,#358));
#147=EDGE_LOOP('',(#359,#360));
#148=EDGE_LOOP('',(#361,#362,#363,#364));
#149=EDGE_LOOP('',(#365,#366,#367,#368));
#150=EDGE_LOOP('',(#369,#370,#371,#372));
#151=EDGE_LOOP('',(#373,#374,#375,#376));
#152=EDGE_LOOP('',(#377,#378,#379,#380));
#153=EDGE_LOOP('',(#381,#382,#383,#384));
#154=EDGE_LOOP('',(#385,#386,#387,#388));
#155=EDGE_LOOP('',(#389,#390,#391,#392));
#156=EDGE_LOOP('',(#393,#394,#395,#396));
#157=EDGE_LOOP('',(#397,#398,#399,#400));
#158=EDGE_LOOP('',(#401,#402,#403,#404));
#159=EDGE_LOOP('',(#405,#406,#407,#408));
#160=EDGE_LOOP('',(#409,#410,#411,#412));
#161=EDGE_LOOP('',(#413,#414,#415,#416));
#162=EDGE_LOOP('',(#417,#418,#419,#420));
#163=EDGE_LOOP('',(#421,#422,#423,#424,#425));
#164=EDGE_LOOP('',(#426,#427,#428,#429));
#165=EDGE_LOOP('',(#430,#431,#432,#433));
#166=EDGE_LOOP('',(#434,#435,#436,#437));
#167=EDGE_LOOP('',(#438,#439,#440,#441));
#168=EDGE_LOOP('',(#442,#443));
#169=EDGE_LOOP('',(#444,#445,#446,#447));
#170=EDGE_LOOP('',(#448,#449,#450,#451));
#171=EDGE_LOOP('',(#452,#453,#454,#455));
#172=EDGE_LOOP('',(#456,#457));
#173=CIRCLE('',#511,6.5);
#174=CIRCLE('',#512,0.3);
#175=CIRCLE('',#513,6.2);
#176=CIRCLE('',#515,3.35);
#177=CIRCLE('',#517,6.5);
#178=CIRCLE('',#518,6.5);
#179=CIRCLE('',#519,6.5);
#180=CIRCLE('',#520,6.5);
#181=CIRCLE('',#521,6.5);
#182=CIRCLE('',#524,3.05);
#183=CIRCLE('',#527,3.05);
#184=CIRCLE('',#529,0.149999999999999);
#185=CIRCLE('',#530,0.149999999999999);
#186=CIRCLE('',#532,0.150000000000001);
#187=CIRCLE('',#533,0.150000000000001);
#188=CIRCLE('',#535,0.15);
#189=CIRCLE('',#536,6.35);
#190=CIRCLE('',#537,0.15);
#191=CIRCLE('',#539,0.15);
#192=CIRCLE('',#540,0.150000000000001);
#193=CIRCLE('',#542,0.150000000000001);
#194=CIRCLE('',#543,6.35);
#195=CIRCLE('',#544,0.15);
#196=CIRCLE('',#546,0.15);
#197=CIRCLE('',#547,0.150000000000001);
#198=CIRCLE('',#549,0.15);
#199=CIRCLE('',#550,6.35);
#200=CIRCLE('',#551,0.149999999999999);
#201=CIRCLE('',#553,0.150000000000001);
#202=CIRCLE('',#554,0.15);
#203=CIRCLE('',#556,6.35);
#204=VERTEX_POINT('',#704);
#205=VERTEX_POINT('',#706);
#206=VERTEX_POINT('',#710);
#207=VERTEX_POINT('',#711);
#208=VERTEX_POINT('',#715);
#209=VERTEX_POINT('',#716);
#210=VERTEX_POINT('',#722);
#211=VERTEX_POINT('',#725);
#212=VERTEX_POINT('',#727);
#213=VERTEX_POINT('',#733);
#214=VERTEX_POINT('',#735);
#215=VERTEX_POINT('',#741);
#216=VERTEX_POINT('',#743);
#217=VERTEX_POINT('',#749);
#218=VERTEX_POINT('',#751);
#219=VERTEX_POINT('',#757);
#220=VERTEX_POINT('',#759);
#221=VERTEX_POINT('',#765);
#222=VERTEX_POINT('',#767);
#223=VERTEX_POINT('',#773);
#224=VERTEX_POINT('',#775);
#225=VERTEX_POINT('',#783);
#226=VERTEX_POINT('',#784);
#227=VERTEX_POINT('',#797);
#228=VERTEX_POINT('',#799);
#229=VERTEX_POINT('',#830);
#230=VERTEX_POINT('',#832);
#231=VERTEX_POINT('',#840);
#232=VERTEX_POINT('',#868);
#233=VERTEX_POINT('',#876);
#234=VERTEX_POINT('',#904);
#235=VERTEX_POINT('',#912);
#236=VERTEX_POINT('',#940);
#237=VERTEX_POINT('',#948);
#238=VERTEX_POINT('',#976);
#239=VERTEX_POINT('',#984);
#240=VERTEX_POINT('',#1012);
#241=VERTEX_POINT('',#1020);
#242=VERTEX_POINT('',#1048);
#243=VERTEX_POINT('',#1056);
#244=VERTEX_POINT('',#1084);
#245=EDGE_CURVE('',#204,#204,#173,.T.);
#246=EDGE_CURVE('',#204,#205,#174,.T.);
#247=EDGE_CURVE('',#205,#205,#175,.T.);
#248=EDGE_CURVE('',#206,#207,#53,.T.);
#249=EDGE_CURVE('',#207,#206,#176,.T.);
#250=EDGE_CURVE('',#208,#209,#24,.T.);
#251=EDGE_CURVE('',#210,#208,#177,.T.);
#252=EDGE_CURVE('',#210,#204,#54,.T.);
#253=EDGE_CURVE('',#211,#210,#178,.T.);
#254=EDGE_CURVE('',#212,#211,#25,.T.);
#255=EDGE_CURVE('',#213,#212,#55,.T.);
#256=EDGE_CURVE('',#214,#213,#26,.T.);
#257=EDGE_CURVE('',#215,#214,#179,.T.);
#258=EDGE_CURVE('',#216,#215,#27,.T.);
#259=EDGE_CURVE('',#217,#216,#56,.T.);
#260=EDGE_CURVE('',#218,#217,#28,.T.);
#261=EDGE_CURVE('',#219,#218,#180,.T.);
#262=EDGE_CURVE('',#220,#219,#29,.T.);
#263=EDGE_CURVE('',#221,#220,#57,.T.);
#264=EDGE_CURVE('',#222,#221,#30,.T.);
#265=EDGE_CURVE('',#223,#222,#181,.T.);
#266=EDGE_CURVE('',#224,#223,#31,.T.);
#267=EDGE_CURVE('',#209,#224,#58,.T.);
#268=EDGE_CURVE('',#225,#226,#59,.T.);
#269=EDGE_CURVE('',#226,#206,#32,.T.);
#270=EDGE_CURVE('',#207,#225,#33,.T.);
#271=EDGE_CURVE('',#226,#225,#182,.T.);
#272=EDGE_CURVE('',#225,#227,#60,.T.);
#273=EDGE_CURVE('',#227,#228,#61,.T.);
#274=EDGE_CURVE('',#226,#228,#62,.T.);
#275=EDGE_CURVE('',#228,#227,#183,.T.);
#276=EDGE_CURVE('',#209,#229,#184,.T.);
#277=EDGE_CURVE('',#229,#230,#34,.T.);
#278=EDGE_CURVE('',#230,#208,#185,.T.);
#279=EDGE_CURVE('',#224,#231,#186,.T.);
#280=EDGE_CURVE('',#231,#229,#63,.T.);
#281=EDGE_CURVE('',#223,#232,#187,.T.);
#282=EDGE_CURVE('',#232,#231,#35,.T.);
#283=EDGE_CURVE('',#222,#233,#188,.T.);
#284=EDGE_CURVE('',#233,#232,#189,.T.);
#285=EDGE_CURVE('',#221,#234,#190,.T.);
#286=EDGE_CURVE('',#234,#233,#36,.T.);
#287=EDGE_CURVE('',#220,#235,#191,.T.);
#288=EDGE_CURVE('',#235,#234,#64,.T.);
#289=EDGE_CURVE('',#219,#236,#192,.T.);
#290=EDGE_CURVE('',#236,#235,#37,.T.);
#291=EDGE_CURVE('',#218,#237,#193,.T.);
#292=EDGE_CURVE('',#237,#236,#194,.T.);
#293=EDGE_CURVE('',#217,#238,#195,.T.);
#294=EDGE_CURVE('',#238,#237,#38,.T.);
#295=EDGE_CURVE('',#216,#239,#196,.T.);
#296=EDGE_CURVE('',#239,#238,#65,.T.);
#297=EDGE_CURVE('',#215,#240,#197,.T.);
#298=EDGE_CURVE('',#240,#239,#39,.T.);
#299=EDGE_CURVE('',#214,#241,#198,.T.);
#300=EDGE_CURVE('',#241,#240,#199,.T.);
#301=EDGE_CURVE('',#213,#242,#200,.T.);
#302=EDGE_CURVE('',#242,#241,#40,.T.);
#303=EDGE_CURVE('',#212,#243,#201,.T.);
#304=EDGE_CURVE('',#243,#242,#66,.T.);
#305=EDGE_CURVE('',#211,#244,#202,.T.);
#306=EDGE_CURVE('',#244,#243,#41,.T.);
#307=EDGE_CURVE('',#230,#244,#203,.T.);
#308=EDGE_CURVE('',#234,#239,#67,.T.);
#309=EDGE_CURVE('',#238,#235,#68,.T.);
#310=EDGE_CURVE('',#240,#233,#69,.T.);
#311=EDGE_CURVE('',#232,#241,#70,.T.);
#312=EDGE_CURVE('',#242,#231,#71,.T.);
#313=EDGE_CURVE('',#244,#230,#72,.T.);
#314=EDGE_CURVE('',#229,#243,#73,.T.);
#315=EDGE_CURVE('',#236,#237,#74,.T.);
#316=ORIENTED_EDGE('',*,*,#245,.T.);
#317=ORIENTED_EDGE('',*,*,#246,.T.);
#318=ORIENTED_EDGE('',*,*,#247,.T.);
#319=ORIENTED_EDGE('',*,*,#246,.F.);
#320=ORIENTED_EDGE('',*,*,#247,.F.);
#321=ORIENTED_EDGE('',*,*,#248,.F.);
#322=ORIENTED_EDGE('',*,*,#249,.F.);
#323=ORIENTED_EDGE('',*,*,#250,.F.);
#324=ORIENTED_EDGE('',*,*,#251,.F.);
#325=ORIENTED_EDGE('',*,*,#252,.T.);
#326=ORIENTED_EDGE('',*,*,#245,.F.);
#327=ORIENTED_EDGE('',*,*,#252,.F.);
#328=ORIENTED_EDGE('',*,*,#253,.F.);
#329=ORIENTED_EDGE('',*,*,#254,.F.);
#330=ORIENTED_EDGE('',*,*,#255,.F.);
#331=ORIENTED_EDGE('',*,*,#256,.F.);
#332=ORIENTED_EDGE('',*,*,#257,.F.);
#333=ORIENTED_EDGE('',*,*,#258,.F.);
#334=ORIENTED_EDGE('',*,*,#259,.F.);
#335=ORIENTED_EDGE('',*,*,#260,.F.);
#336=ORIENTED_EDGE('',*,*,#261,.F.);
#337=ORIENTED_EDGE('',*,*,#262,.F.);
#338=ORIENTED_EDGE('',*,*,#263,.F.);
#339=ORIENTED_EDGE('',*,*,#264,.F.);
#340=ORIENTED_EDGE('',*,*,#265,.F.);
#341=ORIENTED_EDGE('',*,*,#266,.F.);
#342=ORIENTED_EDGE('',*,*,#267,.F.);
#343=ORIENTED_EDGE('',*,*,#268,.T.);
#344=ORIENTED_EDGE('',*,*,#269,.T.);
#345=ORIENTED_EDGE('',*,*,#248,.T.);
#346=ORIENTED_EDGE('',*,*,#270,.T.);
#347=ORIENTED_EDGE('',*,*,#249,.T.);
#348=ORIENTED_EDGE('',*,*,#269,.F.);
#349=ORIENTED_EDGE('',*,*,#271,.T.);
#350=ORIENTED_EDGE('',*,*,#270,.F.);
#351=ORIENTED_EDGE('',*,*,#268,.F.);
#352=ORIENTED_EDGE('',*,*,#272,.T.);
#353=ORIENTED_EDGE('',*,*,#273,.T.);
#354=ORIENTED_EDGE('',*,*,#274,.F.);
#355=ORIENTED_EDGE('',*,*,#271,.F.);
#356=ORIENTED_EDGE('',*,*,#274,.T.);
#357=ORIENTED_EDGE('',*,*,#275,.T.);
#358=ORIENTED_EDGE('',*,*,#272,.F.);
#359=ORIENTED_EDGE('',*,*,#275,.F.);
#360=ORIENTED_EDGE('',*,*,#273,.F.);
#361=ORIENTED_EDGE('',*,*,#276,.T.);
#362=ORIENTED_EDGE('',*,*,#277,.T.);
#363=ORIENTED_EDGE('',*,*,#278,.T.);
#364=ORIENTED_EDGE('',*,*,#250,.T.);
#365=ORIENTED_EDGE('',*,*,#279,.T.);
#366=ORIENTED_EDGE('',*,*,#280,.T.);
#367=ORIENTED_EDGE('',*,*,#276,.F.);
#368=ORIENTED_EDGE('',*,*,#267,.T.);
#369=ORIENTED_EDGE('',*,*,#281,.T.);
#370=ORIENTED_EDGE('',*,*,#282,.T.);
#371=ORIENTED_EDGE('',*,*,#279,.F.);
#372=ORIENTED_EDGE('',*,*,#266,.T.);
#373=ORIENTED_EDGE('',*,*,#283,.T.);
#374=ORIENTED_EDGE('',*,*,#284,.T.);
#375=ORIENTED_EDGE('',*,*,#281,.F.);
#376=ORIENTED_EDGE('',*,*,#265,.T.);
#377=ORIENTED_EDGE('',*,*,#285,.T.);
#378=ORIENTED_EDGE('',*,*,#286,.T.);
#379=ORIENTED_EDGE('',*,*,#283,.F.);
#380=ORIENTED_EDGE('',*,*,#264,.T.);
#381=ORIENTED_EDGE('',*,*,#287,.T.);
#382=ORIENTED_EDGE('',*,*,#288,.T.);
#383=ORIENTED_EDGE('',*,*,#285,.F.);
#384=ORIENTED_EDGE('',*,*,#263,.T.);
#385=ORIENTED_EDGE('',*,*,#289,.T.);
#386=ORIENTED_EDGE('',*,*,#290,.T.);
#387=ORIENTED_EDGE('',*,*,#287,.F.);
#388=ORIENTED_EDGE('',*,*,#262,.T.);
#389=ORIENTED_EDGE('',*,*,#291,.T.);
#390=ORIENTED_EDGE('',*,*,#292,.T.);
#391=ORIENTED_EDGE('',*,*,#289,.F.);
#392=ORIENTED_EDGE('',*,*,#261,.T.);
#393=ORIENTED_EDGE('',*,*,#293,.T.);
#394=ORIENTED_EDGE('',*,*,#294,.T.);
#395=ORIENTED_EDGE('',*,*,#291,.F.);
#396=ORIENTED_EDGE('',*,*,#260,.T.);
#397=ORIENTED_EDGE('',*,*,#295,.T.);
#398=ORIENTED_EDGE('',*,*,#296,.T.);
#399=ORIENTED_EDGE('',*,*,#293,.F.);
#400=ORIENTED_EDGE('',*,*,#259,.T.);
#401=ORIENTED_EDGE('',*,*,#297,.T.);
#402=ORIENTED_EDGE('',*,*,#298,.T.);
#403=ORIENTED_EDGE('',*,*,#295,.F.);
#404=ORIENTED_EDGE('',*,*,#258,.T.);
#405=ORIENTED_EDGE('',*,*,#299,.T.);
#406=ORIENTED_EDGE('',*,*,#300,.T.);
#407=ORIENTED_EDGE('',*,*,#297,.F.);
#408=ORIENTED_EDGE('',*,*,#257,.T.);
#409=ORIENTED_EDGE('',*,*,#301,.T.);
#410=ORIENTED_EDGE('',*,*,#302,.T.);
#411=ORIENTED_EDGE('',*,*,#299,.F.);
#412=ORIENTED_EDGE('',*,*,#256,.T.);
#413=ORIENTED_EDGE('',*,*,#303,.T.);
#414=ORIENTED_EDGE('',*,*,#304,.T.);
#415=ORIENTED_EDGE('',*,*,#301,.F.);
#416=ORIENTED_EDGE('',*,*,#255,.T.);
#417=ORIENTED_EDGE('',*,*,#305,.T.);
#418=ORIENTED_EDGE('',*,*,#306,.T.);
#419=ORIENTED_EDGE('',*,*,#303,.F.);
#420=ORIENTED_EDGE('',*,*,#254,.T.);
#421=ORIENTED_EDGE('',*,*,#305,.F.);
#422=ORIENTED_EDGE('',*,*,#253,.T.);
#423=ORIENTED_EDGE('',*,*,#251,.T.);
#424=ORIENTED_EDGE('',*,*,#278,.F.);
#425=ORIENTED_EDGE('',*,*,#307,.T.);
#426=ORIENTED_EDGE('',*,*,#296,.F.);
#427=ORIENTED_EDGE('',*,*,#308,.F.);
#428=ORIENTED_EDGE('',*,*,#288,.F.);
#429=ORIENTED_EDGE('',*,*,#309,.F.);
#430=ORIENTED_EDGE('',*,*,#298,.F.);
#431=ORIENTED_EDGE('',*,*,#310,.T.);
#432=ORIENTED_EDGE('',*,*,#286,.F.);
#433=ORIENTED_EDGE('',*,*,#308,.T.);
#434=ORIENTED_EDGE('',*,*,#300,.F.);
#435=ORIENTED_EDGE('',*,*,#311,.F.);
#436=ORIENTED_EDGE('',*,*,#284,.F.);
#437=ORIENTED_EDGE('',*,*,#310,.F.);
#438=ORIENTED_EDGE('',*,*,#302,.F.);
#439=ORIENTED_EDGE('',*,*,#312,.T.);
#440=ORIENTED_EDGE('',*,*,#282,.F.);
#441=ORIENTED_EDGE('',*,*,#311,.T.);
#442=ORIENTED_EDGE('',*,*,#307,.F.);
#443=ORIENTED_EDGE('',*,*,#313,.F.);
#444=ORIENTED_EDGE('',*,*,#304,.F.);
#445=ORIENTED_EDGE('',*,*,#314,.F.);
#446=ORIENTED_EDGE('',*,*,#280,.F.);
#447=ORIENTED_EDGE('',*,*,#312,.F.);
#448=ORIENTED_EDGE('',*,*,#306,.F.);
#449=ORIENTED_EDGE('',*,*,#313,.T.);
#450=ORIENTED_EDGE('',*,*,#277,.F.);
#451=ORIENTED_EDGE('',*,*,#314,.T.);
#452=ORIENTED_EDGE('',*,*,#294,.F.);
#453=ORIENTED_EDGE('',*,*,#309,.T.);
#454=ORIENTED_EDGE('',*,*,#290,.F.);
#455=ORIENTED_EDGE('',*,*,#315,.T.);
#456=ORIENTED_EDGE('',*,*,#292,.F.);
#457=ORIENTED_EDGE('',*,*,#315,.F.);
#458=TOROIDAL_SURFACE('',#510,6.2,0.3);
#459=TOROIDAL_SURFACE('',#534,6.35,0.15);
#460=TOROIDAL_SURFACE('',#541,6.35,0.15);
#461=TOROIDAL_SURFACE('',#548,6.35,0.15);
#462=TOROIDAL_SURFACE('',#555,6.35,0.15);
#463=ADVANCED_FACE('',(#106),#458,.T.);
#464=ADVANCED_FACE('',(#107,#52),#97,.F.);
#465=ADVANCED_FACE('',(#108),#42,.T.);
#466=ADVANCED_FACE('',(#109),#98,.T.);
#467=ADVANCED_FACE('',(#110),#23,.F.);
#468=ADVANCED_FACE('',(#111),#99,.F.);
#469=ADVANCED_FACE('',(#112),#43,.F.);
#470=ADVANCED_FACE('',(#113),#100,.T.);
#471=ADVANCED_FACE('',(#114),#15,.F.);
#472=ADVANCED_FACE('',(#115),#44,.T.);
#473=ADVANCED_FACE('',(#116),#16,.F.);
#474=ADVANCED_FACE('',(#117),#459,.T.);
#475=ADVANCED_FACE('',(#118),#17,.F.);
#476=ADVANCED_FACE('',(#119),#45,.T.);
#477=ADVANCED_FACE('',(#120),#18,.F.);
#478=ADVANCED_FACE('',(#121),#460,.T.);
#479=ADVANCED_FACE('',(#122),#19,.F.);
#480=ADVANCED_FACE('',(#123),#46,.T.);
#481=ADVANCED_FACE('',(#124),#20,.F.);
#482=ADVANCED_FACE('',(#125),#461,.T.);
#483=ADVANCED_FACE('',(#126),#21,.F.);
#484=ADVANCED_FACE('',(#127),#47,.T.);
#485=ADVANCED_FACE('',(#128),#22,.F.);
#486=ADVANCED_FACE('',(#129),#462,.T.);
#487=ADVANCED_FACE('',(#130),#101,.F.);
#488=ADVANCED_FACE('',(#131),#48,.T.);
#489=ADVANCED_FACE('',(#132),#102,.T.);
#490=ADVANCED_FACE('',(#133),#49,.T.);
#491=ADVANCED_FACE('',(#134),#103,.T.);
#492=ADVANCED_FACE('',(#135),#104,.F.);
#493=ADVANCED_FACE('',(#136),#50,.F.);
#494=ADVANCED_FACE('',(#137),#51,.F.);
#495=ADVANCED_FACE('',(#138),#105,.T.);
#496=CLOSED_SHELL('',(#463,#464,#465,#466,#467,#468,#469,#470,#471,#472,
#473,#474,#475,#476,#477,#478,#479,#480,#481,#482,#483,#484,#485,#486,#487,
#488,#489,#490,#491,#492,#493,#494,#495));
#497=DERIVED_UNIT_ELEMENT(#499,1.);
#498=DERIVED_UNIT_ELEMENT(#1115,-3.);
#499=(
MASS_UNIT()
NAMED_UNIT(*)
SI_UNIT(.KILO.,.GRAM.)
);
#500=DERIVED_UNIT((#497,#498));
#501=MEASURE_REPRESENTATION_ITEM('density measure',
POSITIVE_RATIO_MEASURE(7850.),#500);
#502=PROPERTY_DEFINITION_REPRESENTATION(#507,#504);
#503=PROPERTY_DEFINITION_REPRESENTATION(#508,#505);
#504=REPRESENTATION('material name',(#506),#1112);
#505=REPRESENTATION('density',(#501),#1112);
#506=DESCRIPTIVE_REPRESENTATION_ITEM('Steel','Steel');
#507=PROPERTY_DEFINITION('material property','material name',#1122);
#508=PROPERTY_DEFINITION('material property','density of part',#1122);
#509=AXIS2_PLACEMENT_3D('',#702,#566,#567);
#510=AXIS2_PLACEMENT_3D('',#703,#568,#569);
#511=AXIS2_PLACEMENT_3D('',#705,#570,#571);
#512=AXIS2_PLACEMENT_3D('',#707,#572,#573);
#513=AXIS2_PLACEMENT_3D('',#708,#574,#575);
#514=AXIS2_PLACEMENT_3D('',#709,#576,#577);
#515=AXIS2_PLACEMENT_3D('',#713,#579,#580);
#516=AXIS2_PLACEMENT_3D('',#714,#581,#582);
#517=AXIS2_PLACEMENT_3D('',#723,#583,#584);
#518=AXIS2_PLACEMENT_3D('',#726,#586,#587);
#519=AXIS2_PLACEMENT_3D('',#742,#589,#590);
#520=AXIS2_PLACEMENT_3D('',#758,#592,#593);
#521=AXIS2_PLACEMENT_3D('',#774,#595,#596);
#522=AXIS2_PLACEMENT_3D('',#782,#598,#599);
#523=AXIS2_PLACEMENT_3D('',#794,#601,#602);
#524=AXIS2_PLACEMENT_3D('',#795,#603,#604);
#525=AXIS2_PLACEMENT_3D('',#796,#605,#606);
#526=AXIS2_PLACEMENT_3D('',#802,#610,#611);
#527=AXIS2_PLACEMENT_3D('',#803,#612,#613);
#528=AXIS2_PLACEMENT_3D('',#804,#614,#615);
#529=AXIS2_PLACEMENT_3D('',#831,#616,#617);
#530=AXIS2_PLACEMENT_3D('',#838,#618,#619);
#531=AXIS2_PLACEMENT_3D('',#839,#620,#621);
#532=AXIS2_PLACEMENT_3D('',#841,#622,#623);
#533=AXIS2_PLACEMENT_3D('',#869,#625,#626);
#534=AXIS2_PLACEMENT_3D('',#875,#627,#628);
#535=AXIS2_PLACEMENT_3D('',#877,#629,#630);
#536=AXIS2_PLACEMENT_3D('',#878,#631,#632);
#537=AXIS2_PLACEMENT_3D('',#905,#633,#634);
#538=AXIS2_PLACEMENT_3D('',#911,#635,#636);
#539=AXIS2_PLACEMENT_3D('',#913,#637,#638);
#540=AXIS2_PLACEMENT_3D('',#941,#640,#641);
#541=AXIS2_PLACEMENT_3D('',#947,#642,#643);
#542=AXIS2_PLACEMENT_3D('',#949,#644,#645);
#543=AXIS2_PLACEMENT_3D('',#950,#646,#647);
#544=AXIS2_PLACEMENT_3D('',#977,#648,#649);
#545=AXIS2_PLACEMENT_3D('',#983,#650,#651);
#546=AXIS2_PLACEMENT_3D('',#985,#652,#653);
#547=AXIS2_PLACEMENT_3D('',#1013,#655,#656);
#548=AXIS2_PLACEMENT_3D('',#1019,#657,#658);
#549=AXIS2_PLACEMENT_3D('',#1021,#659,#660);
#550=AXIS2_PLACEMENT_3D('',#1022,#661,#662);
#551=AXIS2_PLACEMENT_3D('',#1049,#663,#664);
#552=AXIS2_PLACEMENT_3D('',#1055,#665,#666);
#553=AXIS2_PLACEMENT_3D('',#1057,#667,#668);
#554=AXIS2_PLACEMENT_3D('',#1085,#670,#671);
#555=AXIS2_PLACEMENT_3D('',#1091,#672,#673);
#556=AXIS2_PLACEMENT_3D('',#1092,#674,#675);
#557=AXIS2_PLACEMENT_3D('',#1093,#676,#677);
#558=AXIS2_PLACEMENT_3D('',#1096,#680,#681);
#559=AXIS2_PLACEMENT_3D('',#1098,#683,#684);
#560=AXIS2_PLACEMENT_3D('',#1100,#686,#687);
#561=AXIS2_PLACEMENT_3D('',#1102,#689,#690);
#562=AXIS2_PLACEMENT_3D('',#1104,#692,#693);
#563=AXIS2_PLACEMENT_3D('',#1106,#695,#696);
#564=AXIS2_PLACEMENT_3D('',#1107,#697,#698);
#565=AXIS2_PLACEMENT_3D('',#1109,#700,#701);
#566=DIRECTION('axis',(0.,0.,1.));
#567=DIRECTION('refdir',(1.,0.,0.));
#568=DIRECTION('center_axis',(0.,0.,1.));
#569=DIRECTION('ref_axis',(1.,0.,0.));
#570=DIRECTION('center_axis',(0.,0.,-1.));
#571=DIRECTION('ref_axis',(1.,0.,0.));
#572=DIRECTION('center_axis',(1.22464679914735E-16,-1.,0.));
#573=DIRECTION('ref_axis',(-1.,-1.22464679914735E-16,0.));
#574=DIRECTION('center_axis',(0.,0.,1.));
#575=DIRECTION('ref_axis',(1.,0.,0.));
#576=DIRECTION('center_axis',(0.,0.,1.));
#577=DIRECTION('ref_axis',(1.,0.,0.));
#578=DIRECTION('',(0.,-1.,0.));
#579=DIRECTION('center_axis',(0.,0.,-1.));
#580=DIRECTION('ref_axis',(-0.491803278688525,0.870706342615705,0.));
#581=DIRECTION('center_axis',(0.,0.,1.));
#582=DIRECTION('ref_axis',(1.,0.,0.));
#583=DIRECTION('center_axis',(0.,0.,1.));
#584=DIRECTION('ref_axis',(-1.,-1.22464679914735E-16,0.));
#585=DIRECTION('',(0.,0.,-1.));
#586=DIRECTION('center_axis',(0.,0.,1.));
#587=DIRECTION('ref_axis',(-1.,-1.22464679914735E-16,0.));
#588=DIRECTION('',(0.,0.,-1.));
#589=DIRECTION('center_axis',(0.,0.,1.));
#590=DIRECTION('ref_axis',(6.12323399573677E-17,1.,0.));
#591=DIRECTION('',(0.,0.,1.));
#592=DIRECTION('center_axis',(0.,0.,1.));
#593=DIRECTION('ref_axis',(1.,0.,0.));
#594=DIRECTION('',(0.,0.,-1.));
#595=DIRECTION('center_axis',(0.,0.,1.));
#596=DIRECTION('ref_axis',(6.12323399573677E-17,-1.,0.));
#597=DIRECTION('',(0.,0.,1.));
#598=DIRECTION('center_axis',(-0.857492925712544,0.,-0.514495755427526));
#599=DIRECTION('ref_axis',(-0.514495755427526,0.,0.857492925712544));
#600=DIRECTION('',(0.,1.,0.));
#601=DIRECTION('center_axis',(0.,0.,-1.));
#602=DIRECTION('ref_axis',(-1.,2.60208521396521E-16,0.));
#603=DIRECTION('center_axis',(0.,0.,1.));
#604=DIRECTION('ref_axis',(-0.491803278688525,0.870706342615705,0.));
#605=DIRECTION('center_axis',(1.,0.,0.));
#606=DIRECTION('ref_axis',(0.,1.,0.));
#607=DIRECTION('',(0.,0.,1.));
#608=DIRECTION('',(0.,1.,0.));
#609=DIRECTION('',(0.,0.,1.));
#610=DIRECTION('center_axis',(0.,0.,1.));
#611=DIRECTION('ref_axis',(-1.,-2.73005661793071E-16,0.));
#612=DIRECTION('center_axis',(0.,0.,1.));
#613=DIRECTION('ref_axis',(0.491803278688525,-0.870706342615705,0.));
#614=DIRECTION('center_axis',(0.,0.,-1.));
#615=DIRECTION('ref_axis',(1.,0.,0.));
#616=DIRECTION('center_axis',(-1.48029736616688E-14,3.72689684882845E-15,
-1.));
#617=DIRECTION('ref_axis',(-0.24414781046352,-0.969738029905948,0.));
#618=DIRECTION('center_axis',(0.912309156139189,-0.409502141172181,-6.40714680749134E-15));
#619=DIRECTION('ref_axis',(3.70074341541721E-15,-7.40148683083442E-15,1.));
#620=DIRECTION('center_axis',(0.,0.,-1.));
#621=DIRECTION('ref_axis',(-0.788716619091898,-0.614756939585268,0.));
#622=DIRECTION('center_axis',(0.,0.,-1.));
#623=DIRECTION('ref_axis',(-0.244147810463518,-0.969738029905948,0.));
#624=DIRECTION('',(0.,0.,-1.));
#625=DIRECTION('center_axis',(-0.992025468362042,0.126037574243046,0.));
#626=DIRECTION('ref_axis',(-0.126037574243046,-0.992025468362042,0.));
#627=DIRECTION('center_axis',(0.,0.,1.));
#628=DIRECTION('ref_axis',(1.,0.,0.));
#629=DIRECTION('center_axis',(-0.992025468362042,-0.126037574243047,9.17807929991751E-16));
#630=DIRECTION('ref_axis',(0.126037574243047,-0.992025468362042,0.));
#631=DIRECTION('center_axis',(0.,0.,-1.));
#632=DIRECTION('ref_axis',(6.12323399573677E-17,-1.,0.));
#633=DIRECTION('center_axis',(0.,0.,1.));
#634=DIRECTION('ref_axis',(0.244147810463515,-0.969738029905949,0.));
#635=DIRECTION('center_axis',(0.,0.,1.));
#636=DIRECTION('ref_axis',(0.788716619091904,-0.614756939585261,0.));
#637=DIRECTION('center_axis',(0.,0.,1.));
#638=DIRECTION('ref_axis',(0.244147810463518,-0.969738029905948,0.));
#639=DIRECTION('',(0.,0.,1.));
#640=DIRECTION('center_axis',(-0.91230915613919,-0.409502141172178,0.));
#641=DIRECTION('ref_axis',(0.409502141172178,-0.91230915613919,0.));
#642=DIRECTION('center_axis',(0.,0.,-1.));
#643=DIRECTION('ref_axis',(1.,1.22464679914735E-16,0.));
#644=DIRECTION('center_axis',(0.91230915613919,-0.409502141172178,0.));
#645=DIRECTION('ref_axis',(0.409502141172178,0.91230915613919,0.));
#646=DIRECTION('center_axis',(0.,0.,-1.));
#647=DIRECTION('ref_axis',(1.,0.,0.));
#648=DIRECTION('center_axis',(-1.48029736616688E-14,3.72689684882842E-15,
-1.));
#649=DIRECTION('ref_axis',(0.244147810463518,0.969738029905948,0.));
#650=DIRECTION('center_axis',(0.,0.,-1.));
#651=DIRECTION('ref_axis',(0.788716619091904,0.614756939585261,0.));
#652=DIRECTION('center_axis',(0.,0.,-1.));
#653=DIRECTION('ref_axis',(0.244147810463518,0.969738029905948,0.));
#654=DIRECTION('',(0.,0.,-1.));
#655=DIRECTION('center_axis',(0.992025468362041,-0.12603757424305,0.));
#656=DIRECTION('ref_axis',(0.12603757424305,0.992025468362041,0.));
#657=DIRECTION('center_axis',(0.,0.,1.));
#658=DIRECTION('ref_axis',(1.,0.,0.));
#659=DIRECTION('center_axis',(0.992025468362042,0.126037574243047,0.));
#660=DIRECTION('ref_axis',(-0.126037574243047,0.992025468362042,0.));
#661=DIRECTION('center_axis',(0.,0.,-1.));
#662=DIRECTION('ref_axis',(6.12323399573677E-17,1.,0.));
#663=DIRECTION('center_axis',(0.,0.,1.));
#664=DIRECTION('ref_axis',(-0.244147810463522,0.969738029905947,0.));
#665=DIRECTION('center_axis',(0.,0.,1.));
#666=DIRECTION('ref_axis',(-0.788716619091898,0.614756939585268,0.));
#667=DIRECTION('center_axis',(0.,0.,1.));
#668=DIRECTION('ref_axis',(-0.244147810463518,0.969738029905948,0.));
#669=DIRECTION('',(0.,0.,1.));
#670=DIRECTION('center_axis',(0.912309156139188,0.409502141172184,0.));
#671=DIRECTION('ref_axis',(-0.409502141172184,0.912309156139188,0.));
#672=DIRECTION('center_axis',(0.,0.,-1.));
#673=DIRECTION('ref_axis',(-1.,0.,0.));
#674=DIRECTION('center_axis',(0.,0.,-1.));
#675=DIRECTION('ref_axis',(-1.,-1.22464679914735E-16,0.));
#676=DIRECTION('center_axis',(-1.,0.,0.));
#677=DIRECTION('ref_axis',(0.,1.,0.));
#678=DIRECTION('',(0.,1.,0.));
#679=DIRECTION('',(0.,-1.,0.));
#680=DIRECTION('center_axis',(0.,1.,0.));
#681=DIRECTION('ref_axis',(0.707106781186548,0.,0.707106781186547));
#682=DIRECTION('',(0.,-1.,0.));
#683=DIRECTION('center_axis',(0.,0.,1.));
#684=DIRECTION('ref_axis',(1.,0.,0.));
#685=DIRECTION('',(0.,1.,0.));
#686=DIRECTION('center_axis',(0.,-1.,0.));
#687=DIRECTION('ref_axis',(-0.707106781186548,0.,0.707106781186547));
#688=DIRECTION('',(0.,-1.,0.));
#689=DIRECTION('center_axis',(0.,0.,1.));
#690=DIRECTION('ref_axis',(-1.,0.,0.));
#691=DIRECTION('',(0.,-1.,0.));
#692=DIRECTION('center_axis',(1.,0.,0.));
#693=DIRECTION('ref_axis',(0.,-1.,0.));
#694=DIRECTION('',(0.,1.,0.));
#695=DIRECTION('center_axis',(0.,-1.,0.));
#696=DIRECTION('ref_axis',(0.707106781186548,0.,-0.707106781186547));
#697=DIRECTION('center_axis',(0.,1.,0.));
#698=DIRECTION('ref_axis',(-0.707106781186548,0.,-0.707106781186547));
#699=DIRECTION('',(0.,1.,0.));
#700=DIRECTION('center_axis',(0.,0.,1.));
#701=DIRECTION('ref_axis',(-1.,0.,0.));
#702=CARTESIAN_POINT('',(0.,0.,0.));
#703=CARTESIAN_POINT('Origin',(0.,0.,0.3));
#704=CARTESIAN_POINT('',(-6.5,7.9602041944578E-16,0.3));
#705=CARTESIAN_POINT('Origin',(0.,0.,0.3));
#706=CARTESIAN_POINT('',(-6.2,-7.59281015471359E-16,0.));
#707=CARTESIAN_POINT('Origin',(-6.2,-7.59281015471359E-16,0.3));
#708=CARTESIAN_POINT('Origin',(0.,0.,0.));
#709=CARTESIAN_POINT('Origin',(0.,0.,0.));
#710=CARTESIAN_POINT('',(1.8,2.82533183891733,0.));
#711=CARTESIAN_POINT('',(1.8,-2.82533183891733,0.));
#712=CARTESIAN_POINT('',(1.8,-1.32782717248895,0.));
#713=CARTESIAN_POINT('Origin',(0.,0.,0.));
#714=CARTESIAN_POINT('Origin',(0.,0.,0.));
#715=CARTESIAN_POINT('',(-2.66176391761917,-5.93000951490473,12.35));
#716=CARTESIAN_POINT('',(-1.58696076801287,-6.30329719438866,13.4));
#717=CARTESIAN_POINT('Ctrl Pts',(-2.66176391761917,-5.93000951490473,12.35));
#718=CARTESIAN_POINT('Ctrl Pts',(-2.35886622189141,-6.06596918835748,12.35));
#719=CARTESIAN_POINT('Ctrl Pts',(-1.80241485394511,-6.25528418737838,12.5888099184751));
#720=CARTESIAN_POINT('Ctrl Pts',(-1.58696076801287,-6.30329719438866,13.1567372746574));
#721=CARTESIAN_POINT('Ctrl Pts',(-1.58696076801287,-6.30329719438866,13.4));
#722=CARTESIAN_POINT('',(-6.5,-7.9602041944578E-16,12.35));
#723=CARTESIAN_POINT('Origin',(0.,0.,12.35));
#724=CARTESIAN_POINT('',(-6.5,-7.9602041944578E-16,0.));
#725=CARTESIAN_POINT('',(-2.66176391761917,5.93000951490473,12.35));
#726=CARTESIAN_POINT('Origin',(0.,0.,12.35));
#727=CARTESIAN_POINT('',(-1.58696076801287,6.30329719438866,13.4));
#728=CARTESIAN_POINT('Ctrl Pts',(-1.58696076801287,6.30329719438866,13.4));
#729=CARTESIAN_POINT('Ctrl Pts',(-1.58696076801287,6.30329719438866,13.1567372746574));
#730=CARTESIAN_POINT('Ctrl Pts',(-1.80241485394511,6.25528418737838,12.5888099184751));
#731=CARTESIAN_POINT('Ctrl Pts',(-2.35886622189141,6.06596918835748,12.35));
#732=CARTESIAN_POINT('Ctrl Pts',(-2.66176391761917,5.93000951490473,12.35));
#733=CARTESIAN_POINT('',(-1.58696076801287,6.30329719438866,16.1));
#734=CARTESIAN_POINT('',(-1.58696076801287,6.30329719438866,0.));
#735=CARTESIAN_POINT('',(-0.819244232579802,6.44816554435327,16.85));
#736=CARTESIAN_POINT('Ctrl Pts',(-0.819244232579801,6.44816554435327,16.85));
#737=CARTESIAN_POINT('Ctrl Pts',(-0.991550986298572,6.42627384302401,16.85));
#738=CARTESIAN_POINT('Ctrl Pts',(-1.39104855030168,6.35590070882254,16.7144072840951));
#739=CARTESIAN_POINT('Ctrl Pts',(-1.58696076801287,6.30329719438866,16.3262447882452));
#740=CARTESIAN_POINT('Ctrl Pts',(-1.58696076801287,6.30329719438866,16.1));
#741=CARTESIAN_POINT('',(0.819244232579802,6.44816554435327,16.85));
#742=CARTESIAN_POINT('Origin',(0.,0.,16.85));
#743=CARTESIAN_POINT('',(1.58696076801287,6.30329719438866,16.1));
#744=CARTESIAN_POINT('Ctrl Pts',(1.58696076801287,6.30329719438866,16.1));
#745=CARTESIAN_POINT('Ctrl Pts',(1.58696076801287,6.30329719438866,16.2696835766531));
#746=CARTESIAN_POINT('Ctrl Pts',(1.44340735157064,6.34227581555111,16.6638612864763));
#747=CARTESIAN_POINT('Ctrl Pts',(1.04898655119758,6.41897661174717,16.85));
#748=CARTESIAN_POINT('Ctrl Pts',(0.819244232579802,6.44816554435327,16.85));
#749=CARTESIAN_POINT('',(1.58696076801287,6.30329719438866,13.4));
#750=CARTESIAN_POINT('',(1.58696076801287,6.30329719438866,0.));
#751=CARTESIAN_POINT('',(2.66176391761917,5.93000951490473,12.35));
#752=CARTESIAN_POINT('Ctrl Pts',(2.66176391761917,5.93000951490473,12.35));
#753=CARTESIAN_POINT('Ctrl Pts',(2.35887114296725,6.06596697946691,12.35));
#754=CARTESIAN_POINT('Ctrl Pts',(1.80238423115949,6.25529572589096,12.5888230641842));
#755=CARTESIAN_POINT('Ctrl Pts',(1.58696076801287,6.30329719438866,13.1567412268641));
#756=CARTESIAN_POINT('Ctrl Pts',(1.58696076801287,6.30329719438866,13.4));
#757=CARTESIAN_POINT('',(2.66176391761917,-5.93000951490473,12.35));
#758=CARTESIAN_POINT('Origin',(0.,0.,12.35));
#759=CARTESIAN_POINT('',(1.58696076801287,-6.30329719438866,13.4));
#760=CARTESIAN_POINT('Ctrl Pts',(1.58696076801287,-6.30329719438866,13.4));
#761=CARTESIAN_POINT('Ctrl Pts',(1.58696076801287,-6.30329719438866,13.1567372746574));
#762=CARTESIAN_POINT('Ctrl Pts',(1.80241485394511,-6.25528418737838,12.5888099184751));
#763=CARTESIAN_POINT('Ctrl Pts',(2.35886622189141,-6.06596918835748,12.35));
#764=CARTESIAN_POINT('Ctrl Pts',(2.66176391761917,-5.93000951490473,12.35));
#765=CARTESIAN_POINT('',(1.58696076801287,-6.30329719438866,16.1));
#766=CARTESIAN_POINT('',(1.58696076801287,-6.30329719438866,0.));
#767=CARTESIAN_POINT('',(0.819244232579801,-6.44816554435327,16.85));
#768=CARTESIAN_POINT('Ctrl Pts',(0.819244232579801,-6.44816554435327,16.85));
#769=CARTESIAN_POINT('Ctrl Pts',(0.991550986298571,-6.42627384302401,16.85));
#770=CARTESIAN_POINT('Ctrl Pts',(1.39104855030168,-6.35590070882254,16.7144072840951));
#771=CARTESIAN_POINT('Ctrl Pts',(1.58696076801287,-6.30329719438866,16.3262447882452));
#772=CARTESIAN_POINT('Ctrl Pts',(1.58696076801287,-6.30329719438866,16.1));
#773=CARTESIAN_POINT('',(-0.819244232579801,-6.44816554435327,16.85));
#774=CARTESIAN_POINT('Origin',(0.,0.,16.85));
#775=CARTESIAN_POINT('',(-1.58696076801287,-6.30329719438866,16.1));
#776=CARTESIAN_POINT('Ctrl Pts',(-1.58696076801287,-6.30329719438866,16.1));
#777=CARTESIAN_POINT('Ctrl Pts',(-1.58696076801287,-6.30329719438866,16.2696835766531));
#778=CARTESIAN_POINT('Ctrl Pts',(-1.44340735157064,-6.34227581555111,16.6638612864763));
#779=CARTESIAN_POINT('Ctrl Pts',(-1.04898655119758,-6.41897661174717,16.85));
#780=CARTESIAN_POINT('Ctrl Pts',(-0.819244232579801,-6.44816554435327,16.85));
#781=CARTESIAN_POINT('',(-1.58696076801287,-6.30329719438866,0.));
#782=CARTESIAN_POINT('Origin',(1.65,-1.32782717248895,0.25));
#783=CARTESIAN_POINT('',(1.5,-2.6556543449779,0.5));
#784=CARTESIAN_POINT('',(1.5,2.6556543449779,0.5));
#785=CARTESIAN_POINT('',(1.5,-1.32782717248895,0.5));
#786=CARTESIAN_POINT('Ctrl Pts',(1.5,2.6556543449779,0.500000000000001));
#787=CARTESIAN_POINT('Ctrl Pts',(1.59965000788707,2.71381609803777,0.333916653521544));
#788=CARTESIAN_POINT('Ctrl Pts',(1.69986804365775,2.77039863418979,0.166886593903751));
#789=CARTESIAN_POINT('Ctrl Pts',(1.8,2.82533183891733,-1.04083408558608E-16));
#790=CARTESIAN_POINT('Ctrl Pts',(1.8,-2.82533183891733,6.93889390390723E-17));
#791=CARTESIAN_POINT('Ctrl Pts',(1.69986804365765,-2.77039863418974,0.166886593903911));
#792=CARTESIAN_POINT('Ctrl Pts',(1.59965000788703,-2.71381609803774,0.333916653521613));
#793=CARTESIAN_POINT('Ctrl Pts',(1.5,-2.6556543449779,0.5));
#794=CARTESIAN_POINT('Origin',(0.,0.,0.25));
#795=CARTESIAN_POINT('Origin',(0.,0.,0.5));
#796=CARTESIAN_POINT('Origin',(1.5,-2.6556543449779,0.));
#797=CARTESIAN_POINT('',(1.5,-2.6556543449779,8.));
#798=CARTESIAN_POINT('',(1.5,-2.6556543449779,0.));
#799=CARTESIAN_POINT('',(1.5,2.6556543449779,8.));
#800=CARTESIAN_POINT('',(1.5,-2.6556543449779,8.));
#801=CARTESIAN_POINT('',(1.5,2.6556543449779,0.));
#802=CARTESIAN_POINT('Origin',(0.,0.,0.));
#803=CARTESIAN_POINT('Origin',(0.,0.,8.));
#804=CARTESIAN_POINT('Origin',(-0.775,0.,8.));
#805=CARTESIAN_POINT('Ctrl Pts',(-2.66176391761917,-5.93000951490473,12.35));
#806=CARTESIAN_POINT('Ctrl Pts',(-2.35886622189141,-6.06596918835748,12.35));
#807=CARTESIAN_POINT('Ctrl Pts',(-1.80241485394511,-6.25528418737838,12.5888099184751));
#808=CARTESIAN_POINT('Ctrl Pts',(-1.58696076801287,-6.30329719438866,13.1567372746574));
#809=CARTESIAN_POINT('Ctrl Pts',(-1.58696076801287,-6.30329719438866,13.4));
#810=CARTESIAN_POINT('Ctrl Pts',(-2.66176391761917,-5.93000951490473,12.3948798950513));
#811=CARTESIAN_POINT('Ctrl Pts',(-2.36936081305531,-6.06110961800502,12.3915111549471));
#812=CARTESIAN_POINT('Ctrl Pts',(-1.83119915587129,-6.24627391116455,12.6186642590607));
#813=CARTESIAN_POINT('Ctrl Pts',(-1.62364888116341,-6.29406034668392,13.165795672471));
#814=CARTESIAN_POINT('Ctrl Pts',(-1.62364888116341,-6.29406034668392,13.4));
#815=CARTESIAN_POINT('Ctrl Pts',(-2.6463443145236,-5.89565695926765,12.4725978259058));
#816=CARTESIAN_POINT('Ctrl Pts',(-2.3763603107205,-6.0233170202153,12.4638666226128));
#817=CARTESIAN_POINT('Ctrl Pts',(-1.87407470589833,-6.20524694314223,12.6706577180773));
#818=CARTESIAN_POINT('Ctrl Pts',(-1.68109717985287,-6.25249406088501,13.1814994757619));
#819=CARTESIAN_POINT('Ctrl Pts',(-1.68109717985287,-6.25249406088501,13.4));
#820=CARTESIAN_POINT('Ctrl Pts',(-2.61412240628266,-5.82387139587024,12.5));
#821=CARTESIAN_POINT('Ctrl Pts',(-2.35795231124798,-5.95515960558741,12.4960787987529));
#822=CARTESIAN_POINT('Ctrl Pts',(-1.88350597886678,-6.13920630932362,12.6988085121714));
#823=CARTESIAN_POINT('Ctrl Pts',(-1.70033859644334,-6.18621125093547,13.1898480827811));
#824=CARTESIAN_POINT('Ctrl Pts',(-1.70033859644334,-6.18621125093547,13.4));
#825=CARTESIAN_POINT('Ctrl Pts',(-2.60033859644335,-5.79316314148385,12.5));
#826=CARTESIAN_POINT('Ctrl Pts',(-2.34670338309768,-5.92598528401077,12.5));
#827=CARTESIAN_POINT('Ctrl Pts',(-1.88075179807012,-6.11093147536196,12.7046942158358));
#828=CARTESIAN_POINT('Ctrl Pts',(-1.70033859644334,-6.15783648990277,13.1914890925635));
#829=CARTESIAN_POINT('Ctrl Pts',(-1.70033859644334,-6.15783648990277,13.4));
#830=CARTESIAN_POINT('',(-1.70033859644334,-6.15783648990277,13.4));
#831=CARTESIAN_POINT('Origin',(-1.55033859644334,-6.15783648990277,13.4));
#832=CARTESIAN_POINT('',(-2.60033859644334,-5.79316314148385,12.5));
#833=CARTESIAN_POINT('Ctrl Pts',(-1.70033859644334,-6.15783648990277,13.4));
#834=CARTESIAN_POINT('Ctrl Pts',(-1.70033859644334,-6.15783648990277,13.1914890925635));
#835=CARTESIAN_POINT('Ctrl Pts',(-1.88075179807012,-6.11093147536196,12.7046942158358));
#836=CARTESIAN_POINT('Ctrl Pts',(-2.34670338309768,-5.92598528401077,12.5));
#837=CARTESIAN_POINT('Ctrl Pts',(-2.60033859644335,-5.79316314148385,12.5));
#838=CARTESIAN_POINT('Origin',(-2.60033859644335,-5.79316314148385,12.35));
#839=CARTESIAN_POINT('Origin',(-1.55033859644334,-6.15783648990277,0.));
#840=CARTESIAN_POINT('',(-1.70033859644334,-6.15783648990277,16.1));
#841=CARTESIAN_POINT('Origin',(-1.55033859644334,-6.15783648990277,16.1));
#842=CARTESIAN_POINT('',(-1.70033859644334,-6.15783648990277,0.));
#843=CARTESIAN_POINT('Ctrl Pts',(-1.58696076801287,-6.30329719438866,16.1));
#844=CARTESIAN_POINT('Ctrl Pts',(-1.58696076801287,-6.30329719438866,16.2696835766531));
#845=CARTESIAN_POINT('Ctrl Pts',(-1.44340735157064,-6.34227581555111,16.6638612864763));
#846=CARTESIAN_POINT('Ctrl Pts',(-1.04898655119758,-6.41897661174717,16.85));
#847=CARTESIAN_POINT('Ctrl Pts',(-0.819244232579801,-6.44816554435327,16.85));
#848=CARTESIAN_POINT('Ctrl Pts',(-1.62364888116341,-6.29406034668392,16.1));
#849=CARTESIAN_POINT('Ctrl Pts',(-1.62364888116341,-6.29406034668392,16.2785295100884));
#850=CARTESIAN_POINT('Ctrl Pts',(-1.47566233103561,-6.3352762571087,16.6934098977505));
#851=CARTESIAN_POINT('Ctrl Pts',(-1.06227230760874,-6.41724388268002,16.8937789023705));
#852=CARTESIAN_POINT('Ctrl Pts',(-0.819244232579801,-6.44816554435327,16.8948798950513));
#853=CARTESIAN_POINT('Ctrl Pts',(-1.68109429708596,-6.25249214311444,16.1));
#854=CARTESIAN_POINT('Ctrl Pts',(-1.68109429708596,-6.25249214311444,16.2938649812667));
#855=CARTESIAN_POINT('Ctrl Pts',(-1.52484094907146,-6.29460143954423,16.744857251683));
#856=CARTESIAN_POINT('Ctrl Pts',(-1.07922302298427,-6.37911943496271,16.969739124794));
#857=CARTESIAN_POINT('Ctrl Pts',(-0.814497812018622,-6.41080708114477,16.9725927111861));
#858=CARTESIAN_POINT('Ctrl Pts',(-1.70033859644334,-6.18621125093547,16.1));
#859=CARTESIAN_POINT('Ctrl Pts',(-1.70033859644334,-6.18621125093547,16.3020177720237));
#860=CARTESIAN_POINT('Ctrl Pts',(-1.53548331417921,-6.22549626216447,16.771589884536));
#861=CARTESIAN_POINT('Ctrl Pts',(-1.0750324721958,-6.30329220238311,16.9987184485181));
#862=CARTESIAN_POINT('Ctrl Pts',(-0.804581011271754,-6.33275322328018,17.));
#863=CARTESIAN_POINT('Ctrl Pts',(-1.70033859644334,-6.15783648990277,16.1));
#864=CARTESIAN_POINT('Ctrl Pts',(-1.70033859644334,-6.15783648990277,16.3036202919837));
#865=CARTESIAN_POINT('Ctrl Pts',(-1.53204982209107,-6.19591560442301,16.7766335437716));
#866=CARTESIAN_POINT('Ctrl Pts',(-1.06966728380758,-6.27084638224531,17.));
#867=CARTESIAN_POINT('Ctrl Pts',(-0.800338596443344,-6.29936172409896,17.));
#868=CARTESIAN_POINT('',(-0.800338596443344,-6.29936172409896,17.));
#869=CARTESIAN_POINT('Origin',(-0.800338596443344,-6.29936172409896,16.85));
#870=CARTESIAN_POINT('Ctrl Pts',(-0.800338596443344,-6.29936172409896,17.));
#871=CARTESIAN_POINT('Ctrl Pts',(-1.06966728380758,-6.27084638224531,17.));
#872=CARTESIAN_POINT('Ctrl Pts',(-1.53204982209107,-6.19591560442301,16.7766335437716));
#873=CARTESIAN_POINT('Ctrl Pts',(-1.70033859644334,-6.15783648990277,16.3036202919837));
#874=CARTESIAN_POINT('Ctrl Pts',(-1.70033859644334,-6.15783648990277,16.1));
#875=CARTESIAN_POINT('Origin',(0.,0.,16.85));
#876=CARTESIAN_POINT('',(0.800338596443344,-6.29936172409897,17.));
#877=CARTESIAN_POINT('Origin',(0.800338596443344,-6.29936172409897,16.85));
#878=CARTESIAN_POINT('Origin',(0.,0.,17.));
#879=CARTESIAN_POINT('Ctrl Pts',(0.819244232579801,-6.44816554435327,16.85));
#880=CARTESIAN_POINT('Ctrl Pts',(0.991550986298571,-6.42627384302401,16.85));
#881=CARTESIAN_POINT('Ctrl Pts',(1.39104855030168,-6.35590070882254,16.7144072840951));
#882=CARTESIAN_POINT('Ctrl Pts',(1.58696076801287,-6.30329719438866,16.3262447882452));
#883=CARTESIAN_POINT('Ctrl Pts',(1.58696076801287,-6.30329719438866,16.1));
#884=CARTESIAN_POINT('Ctrl Pts',(0.819244232579801,-6.44816554435327,16.8948798950513));
#885=CARTESIAN_POINT('Ctrl Pts',(1.00151530446023,-6.42497429611236,16.89405415047));
#886=CARTESIAN_POINT('Ctrl Pts',(1.42144674401747,-6.34975694707007,16.7471247993576));
#887=CARTESIAN_POINT('Ctrl Pts',(1.62364888116341,-6.29406034668392,16.338039367169));
#888=CARTESIAN_POINT('Ctrl Pts',(1.62364888116341,-6.29406034668392,16.1));
#889=CARTESIAN_POINT('Ctrl Pts',(0.814497812018616,-6.41080708114473,16.972592711186));
#890=CARTESIAN_POINT('Ctrl Pts',(1.0130417372451,-6.38704134447302,16.9704525212087));
#891=CARTESIAN_POINT('Ctrl Pts',(1.46721601604983,-6.30954370141492,16.8041898304175));
#892=CARTESIAN_POINT('Ctrl Pts',(1.68109429708593,-6.25249214311443,16.3584866638243));
#893=CARTESIAN_POINT('Ctrl Pts',(1.68109429708593,-6.25249214311443,16.1));
#894=CARTESIAN_POINT('Ctrl Pts',(0.804581011271754,-6.33275322328018,17.));
#895=CARTESIAN_POINT('Ctrl Pts',(1.00741962433481,-6.31065745571522,16.9990388363062));
#896=CARTESIAN_POINT('Ctrl Pts',(1.47505952025563,-6.23929666771628,16.8324618954083));
#897=CARTESIAN_POINT('Ctrl Pts',(1.70033859644334,-6.18621125093547,16.3693570524313));
#898=CARTESIAN_POINT('Ctrl Pts',(1.70033859644334,-6.18621125093547,16.1));
#899=CARTESIAN_POINT('Ctrl Pts',(0.800338596443344,-6.29936172409897,17.));
#900=CARTESIAN_POINT('Ctrl Pts',(1.00233512926443,-6.2779752158773,17.));
#901=CARTESIAN_POINT('Ctrl Pts',(1.47066919660345,-6.20922607708048,16.8372887409142));
#902=CARTESIAN_POINT('Ctrl Pts',(1.70033859644334,-6.15783648990277,16.3714937458942));
#903=CARTESIAN_POINT('Ctrl Pts',(1.70033859644334,-6.15783648990277,16.1));
#904=CARTESIAN_POINT('',(1.70033859644334,-6.15783648990277,16.1));
#905=CARTESIAN_POINT('Origin',(1.55033859644334,-6.15783648990277,16.1));
#906=CARTESIAN_POINT('Ctrl Pts',(1.70033859644334,-6.15783648990277,16.1));
#907=CARTESIAN_POINT('Ctrl Pts',(1.70033859644334,-6.15783648990277,16.3714937458942));
#908=CARTESIAN_POINT('Ctrl Pts',(1.47066919660345,-6.20922607708048,16.8372887409142));
#909=CARTESIAN_POINT('Ctrl Pts',(1.00233512926443,-6.2779752158773,17.));
#910=CARTESIAN_POINT('Ctrl Pts',(0.800338596443344,-6.29936172409897,17.));
#911=CARTESIAN_POINT('Origin',(1.55033859644334,-6.15783648990277,0.));
#912=CARTESIAN_POINT('',(1.70033859644334,-6.15783648990277,13.4));
#913=CARTESIAN_POINT('Origin',(1.55033859644334,-6.15783648990277,13.4));
#914=CARTESIAN_POINT('',(1.70033859644334,-6.15783648990277,0.));
#915=CARTESIAN_POINT('Ctrl Pts',(1.58696076801287,-6.30329719438866,13.4));
#916=CARTESIAN_POINT('Ctrl Pts',(1.58696076801287,-6.30329719438866,13.1567372746574));
#917=CARTESIAN_POINT('Ctrl Pts',(1.80241485394511,-6.25528418737838,12.5888099184751));
#918=CARTESIAN_POINT('Ctrl Pts',(2.35886622189141,-6.06596918835748,12.35));
#919=CARTESIAN_POINT('Ctrl Pts',(2.66176391761917,-5.93000951490473,12.35));
#920=CARTESIAN_POINT('Ctrl Pts',(1.62364888116341,-6.29406034668392,13.4));
#921=CARTESIAN_POINT('Ctrl Pts',(1.62364888116341,-6.29406034668392,13.165795672471));
#922=CARTESIAN_POINT('Ctrl Pts',(1.8311991558713,-6.24627391116455,12.6186642590607));
#923=CARTESIAN_POINT('Ctrl Pts',(2.36936081305531,-6.06110961800502,12.3915111549471));
#924=CARTESIAN_POINT('Ctrl Pts',(2.66176391761917,-5.93000951490473,12.3948798950513));
#925=CARTESIAN_POINT('Ctrl Pts',(1.68109717985287,-6.25249406088501,13.4));
#926=CARTESIAN_POINT('Ctrl Pts',(1.68109717985287,-6.25249406088501,13.1814994757619));
#927=CARTESIAN_POINT('Ctrl Pts',(1.87407470589834,-6.20524694314223,12.6706577180773));
#928=CARTESIAN_POINT('Ctrl Pts',(2.3763603107205,-6.0233170202153,12.4638666226128));
#929=CARTESIAN_POINT('Ctrl Pts',(2.6463443145236,-5.89565695926765,12.4725978259058));
#930=CARTESIAN_POINT('Ctrl Pts',(1.70033859644334,-6.18621125093547,13.4));
#931=CARTESIAN_POINT('Ctrl Pts',(1.70033859644334,-6.18621125093547,13.1898480827811));
#932=CARTESIAN_POINT('Ctrl Pts',(1.88350597886678,-6.13920630932362,12.6988085121714));
#933=CARTESIAN_POINT('Ctrl Pts',(2.35795231124798,-5.95515960558741,12.4960787987529));
#934=CARTESIAN_POINT('Ctrl Pts',(2.61412240628266,-5.82387139587024,12.5));
#935=CARTESIAN_POINT('Ctrl Pts',(1.70033859644334,-6.15783648990277,13.4));
#936=CARTESIAN_POINT('Ctrl Pts',(1.70033859644334,-6.15783648990277,13.1914890925635));
#937=CARTESIAN_POINT('Ctrl Pts',(1.88075179807012,-6.11093147536196,12.7046942158358));
#938=CARTESIAN_POINT('Ctrl Pts',(2.34670338309768,-5.92598528401077,12.5));
#939=CARTESIAN_POINT('Ctrl Pts',(2.60033859644334,-5.79316314148385,12.5));
#940=CARTESIAN_POINT('',(2.60033859644334,-5.79316314148385,12.5));
#941=CARTESIAN_POINT('Origin',(2.60033859644334,-5.79316314148385,12.35));
#942=CARTESIAN_POINT('Ctrl Pts',(2.60033859644334,-5.79316314148385,12.5));
#943=CARTESIAN_POINT('Ctrl Pts',(2.34670338309768,-5.92598528401077,12.5));
#944=CARTESIAN_POINT('Ctrl Pts',(1.88075179807012,-6.11093147536196,12.7046942158358));
#945=CARTESIAN_POINT('Ctrl Pts',(1.70033859644334,-6.15783648990277,13.1914890925635));
#946=CARTESIAN_POINT('Ctrl Pts',(1.70033859644334,-6.15783648990277,13.4));
#947=CARTESIAN_POINT('Origin',(0.,0.,12.35));
#948=CARTESIAN_POINT('',(2.60033859644334,5.79316314148385,12.5));
#949=CARTESIAN_POINT('Origin',(2.60033859644334,5.79316314148385,12.35));
#950=CARTESIAN_POINT('Origin',(0.,0.,12.5));
#951=CARTESIAN_POINT('Ctrl Pts',(2.66176391761917,5.93000951490473,12.35));
#952=CARTESIAN_POINT('Ctrl Pts',(2.35887114296725,6.06596697946691,12.35));
#953=CARTESIAN_POINT('Ctrl Pts',(1.80238423115949,6.25529572589096,12.5888230641842));
#954=CARTESIAN_POINT('Ctrl Pts',(1.58696076801287,6.30329719438866,13.1567412268641));
#955=CARTESIAN_POINT('Ctrl Pts',(1.58696076801287,6.30329719438866,13.4));
#956=CARTESIAN_POINT('Ctrl Pts',(2.66176391761917,5.93000951490473,12.3948798950513));
#957=CARTESIAN_POINT('Ctrl Pts',(2.3693655636291,6.06110748806623,12.3915112096779));
#958=CARTESIAN_POINT('Ctrl Pts',(1.83116958037391,6.24628511684821,12.6186766946999));
#959=CARTESIAN_POINT('Ctrl Pts',(1.62364888116341,6.29406034668392,13.1657994775091));
#960=CARTESIAN_POINT('Ctrl Pts',(1.62364888116341,6.29406034668392,13.4));
#961=CARTESIAN_POINT('Ctrl Pts',(2.6463443145236,5.89565695926765,12.4725978259058));
#962=CARTESIAN_POINT('Ctrl Pts',(2.3763646970588,6.0233149461657,12.4638667644657));
#963=CARTESIAN_POINT('Ctrl Pts',(1.87404725988787,6.20525790882329,12.6706689510609));
#964=CARTESIAN_POINT('Ctrl Pts',(1.68109717985287,6.25249406088501,13.1815030256657));
#965=CARTESIAN_POINT('Ctrl Pts',(1.68109717985287,6.25249406088501,13.4));
#966=CARTESIAN_POINT('Ctrl Pts',(2.61412240628266,5.82387139587024,12.5));
#967=CARTESIAN_POINT('Ctrl Pts',(2.3579564731564,5.95515747259252,12.4960788624594));
#968=CARTESIAN_POINT('Ctrl Pts',(1.88347998291846,6.1392174905613,12.6988196064964));
#969=CARTESIAN_POINT('Ctrl Pts',(1.70033859644334,6.18621125093547,13.1898514970479));
#970=CARTESIAN_POINT('Ctrl Pts',(1.70033859644334,6.18621125093547,13.4));
#971=CARTESIAN_POINT('Ctrl Pts',(2.60033859644334,5.79316314148385,12.5));
#972=CARTESIAN_POINT('Ctrl Pts',(2.34670750382274,5.92598312609459,12.5));
#973=CARTESIAN_POINT('Ctrl Pts',(1.88072615569359,6.11094274760117,12.7047054835865));
#974=CARTESIAN_POINT('Ctrl Pts',(1.70033859644334,6.15783648990277,13.1914924801694));
#975=CARTESIAN_POINT('Ctrl Pts',(1.70033859644334,6.15783648990277,13.4));
#976=CARTESIAN_POINT('',(1.70033859644334,6.15783648990277,13.4));
#977=CARTESIAN_POINT('Origin',(1.55033859644334,6.15783648990277,13.4));
#978=CARTESIAN_POINT('Ctrl Pts',(1.70033859644334,6.15783648990277,13.4));
#979=CARTESIAN_POINT('Ctrl Pts',(1.70033859644334,6.15783648990277,13.1914924801694));
#980=CARTESIAN_POINT('Ctrl Pts',(1.88072615569359,6.11094274760117,12.7047054835865));
#981=CARTESIAN_POINT('Ctrl Pts',(2.34670750382274,5.92598312609459,12.5));
#982=CARTESIAN_POINT('Ctrl Pts',(2.60033859644334,5.79316314148385,12.5));
#983=CARTESIAN_POINT('Origin',(1.55033859644334,6.15783648990277,0.));
#984=CARTESIAN_POINT('',(1.70033859644334,6.15783648990277,16.1));
#985=CARTESIAN_POINT('Origin',(1.55033859644334,6.15783648990277,16.1));
#986=CARTESIAN_POINT('',(1.70033859644334,6.15783648990277,0.));
#987=CARTESIAN_POINT('Ctrl Pts',(1.58696076801287,6.30329719438866,16.1));
#988=CARTESIAN_POINT('Ctrl Pts',(1.58696076801287,6.30329719438866,16.2696835766531));
#989=CARTESIAN_POINT('Ctrl Pts',(1.44340735157064,6.34227581555111,16.6638612864763));
#990=CARTESIAN_POINT('Ctrl Pts',(1.04898655119758,6.41897661174717,16.85));
#991=CARTESIAN_POINT('Ctrl Pts',(0.819244232579802,6.44816554435327,16.85));
#992=CARTESIAN_POINT('Ctrl Pts',(1.62364888116341,6.29406034668392,16.1));
#993=CARTESIAN_POINT('Ctrl Pts',(1.62364888116341,6.29406034668392,16.2785295100884));
#994=CARTESIAN_POINT('Ctrl Pts',(1.47566233103561,6.3352762571087,16.6934098977504));
#995=CARTESIAN_POINT('Ctrl Pts',(1.06227230760874,6.41724388268002,16.8937789023705));
#996=CARTESIAN_POINT('Ctrl Pts',(0.819244232579802,6.44816554435327,16.8948798950513));
#997=CARTESIAN_POINT('Ctrl Pts',(1.68109429708596,6.25249214311445,16.1));
#998=CARTESIAN_POINT('Ctrl Pts',(1.68109429708596,6.25249214311445,16.2938649812667));
#999=CARTESIAN_POINT('Ctrl Pts',(1.52484094907146,6.29460143954423,16.744857251683));
#1000=CARTESIAN_POINT('Ctrl Pts',(1.07922302298427,6.37911943496271,16.969739124794));
#1001=CARTESIAN_POINT('Ctrl Pts',(0.814497812018623,6.41080708114478,16.9725927111861));
#1002=CARTESIAN_POINT('Ctrl Pts',(1.70033859644335,6.18621125093547,16.1));
#1003=CARTESIAN_POINT('Ctrl Pts',(1.70033859644335,6.18621125093547,16.3020177720237));
#1004=CARTESIAN_POINT('Ctrl Pts',(1.53548331417921,6.22549626216446,16.771589884536));
#1005=CARTESIAN_POINT('Ctrl Pts',(1.0750324721958,6.30329220238311,16.9987184485181));
#1006=CARTESIAN_POINT('Ctrl Pts',(0.804581011271754,6.33275322328018,17.));
#1007=CARTESIAN_POINT('Ctrl Pts',(1.70033859644335,6.15783648990277,16.1));
#1008=CARTESIAN_POINT('Ctrl Pts',(1.70033859644335,6.15783648990277,16.3036202919837));
#1009=CARTESIAN_POINT('Ctrl Pts',(1.53204982209107,6.195915604423,16.7766335437716));
#1010=CARTESIAN_POINT('Ctrl Pts',(1.06966728380758,6.27084638224531,17.));
#1011=CARTESIAN_POINT('Ctrl Pts',(0.800338596443344,6.29936172409896,17.));
#1012=CARTESIAN_POINT('',(0.800338596443344,6.29936172409896,17.));
#1013=CARTESIAN_POINT('Origin',(0.800338596443344,6.29936172409896,16.85));
#1014=CARTESIAN_POINT('Ctrl Pts',(0.800338596443344,6.29936172409896,17.));
#1015=CARTESIAN_POINT('Ctrl Pts',(1.06966728380758,6.27084638224531,17.));
#1016=CARTESIAN_POINT('Ctrl Pts',(1.53204982209107,6.195915604423,16.7766335437716));
#1017=CARTESIAN_POINT('Ctrl Pts',(1.70033859644335,6.15783648990277,16.3036202919837));
#1018=CARTESIAN_POINT('Ctrl Pts',(1.70033859644335,6.15783648990277,16.1));
#1019=CARTESIAN_POINT('Origin',(0.,0.,16.85));
#1020=CARTESIAN_POINT('',(-0.800338596443344,6.29936172409897,17.));
#1021=CARTESIAN_POINT('Origin',(-0.800338596443344,6.29936172409897,16.85));
#1022=CARTESIAN_POINT('Origin',(0.,0.,17.));
#1023=CARTESIAN_POINT('Ctrl Pts',(-0.819244232579801,6.44816554435327,16.85));
#1024=CARTESIAN_POINT('Ctrl Pts',(-0.991550986298572,6.42627384302401,16.85));
#1025=CARTESIAN_POINT('Ctrl Pts',(-1.39104855030168,6.35590070882254,16.7144072840951));
#1026=CARTESIAN_POINT('Ctrl Pts',(-1.58696076801287,6.30329719438866,16.3262447882452));
#1027=CARTESIAN_POINT('Ctrl Pts',(-1.58696076801287,6.30329719438866,16.1));
#1028=CARTESIAN_POINT('Ctrl Pts',(-0.819244232579801,6.44816554435327,16.8948798950513));
#1029=CARTESIAN_POINT('Ctrl Pts',(-1.00151530446023,6.42497429611236,16.89405415047));
#1030=CARTESIAN_POINT('Ctrl Pts',(-1.42144674401748,6.34975694707007,16.7471247993576));
#1031=CARTESIAN_POINT('Ctrl Pts',(-1.62364888116341,6.29406034668392,16.338039367169));
#1032=CARTESIAN_POINT('Ctrl Pts',(-1.62364888116341,6.29406034668392,16.1));
#1033=CARTESIAN_POINT('Ctrl Pts',(-0.814497812018617,6.41080708114473,16.972592711186));
#1034=CARTESIAN_POINT('Ctrl Pts',(-1.0130417372451,6.38704134447302,16.9704525212087));
#1035=CARTESIAN_POINT('Ctrl Pts',(-1.46721601604983,6.30954370141492,16.8041898304174));
#1036=CARTESIAN_POINT('Ctrl Pts',(-1.68109429708593,6.25249214311443,16.3584866638243));
#1037=CARTESIAN_POINT('Ctrl Pts',(-1.68109429708593,6.25249214311443,16.1));
#1038=CARTESIAN_POINT('Ctrl Pts',(-0.804581011271754,6.33275322328018,17.));
#1039=CARTESIAN_POINT('Ctrl Pts',(-1.00741962433481,6.31065745571522,16.9990388363062));
#1040=CARTESIAN_POINT('Ctrl Pts',(-1.47505952025563,6.23929666771628,16.8324618954083));
#1041=CARTESIAN_POINT('Ctrl Pts',(-1.70033859644334,6.18621125093547,16.3693570524313));
#1042=CARTESIAN_POINT('Ctrl Pts',(-1.70033859644334,6.18621125093547,16.1));
#1043=CARTESIAN_POINT('Ctrl Pts',(-0.800338596443344,6.29936172409897,17.));
#1044=CARTESIAN_POINT('Ctrl Pts',(-1.00233512926443,6.2779752158773,17.));
#1045=CARTESIAN_POINT('Ctrl Pts',(-1.47066919660346,6.20922607708048,16.8372887409142));
#1046=CARTESIAN_POINT('Ctrl Pts',(-1.70033859644334,6.15783648990277,16.3714937458942));
#1047=CARTESIAN_POINT('Ctrl Pts',(-1.70033859644334,6.15783648990277,16.1));
#1048=CARTESIAN_POINT('',(-1.70033859644334,6.15783648990277,16.1));
#1049=CARTESIAN_POINT('Origin',(-1.55033859644334,6.15783648990277,16.1));
#1050=CARTESIAN_POINT('Ctrl Pts',(-1.70033859644334,6.15783648990277,16.1));
#1051=CARTESIAN_POINT('Ctrl Pts',(-1.70033859644334,6.15783648990277,16.3714937458942));
#1052=CARTESIAN_POINT('Ctrl Pts',(-1.47066919660346,6.20922607708048,16.8372887409142));
#1053=CARTESIAN_POINT('Ctrl Pts',(-1.00233512926443,6.2779752158773,17.));
#1054=CARTESIAN_POINT('Ctrl Pts',(-0.800338596443344,6.29936172409897,17.));
#1055=CARTESIAN_POINT('Origin',(-1.55033859644334,6.15783648990277,0.));
#1056=CARTESIAN_POINT('',(-1.70033859644334,6.15783648990277,13.4));
#1057=CARTESIAN_POINT('Origin',(-1.55033859644334,6.15783648990277,13.4));
#1058=CARTESIAN_POINT('',(-1.70033859644334,6.15783648990277,0.));
#1059=CARTESIAN_POINT('Ctrl Pts',(-1.58696076801287,6.30329719438866,13.4));
#1060=CARTESIAN_POINT('Ctrl Pts',(-1.58696076801287,6.30329719438866,13.1567372746574));
#1061=CARTESIAN_POINT('Ctrl Pts',(-1.80241485394511,6.25528418737838,12.5888099184751));
#1062=CARTESIAN_POINT('Ctrl Pts',(-2.35886622189141,6.06596918835748,12.35));
#1063=CARTESIAN_POINT('Ctrl Pts',(-2.66176391761917,5.93000951490473,12.35));
#1064=CARTESIAN_POINT('Ctrl Pts',(-1.62364888116341,6.29406034668392,13.4));
#1065=CARTESIAN_POINT('Ctrl Pts',(-1.62364888116341,6.29406034668392,13.1657956724711));
#1066=CARTESIAN_POINT('Ctrl Pts',(-1.83119915587129,6.24627391116455,12.6186642590607));
#1067=CARTESIAN_POINT('Ctrl Pts',(-2.36936081305531,6.06110961800502,12.3915111549471));
#1068=CARTESIAN_POINT('Ctrl Pts',(-2.66176391761917,5.93000951490473,12.3948798950513));
#1069=CARTESIAN_POINT('Ctrl Pts',(-1.68109717985287,6.25249406088501,13.4));
#1070=CARTESIAN_POINT('Ctrl Pts',(-1.68109717985287,6.25249406088501,13.181499475762));
#1071=CARTESIAN_POINT('Ctrl Pts',(-1.87407470589833,6.20524694314223,12.6706577180773));
#1072=CARTESIAN_POINT('Ctrl Pts',(-2.3763603107205,6.0233170202153,12.4638666226128));
#1073=CARTESIAN_POINT('Ctrl Pts',(-2.6463443145236,5.89565695926765,12.4725978259058));
#1074=CARTESIAN_POINT('Ctrl Pts',(-1.70033859644334,6.18621125093547,13.4));
#1075=CARTESIAN_POINT('Ctrl Pts',(-1.70033859644334,6.18621125093547,13.1898480827812));
#1076=CARTESIAN_POINT('Ctrl Pts',(-1.88350597886678,6.13920630932362,12.6988085121715));
#1077=CARTESIAN_POINT('Ctrl Pts',(-2.35795231124798,5.95515960558741,12.4960787987529));
#1078=CARTESIAN_POINT('Ctrl Pts',(-2.61412240628266,5.82387139587024,12.5));
#1079=CARTESIAN_POINT('Ctrl Pts',(-1.70033859644334,6.15783648990277,13.4));
#1080=CARTESIAN_POINT('Ctrl Pts',(-1.70033859644334,6.15783648990277,13.1914890925636));
#1081=CARTESIAN_POINT('Ctrl Pts',(-1.88075179807012,6.11093147536196,12.7046942158358));
#1082=CARTESIAN_POINT('Ctrl Pts',(-2.34670338309768,5.92598528401077,12.5));
#1083=CARTESIAN_POINT('Ctrl Pts',(-2.60033859644334,5.79316314148385,12.5));
#1084=CARTESIAN_POINT('',(-2.60033859644334,5.79316314148385,12.5));
#1085=CARTESIAN_POINT('Origin',(-2.60033859644334,5.79316314148385,12.35));
#1086=CARTESIAN_POINT('Ctrl Pts',(-2.60033859644334,5.79316314148385,12.5));
#1087=CARTESIAN_POINT('Ctrl Pts',(-2.34670338309768,5.92598528401077,12.5));
#1088=CARTESIAN_POINT('Ctrl Pts',(-1.88075179807012,6.11093147536196,12.7046942158358));
#1089=CARTESIAN_POINT('Ctrl Pts',(-1.70033859644334,6.15783648990277,13.1914890925636));
#1090=CARTESIAN_POINT('Ctrl Pts',(-1.70033859644334,6.15783648990277,13.4));
#1091=CARTESIAN_POINT('Origin',(0.,0.,12.35));
#1092=CARTESIAN_POINT('Origin',(0.,0.,12.5));
#1093=CARTESIAN_POINT('Origin',(1.70033859644334,-6.27366309722199,17.));
#1094=CARTESIAN_POINT('',(1.70033859644334,-3.136831548611,16.1));
#1095=CARTESIAN_POINT('',(1.70033859644334,-3.136831548611,13.4));
#1096=CARTESIAN_POINT('Origin',(0.800338596443344,-3.136831548611,16.1));
#1097=CARTESIAN_POINT('',(0.800338596443344,-3.136831548611,17.));
#1098=CARTESIAN_POINT('Origin',(0.,0.,17.));
#1099=CARTESIAN_POINT('',(-0.800338596443344,3.136831548611,17.));
#1100=CARTESIAN_POINT('Origin',(-0.800338596443344,3.136831548611,16.1));
#1101=CARTESIAN_POINT('',(-1.70033859644334,3.136831548611,16.1));
#1102=CARTESIAN_POINT('Origin',(-4.10016929822167,0.,12.5));
#1103=CARTESIAN_POINT('',(-2.60033859644334,3.136831548611,12.5));
#1104=CARTESIAN_POINT('Origin',(-1.70033859644334,6.27366309722199,17.));
#1105=CARTESIAN_POINT('',(-1.70033859644334,3.136831548611,13.4));
#1106=CARTESIAN_POINT('Origin',(-2.60033859644334,3.136831548611,13.4));
#1107=CARTESIAN_POINT('Origin',(2.60033859644334,-3.136831548611,13.4));
#1108=CARTESIAN_POINT('',(2.60033859644334,-3.136831548611,12.5));
#1109=CARTESIAN_POINT('Origin',(4.10016929822167,0.,12.5));
#1110=UNCERTAINTY_MEASURE_WITH_UNIT(LENGTH_MEASURE(0.01),#1114,
'DISTANCE_ACCURACY_VALUE',
'Maximum model space distance between geometric entities at asserted c
onnectivities');
#1111=UNCERTAINTY_MEASURE_WITH_UNIT(LENGTH_MEASURE(0.01),#1114,
'DISTANCE_ACCURACY_VALUE',
'Maximum model space distance between geometric entities at asserted c
onnectivities');
#1112=(
GEOMETRIC_REPRESENTATION_CONTEXT(3)
GLOBAL_UNCERTAINTY_ASSIGNED_CONTEXT((#1110))
GLOBAL_UNIT_ASSIGNED_CONTEXT((#1114,#1116,#1117))
REPRESENTATION_CONTEXT('','3D')
);
#1113=(
GEOMETRIC_REPRESENTATION_CONTEXT(3)
GLOBAL_UNCERTAINTY_ASSIGNED_CONTEXT((#1111))
GLOBAL_UNIT_ASSIGNED_CONTEXT((#1114,#1116,#1117))
REPRESENTATION_CONTEXT('','3D')
);
#1114=(
LENGTH_UNIT()
NAMED_UNIT(*)
SI_UNIT(.MILLI.,.METRE.)
);
#1115=(
LENGTH_UNIT()
NAMED_UNIT(*)
SI_UNIT($,.METRE.)
);
#1116=(
NAMED_UNIT(*)
PLANE_ANGLE_UNIT()
SI_UNIT($,.RADIAN.)
);
#1117=(
NAMED_UNIT(*)
SI_UNIT($,.STERADIAN.)
SOLID_ANGLE_UNIT()
);
#1118=SHAPE_DEFINITION_REPRESENTATION(#1119,#1120);
#1119=PRODUCT_DEFINITION_SHAPE('',$,#1122);
#1120=SHAPE_REPRESENTATION('',(#509),#1112);
#1121=PRODUCT_DEFINITION_CONTEXT('part definition',#1126,'design');
#1122=PRODUCT_DEFINITION('2026-08-20-23-58-15-057','ec11_encoder_knowb',
#1123,#1121);
#1123=PRODUCT_DEFINITION_FORMATION('',$,#1128);
#1124=PRODUCT_RELATED_PRODUCT_CATEGORY('ec11_encoder_knowb',
'ec11_encoder_knowb',(#1128));
#1125=APPLICATION_PROTOCOL_DEFINITION('international standard',
'automotive_design',2009,#1126);
#1126=APPLICATION_CONTEXT(
'Core Data for Automotive Mechanical Design Process');
#1127=PRODUCT_CONTEXT('part definition',#1126,'mechanical');
#1128=PRODUCT('2026-08-20-23-58-15-057','ec11_encoder_knowb',$,(#1127));
#1129=PRESENTATION_STYLE_ASSIGNMENT((#1131));
#1130=PRESENTATION_STYLE_ASSIGNMENT((#1132));
#1131=SURFACE_STYLE_USAGE(.BOTH.,#1133);
#1132=SURFACE_STYLE_USAGE(.BOTH.,#1134);
#1133=SURFACE_SIDE_STYLE('',(#1135));
#1134=SURFACE_SIDE_STYLE('',(#1136));
#1135=SURFACE_STYLE_FILL_AREA(#1137);
#1136=SURFACE_STYLE_FILL_AREA(#1138);
#1137=FILL_AREA_STYLE('Steel - Satin',(#1139));
#1138=FILL_AREA_STYLE('ABS (White)',(#1140));
#1139=FILL_AREA_STYLE_COLOUR('Steel - Satin',#1141);
#1140=FILL_AREA_STYLE_COLOUR('ABS (White)',#1142);
#1141=COLOUR_RGB('Steel - Satin',0.627450980392157,0.627450980392157,0.627450980392157);
#1142=COLOUR_RGB('ABS (White)',0.,0.,0.);
ENDSEC;
END-ISO-10303-21;
