ISO-10303-21;
HEADER;
/* Generated by software containing ST-Developer
 * from STEP Tools, Inc. (www.steptools.com) 
 */

FILE_DESCRIPTION(
/* description */ (''),
/* implementation_level */ '2;1');

FILE_NAME(
/* name */ 'frostpadkeycap.step',
/* time_stamp */ '2026-09-14T11:45:06+06:00',
/* author */ (''),
/* organization */ (''),
/* preprocessor_version */ 'ST-DEVELOPER v20.1',
/* originating_system */ 'Autodesk Translation Framework v15.8.0.0',
/* authorisation */ '');

FILE_SCHEMA (('AUTOMOTIVE_DESIGN { 1 0 10303 214 3 1 1 }'));
ENDSEC;

DATA;
#10=MECHANICAL_DESIGN_GEOMETRIC_PRESENTATION_REPRESENTATION('',(#13),#2070);
#11=SHAPE_REPRESENTATION_RELATIONSHIP('SRR','None',#2077,#12);
#12=ADVANCED_BREP_SHAPE_REPRESENTATION('',(#14),#2069);
#13=STYLED_ITEM('',(#2087),#14);
#14=MANIFOLD_SOLID_BREP('Body1',#1183);
#15=TOROIDAL_SURFACE('',#1227,8.05,1.8);
#16=TOROIDAL_SURFACE('',#1254,1.66,0.14);
#17=TOROIDAL_SURFACE('',#1261,1.66,0.14);
#18=TOROIDAL_SURFACE('',#1267,1.66,0.14);
#19=TOROIDAL_SURFACE('',#1273,1.66,0.14);
#20=TOROIDAL_SURFACE('',#1285,1.5,0.3);
#21=TOROIDAL_SURFACE('',#1291,1.5,0.3);
#22=TOROIDAL_SURFACE('',#1297,1.5,0.3);
#23=TOROIDAL_SURFACE('',#1305,1.5,0.3);
#24=TOROIDAL_SURFACE('',#1313,8.05,0.3);
#25=TOROIDAL_SURFACE('',#1320,7.45,0.3);
#26=B_SPLINE_CURVE_WITH_KNOTS('',3,(#1818,#1819,#1820,#1821,#1822,#1823,
#1824,#1825,#1826,#1827,#1828),.UNSPECIFIED.,.F.,.F.,(4,2,3,2,4),(2.41030334496632,
2.48071636678609,2.64529649308674,2.80987661938738,2.88028964120715),
 .UNSPECIFIED.);
#27=B_SPLINE_CURVE_WITH_KNOTS('',3,(#1844,#1845,#1846,#1847,#1848,#1849),
 .UNSPECIFIED.,.F.,.F.,(4,2,4),(2.42145401841479,2.49186704023457,2.65644716653521),
 .UNSPECIFIED.);
#28=B_SPLINE_CURVE_WITH_KNOTS('',3,(#1853,#1854,#1855,#1856,#1857,#1858,
#1859,#1860,#1861,#1862,#1863),.UNSPECIFIED.,.F.,.F.,(4,2,3,2,4),(2.41030334496632,
2.4807163667861,2.64529649308674,2.80987661938738,2.88028964120715),
 .UNSPECIFIED.);
#29=B_SPLINE_CURVE_WITH_KNOTS('',3,(#1867,#1868,#1869,#1870,#1871,#1872,
#1873,#1874,#1875,#1876,#1877),.UNSPECIFIED.,.F.,.F.,(4,2,3,2,4),(2.41030334496632,
2.48071636678609,2.64529649308674,2.80987661938738,2.88028964120715),
 .UNSPECIFIED.);
#30=B_SPLINE_CURVE_WITH_KNOTS('',3,(#1881,#1882,#1883,#1884,#1885,#1886),
 .UNSPECIFIED.,.F.,.F.,(4,2,4),(2.65644716653521,2.82102729283585,2.89144031465562),
 .UNSPECIFIED.);
#31=CYLINDRICAL_SURFACE('',#1224,2.75);
#32=CYLINDRICAL_SURFACE('',#1243,0.3);
#33=CYLINDRICAL_SURFACE('',#1246,0.3);
#34=CYLINDRICAL_SURFACE('',#1248,0.3);
#35=CYLINDRICAL_SURFACE('',#1250,0.3);
#36=CYLINDRICAL_SURFACE('',#1259,0.14);
#37=CYLINDRICAL_SURFACE('',#1265,0.14);
#38=CYLINDRICAL_SURFACE('',#1271,0.14);
#39=CYLINDRICAL_SURFACE('',#1277,0.14);
#40=CYLINDRICAL_SURFACE('',#1279,1.8);
#41=CYLINDRICAL_SURFACE('',#1282,1.8);
#42=CYLINDRICAL_SURFACE('',#1289,0.3);
#43=CYLINDRICAL_SURFACE('',#1294,0.3);
#44=CYLINDRICAL_SURFACE('',#1301,1.8);
#45=CYLINDRICAL_SURFACE('',#1302,0.3);
#46=CYLINDRICAL_SURFACE('',#1309,1.8);
#47=CYLINDRICAL_SURFACE('',#1310,0.3);
#48=CYLINDRICAL_SURFACE('',#1317,7.75);
#49=FACE_BOUND('',#199,.T.);
#50=FACE_BOUND('',#222,.T.);
#51=FACE_BOUND('',#236,.T.);
#52=FACE_BOUND('',#250,.T.);
#53=CIRCLE('',#1216,2.75);
#54=CIRCLE('',#1225,2.75);
#55=CIRCLE('',#1228,6.25);
#56=CIRCLE('',#1229,1.8);
#57=CIRCLE('',#1230,8.05);
#58=CIRCLE('',#1231,8.05);
#59=CIRCLE('',#1232,8.05);
#60=CIRCLE('',#1233,8.05);
#61=CIRCLE('',#1238,0.3);
#62=CIRCLE('',#1240,0.3);
#63=CIRCLE('',#1242,0.3);
#64=CIRCLE('',#1244,0.3);
#65=CIRCLE('',#1245,0.3);
#66=CIRCLE('',#1247,0.3);
#67=CIRCLE('',#1249,0.3);
#68=CIRCLE('',#1251,0.3);
#69=CIRCLE('',#1255,0.140000000000002);
#70=CIRCLE('',#1256,1.66);
#71=CIRCLE('',#1257,0.14);
#72=CIRCLE('',#1258,1.8);
#73=CIRCLE('',#1260,0.14);
#74=CIRCLE('',#1262,0.14);
#75=CIRCLE('',#1263,1.8);
#76=CIRCLE('',#1264,1.66);
#77=CIRCLE('',#1266,0.14);
#78=CIRCLE('',#1268,0.14);
#79=CIRCLE('',#1269,1.8);
#80=CIRCLE('',#1270,1.66);
#81=CIRCLE('',#1272,0.14);
#82=CIRCLE('',#1274,0.14);
#83=CIRCLE('',#1275,1.8);
#84=CIRCLE('',#1276,1.66);
#85=CIRCLE('',#1280,1.8);
#86=CIRCLE('',#1283,1.8);
#87=CIRCLE('',#1286,0.3);
#88=CIRCLE('',#1287,1.5);
#89=CIRCLE('',#1288,0.3);
#90=CIRCLE('',#1290,0.3);
#91=CIRCLE('',#1292,0.3);
#92=CIRCLE('',#1293,1.5);
#93=CIRCLE('',#1295,0.3);
#94=CIRCLE('',#1298,0.3);
#95=CIRCLE('',#1299,1.5);
#96=CIRCLE('',#1300,1.8);
#97=CIRCLE('',#1303,0.3);
#98=CIRCLE('',#1306,0.3);
#99=CIRCLE('',#1307,1.5);
#100=CIRCLE('',#1308,1.8);
#101=CIRCLE('',#1312,8.05);
#102=CIRCLE('',#1314,0.3);
#103=CIRCLE('',#1315,7.75);
#104=CIRCLE('',#1316,7.75);
#105=CIRCLE('',#1318,7.75);
#106=CIRCLE('',#1319,7.75);
#107=CIRCLE('',#1321,7.45);
#108=CIRCLE('',#1322,0.3);
#109=FACE_OUTER_BOUND('',#180,.T.);
#110=FACE_OUTER_BOUND('',#181,.T.);
#111=FACE_OUTER_BOUND('',#182,.T.);
#112=FACE_OUTER_BOUND('',#183,.T.);
#113=FACE_OUTER_BOUND('',#184,.T.);
#114=FACE_OUTER_BOUND('',#185,.T.);
#115=FACE_OUTER_BOUND('',#186,.T.);
#116=FACE_OUTER_BOUND('',#187,.T.);
#117=FACE_OUTER_BOUND('',#188,.T.);
#118=FACE_OUTER_BOUND('',#189,.T.);
#119=FACE_OUTER_BOUND('',#190,.T.);
#120=FACE_OUTER_BOUND('',#191,.T.);
#121=FACE_OUTER_BOUND('',#192,.T.);
#122=FACE_OUTER_BOUND('',#193,.T.);
#123=FACE_OUTER_BOUND('',#194,.T.);
#124=FACE_OUTER_BOUND('',#195,.T.);
#125=FACE_OUTER_BOUND('',#196,.T.);
#126=FACE_OUTER_BOUND('',#197,.T.);
#127=FACE_OUTER_BOUND('',#198,.T.);
#128=FACE_OUTER_BOUND('',#200,.T.);
#129=FACE_OUTER_BOUND('',#201,.T.);
#130=FACE_OUTER_BOUND('',#202,.T.);
#131=FACE_OUTER_BOUND('',#203,.T.);
#132=FACE_OUTER_BOUND('',#204,.T.);
#133=FACE_OUTER_BOUND('',#205,.T.);
#134=FACE_OUTER_BOUND('',#206,.T.);
#135=FACE_OUTER_BOUND('',#207,.T.);
#136=FACE_OUTER_BOUND('',#208,.T.);
#137=FACE_OUTER_BOUND('',#209,.T.);
#138=FACE_OUTER_BOUND('',#210,.T.);
#139=FACE_OUTER_BOUND('',#211,.T.);
#140=FACE_OUTER_BOUND('',#212,.T.);
#141=FACE_OUTER_BOUND('',#213,.T.);
#142=FACE_OUTER_BOUND('',#214,.T.);
#143=FACE_OUTER_BOUND('',#215,.T.);
#144=FACE_OUTER_BOUND('',#216,.T.);
#145=FACE_OUTER_BOUND('',#217,.T.);
#146=FACE_OUTER_BOUND('',#218,.T.);
#147=FACE_OUTER_BOUND('',#219,.T.);
#148=FACE_OUTER_BOUND('',#220,.T.);
#149=FACE_OUTER_BOUND('',#221,.T.);
#150=FACE_OUTER_BOUND('',#223,.T.);
#151=FACE_OUTER_BOUND('',#224,.T.);
#152=FACE_OUTER_BOUND('',#225,.T.);
#153=FACE_OUTER_BOUND('',#226,.T.);
#154=FACE_OUTER_BOUND('',#227,.T.);
#155=FACE_OUTER_BOUND('',#228,.T.);
#156=FACE_OUTER_BOUND('',#229,.T.);
#157=FACE_OUTER_BOUND('',#230,.T.);
#158=FACE_OUTER_BOUND('',#231,.T.);
#159=FACE_OUTER_BOUND('',#232,.T.);
#160=FACE_OUTER_BOUND('',#233,.T.);
#161=FACE_OUTER_BOUND('',#234,.T.);
#162=FACE_OUTER_BOUND('',#235,.T.);
#163=FACE_OUTER_BOUND('',#237,.T.);
#164=FACE_OUTER_BOUND('',#238,.T.);
#165=FACE_OUTER_BOUND('',#239,.T.);
#166=FACE_OUTER_BOUND('',#240,.T.);
#167=FACE_OUTER_BOUND('',#241,.T.);
#168=FACE_OUTER_BOUND('',#242,.T.);
#169=FACE_OUTER_BOUND('',#243,.T.);
#170=FACE_OUTER_BOUND('',#244,.T.);
#171=FACE_OUTER_BOUND('',#245,.T.);
#172=FACE_OUTER_BOUND('',#246,.T.);
#173=FACE_OUTER_BOUND('',#247,.T.);
#174=FACE_OUTER_BOUND('',#248,.T.);
#175=FACE_OUTER_BOUND('',#249,.T.);
#176=FACE_OUTER_BOUND('',#251,.T.);
#177=FACE_OUTER_BOUND('',#252,.T.);
#178=FACE_OUTER_BOUND('',#253,.T.);
#179=FACE_OUTER_BOUND('',#254,.T.);
#180=EDGE_LOOP('',(#736,#737,#738,#739));
#181=EDGE_LOOP('',(#740,#741,#742,#743));
#182=EDGE_LOOP('',(#744,#745,#746,#747));
#183=EDGE_LOOP('',(#748,#749,#750,#751));
#184=EDGE_LOOP('',(#752,#753,#754,#755));
#185=EDGE_LOOP('',(#756,#757,#758,#759));
#186=EDGE_LOOP('',(#760,#761,#762,#763));
#187=EDGE_LOOP('',(#764,#765,#766,#767));
#188=EDGE_LOOP('',(#768,#769,#770,#771));
#189=EDGE_LOOP('',(#772,#773,#774,#775));
#190=EDGE_LOOP('',(#776,#777,#778,#779));
#191=EDGE_LOOP('',(#780,#781,#782,#783));
#192=EDGE_LOOP('',(#784,#785,#786,#787));
#193=EDGE_LOOP('',(#788,#789,#790,#791));
#194=EDGE_LOOP('',(#792,#793,#794,#795));
#195=EDGE_LOOP('',(#796,#797,#798,#799));
#196=EDGE_LOOP('',(#800,#801,#802,#803));
#197=EDGE_LOOP('',(#804,#805,#806,#807));
#198=EDGE_LOOP('',(#808));
#199=EDGE_LOOP('',(#809,#810,#811,#812,#813,#814,#815,#816,#817,#818,#819,
#820));
#200=EDGE_LOOP('',(#821,#822,#823,#824));
#201=EDGE_LOOP('',(#825,#826,#827,#828));
#202=EDGE_LOOP('',(#829,#830,#831,#832));
#203=EDGE_LOOP('',(#833,#834,#835,#836));
#204=EDGE_LOOP('',(#837,#838,#839,#840));
#205=EDGE_LOOP('',(#841,#842,#843,#844));
#206=EDGE_LOOP('',(#845,#846,#847,#848,#849,#850,#851,#852,#853,#854,#855,
#856));
#207=EDGE_LOOP('',(#857,#858,#859,#860));
#208=EDGE_LOOP('',(#861,#862,#863,#864,#865,#866));
#209=EDGE_LOOP('',(#867,#868,#869,#870,#871,#872,#873,#874,#875,#876,#877,
#878));
#210=EDGE_LOOP('',(#879,#880,#881,#882,#883,#884));
#211=EDGE_LOOP('',(#885,#886,#887,#888,#889,#890,#891));
#212=EDGE_LOOP('',(#892,#893,#894,#895,#896,#897));
#213=EDGE_LOOP('',(#898,#899,#900,#901));
#214=EDGE_LOOP('',(#902,#903,#904,#905));
#215=EDGE_LOOP('',(#906,#907,#908,#909));
#216=EDGE_LOOP('',(#910,#911,#912,#913));
#217=EDGE_LOOP('',(#914,#915,#916,#917));
#218=EDGE_LOOP('',(#918,#919,#920,#921));
#219=EDGE_LOOP('',(#922,#923,#924,#925));
#220=EDGE_LOOP('',(#926,#927,#928,#929));
#221=EDGE_LOOP('',(#930));
#222=EDGE_LOOP('',(#931));
#223=EDGE_LOOP('',(#932,#933,#934,#935));
#224=EDGE_LOOP('',(#936,#937,#938,#939));
#225=EDGE_LOOP('',(#940,#941,#942,#943));
#226=EDGE_LOOP('',(#944,#945,#946,#947));
#227=EDGE_LOOP('',(#948,#949,#950,#951));
#228=EDGE_LOOP('',(#952,#953,#954,#955));
#229=EDGE_LOOP('',(#956,#957,#958,#959));
#230=EDGE_LOOP('',(#960,#961,#962,#963));
#231=EDGE_LOOP('',(#964,#965,#966,#967));
#232=EDGE_LOOP('',(#968,#969,#970,#971));
#233=EDGE_LOOP('',(#972,#973,#974,#975));
#234=EDGE_LOOP('',(#976,#977,#978,#979));
#235=EDGE_LOOP('',(#980,#981,#982,#983,#984,#985,#986,#987));
#236=EDGE_LOOP('',(#988,#989,#990,#991,#992,#993,#994,#995));
#237=EDGE_LOOP('',(#996,#997,#998,#999));
#238=EDGE_LOOP('',(#1000,#1001,#1002,#1003));
#239=EDGE_LOOP('',(#1004,#1005,#1006,#1007));
#240=EDGE_LOOP('',(#1008,#1009,#1010,#1011));
#241=EDGE_LOOP('',(#1012,#1013,#1014,#1015));
#242=EDGE_LOOP('',(#1016,#1017,#1018,#1019));
#243=EDGE_LOOP('',(#1020,#1021,#1022,#1023));
#244=EDGE_LOOP('',(#1024,#1025,#1026,#1027));
#245=EDGE_LOOP('',(#1028,#1029,#1030,#1031));
#246=EDGE_LOOP('',(#1032,#1033,#1034,#1035));
#247=EDGE_LOOP('',(#1036,#1037,#1038,#1039));
#248=EDGE_LOOP('',(#1040,#1041,#1042,#1043));
#249=EDGE_LOOP('',(#1044,#1045,#1046,#1047,#1048,#1049,#1050,#1051));
#250=EDGE_LOOP('',(#1052));
#251=EDGE_LOOP('',(#1053,#1054,#1055,#1056,#1057));
#252=EDGE_LOOP('',(#1058,#1059,#1060,#1061,#1062,#1063));
#253=EDGE_LOOP('',(#1064,#1065,#1066,#1067,#1068));
#254=EDGE_LOOP('',(#1069));
#255=LINE('',#1690,#361);
#256=LINE('',#1692,#362);
#257=LINE('',#1694,#363);
#258=LINE('',#1695,#364);
#259=LINE('',#1698,#365);
#260=LINE('',#1700,#366);
#261=LINE('',#1701,#367);
#262=LINE('',#1704,#368);
#263=LINE('',#1706,#369);
#264=LINE('',#1707,#370);
#265=LINE('',#1710,#371);
#266=LINE('',#1712,#372);
#267=LINE('',#1713,#373);
#268=LINE('',#1716,#374);
#269=LINE('',#1718,#375);
#270=LINE('',#1719,#376);
#271=LINE('',#1722,#377);
#272=LINE('',#1724,#378);
#273=LINE('',#1725,#379);
#274=LINE('',#1728,#380);
#275=LINE('',#1730,#381);
#276=LINE('',#1731,#382);
#277=LINE('',#1734,#383);
#278=LINE('',#1736,#384);
#279=LINE('',#1737,#385);
#280=LINE('',#1740,#386);
#281=LINE('',#1742,#387);
#282=LINE('',#1743,#388);
#283=LINE('',#1746,#389);
#284=LINE('',#1748,#390);
#285=LINE('',#1749,#391);
#286=LINE('',#1752,#392);
#287=LINE('',#1754,#393);
#288=LINE('',#1755,#394);
#289=LINE('',#1757,#395);
#290=LINE('',#1758,#396);
#291=LINE('',#1761,#397);
#292=LINE('',#1763,#398);
#293=LINE('',#1764,#399);
#294=LINE('',#1767,#400);
#295=LINE('',#1768,#401);
#296=LINE('',#1771,#402);
#297=LINE('',#1772,#403);
#298=LINE('',#1775,#404);
#299=LINE('',#1776,#405);
#300=LINE('',#1779,#406);
#301=LINE('',#1780,#407);
#302=LINE('',#1783,#408);
#303=LINE('',#1784,#409);
#304=LINE('',#1790,#410);
#305=LINE('',#1791,#411);
#306=LINE('',#1794,#412);
#307=LINE('',#1795,#413);
#308=LINE('',#1798,#414);
#309=LINE('',#1799,#415);
#310=LINE('',#1802,#416);
#311=LINE('',#1803,#417);
#312=LINE('',#1806,#418);
#313=LINE('',#1807,#419);
#314=LINE('',#1809,#420);
#315=LINE('',#1813,#421);
#316=LINE('',#1830,#422);
#317=LINE('',#1832,#423);
#318=LINE('',#1834,#424);
#319=LINE('',#1836,#425);
#320=LINE('',#1837,#426);
#321=LINE('',#1889,#427);
#322=LINE('',#1891,#428);
#323=LINE('',#1893,#429);
#324=LINE('',#1895,#430);
#325=LINE('',#1896,#431);
#326=LINE('',#1899,#432);
#327=LINE('',#1901,#433);
#328=LINE('',#1903,#434);
#329=LINE('',#1905,#435);
#330=LINE('',#1906,#436);
#331=LINE('',#1909,#437);
#332=LINE('',#1911,#438);
#333=LINE('',#1913,#439);
#334=LINE('',#1915,#440);
#335=LINE('',#1916,#441);
#336=LINE('',#1947,#442);
#337=LINE('',#1948,#443);
#338=LINE('',#1959,#444);
#339=LINE('',#1960,#445);
#340=LINE('',#1971,#446);
#341=LINE('',#1972,#447);
#342=LINE('',#1980,#448);
#343=LINE('',#1981,#449);
#344=LINE('',#1984,#450);
#345=LINE('',#1986,#451);
#346=LINE('',#1987,#452);
#347=LINE('',#1990,#453);
#348=LINE('',#1994,#454);
#349=LINE('',#1995,#455);
#350=LINE('',#1998,#456);
#351=LINE('',#2010,#457);
#352=LINE('',#2017,#458);
#353=LINE('',#2020,#459);
#354=LINE('',#2022,#460);
#355=LINE('',#2030,#461);
#356=LINE('',#2033,#462);
#357=LINE('',#2036,#463);
#358=LINE('',#2038,#464);
#359=LINE('',#2046,#465);
#360=LINE('',#2060,#466);
#361=VECTOR('',#1328,10.);
#362=VECTOR('',#1329,10.);
#363=VECTOR('',#1330,10.);
#364=VECTOR('',#1331,10.);
#365=VECTOR('',#1334,10.);
#366=VECTOR('',#1335,10.);
#367=VECTOR('',#1336,10.);
#368=VECTOR('',#1339,10.);
#369=VECTOR('',#1340,10.);
#370=VECTOR('',#1341,10.);
#371=VECTOR('',#1344,10.);
#372=VECTOR('',#1345,10.);
#373=VECTOR('',#1346,10.);
#374=VECTOR('',#1349,10.);
#375=VECTOR('',#1350,10.);
#376=VECTOR('',#1351,10.);
#377=VECTOR('',#1354,10.);
#378=VECTOR('',#1355,10.);
#379=VECTOR('',#1356,10.);
#380=VECTOR('',#1359,10.);
#381=VECTOR('',#1360,10.);
#382=VECTOR('',#1361,10.);
#383=VECTOR('',#1364,10.);
#384=VECTOR('',#1365,10.);
#385=VECTOR('',#1366,10.);
#386=VECTOR('',#1369,10.);
#387=VECTOR('',#1370,10.);
#388=VECTOR('',#1371,10.);
#389=VECTOR('',#1374,10.);
#390=VECTOR('',#1375,10.);
#391=VECTOR('',#1376,10.);
#392=VECTOR('',#1379,10.);
#393=VECTOR('',#1380,10.);
#394=VECTOR('',#1381,10.);
#395=VECTOR('',#1384,10.);
#396=VECTOR('',#1385,10.);
#397=VECTOR('',#1388,10.);
#398=VECTOR('',#1389,10.);
#399=VECTOR('',#1390,10.);
#400=VECTOR('',#1393,10.);
#401=VECTOR('',#1394,10.);
#402=VECTOR('',#1397,10.);
#403=VECTOR('',#1398,10.);
#404=VECTOR('',#1401,10.);
#405=VECTOR('',#1402,10.);
#406=VECTOR('',#1405,10.);
#407=VECTOR('',#1406,10.);
#408=VECTOR('',#1409,10.);
#409=VECTOR('',#1410,10.);
#410=VECTOR('',#1417,10.);
#411=VECTOR('',#1418,10.);
#412=VECTOR('',#1421,10.);
#413=VECTOR('',#1422,10.);
#414=VECTOR('',#1425,10.);
#415=VECTOR('',#1426,10.);
#416=VECTOR('',#1429,10.);
#417=VECTOR('',#1430,10.);
#418=VECTOR('',#1433,10.);
#419=VECTOR('',#1434,10.);
#420=VECTOR('',#1437,10.);
#421=VECTOR('',#1442,2.75);
#422=VECTOR('',#1447,10.);
#423=VECTOR('',#1448,10.);
#424=VECTOR('',#1449,10.);
#425=VECTOR('',#1450,10.);
#426=VECTOR('',#1451,10.);
#427=VECTOR('',#1468,10.);
#428=VECTOR('',#1469,10.);
#429=VECTOR('',#1470,10.);
#430=VECTOR('',#1471,10.);
#431=VECTOR('',#1472,10.);
#432=VECTOR('',#1475,10.);
#433=VECTOR('',#1476,10.);
#434=VECTOR('',#1477,10.);
#435=VECTOR('',#1478,10.);
#436=VECTOR('',#1479,10.);
#437=VECTOR('',#1482,10.);
#438=VECTOR('',#1483,10.);
#439=VECTOR('',#1484,10.);
#440=VECTOR('',#1485,10.);
#441=VECTOR('',#1486,10.);
#442=VECTOR('',#1535,10.);
#443=VECTOR('',#1536,10.);
#444=VECTOR('',#1549,10.);
#445=VECTOR('',#1550,10.);
#446=VECTOR('',#1563,10.);
#447=VECTOR('',#1564,10.);
#448=VECTOR('',#1575,10.);
#449=VECTOR('',#1576,10.);
#450=VECTOR('',#1579,10.);
#451=VECTOR('',#1580,10.);
#452=VECTOR('',#1581,10.);
#453=VECTOR('',#1584,10.);
#454=VECTOR('',#1589,10.);
#455=VECTOR('',#1590,10.);
#456=VECTOR('',#1593,10.);
#457=VECTOR('',#1610,10.);
#458=VECTOR('',#1619,10.);
#459=VECTOR('',#1622,10.);
#460=VECTOR('',#1625,10.);
#461=VECTOR('',#1636,10.);
#462=VECTOR('',#1639,10.);
#463=VECTOR('',#1642,10.);
#464=VECTOR('',#1645,10.);
#465=VECTOR('',#1658,10.);
#466=VECTOR('',#1675,7.75);
#467=VERTEX_POINT('',#1688);
#468=VERTEX_POINT('',#1689);
#469=VERTEX_POINT('',#1691);
#470=VERTEX_POINT('',#1693);
#471=VERTEX_POINT('',#1697);
#472=VERTEX_POINT('',#1699);
#473=VERTEX_POINT('',#1703);
#474=VERTEX_POINT('',#1705);
#475=VERTEX_POINT('',#1709);
#476=VERTEX_POINT('',#1711);
#477=VERTEX_POINT('',#1715);
#478=VERTEX_POINT('',#1717);
#479=VERTEX_POINT('',#1721);
#480=VERTEX_POINT('',#1723);
#481=VERTEX_POINT('',#1727);
#482=VERTEX_POINT('',#1729);
#483=VERTEX_POINT('',#1733);
#484=VERTEX_POINT('',#1735);
#485=VERTEX_POINT('',#1739);
#486=VERTEX_POINT('',#1741);
#487=VERTEX_POINT('',#1745);
#488=VERTEX_POINT('',#1747);
#489=VERTEX_POINT('',#1751);
#490=VERTEX_POINT('',#1753);
#491=VERTEX_POINT('',#1760);
#492=VERTEX_POINT('',#1762);
#493=VERTEX_POINT('',#1766);
#494=VERTEX_POINT('',#1770);
#495=VERTEX_POINT('',#1774);
#496=VERTEX_POINT('',#1778);
#497=VERTEX_POINT('',#1782);
#498=VERTEX_POINT('',#1786);
#499=VERTEX_POINT('',#1789);
#500=VERTEX_POINT('',#1793);
#501=VERTEX_POINT('',#1797);
#502=VERTEX_POINT('',#1801);
#503=VERTEX_POINT('',#1805);
#504=VERTEX_POINT('',#1812);
#505=VERTEX_POINT('',#1816);
#506=VERTEX_POINT('',#1817);
#507=VERTEX_POINT('',#1829);
#508=VERTEX_POINT('',#1831);
#509=VERTEX_POINT('',#1833);
#510=VERTEX_POINT('',#1835);
#511=VERTEX_POINT('',#1839);
#512=VERTEX_POINT('',#1841);
#513=VERTEX_POINT('',#1843);
#514=VERTEX_POINT('',#1850);
#515=VERTEX_POINT('',#1852);
#516=VERTEX_POINT('',#1864);
#517=VERTEX_POINT('',#1866);
#518=VERTEX_POINT('',#1879);
#519=VERTEX_POINT('',#1888);
#520=VERTEX_POINT('',#1890);
#521=VERTEX_POINT('',#1892);
#522=VERTEX_POINT('',#1894);
#523=VERTEX_POINT('',#1898);
#524=VERTEX_POINT('',#1900);
#525=VERTEX_POINT('',#1902);
#526=VERTEX_POINT('',#1904);
#527=VERTEX_POINT('',#1908);
#528=VERTEX_POINT('',#1910);
#529=VERTEX_POINT('',#1912);
#530=VERTEX_POINT('',#1914);
#531=VERTEX_POINT('',#1935);
#532=VERTEX_POINT('',#1936);
#533=VERTEX_POINT('',#1938);
#534=VERTEX_POINT('',#1940);
#535=VERTEX_POINT('',#1944);
#536=VERTEX_POINT('',#1945);
#537=VERTEX_POINT('',#1950);
#538=VERTEX_POINT('',#1951);
#539=VERTEX_POINT('',#1956);
#540=VERTEX_POINT('',#1957);
#541=VERTEX_POINT('',#1962);
#542=VERTEX_POINT('',#1963);
#543=VERTEX_POINT('',#1968);
#544=VERTEX_POINT('',#1969);
#545=VERTEX_POINT('',#1974);
#546=VERTEX_POINT('',#1975);
#547=VERTEX_POINT('',#1983);
#548=VERTEX_POINT('',#1985);
#549=VERTEX_POINT('',#1989);
#550=VERTEX_POINT('',#1993);
#551=VERTEX_POINT('',#1997);
#552=VERTEX_POINT('',#2002);
#553=VERTEX_POINT('',#2004);
#554=VERTEX_POINT('',#2008);
#555=VERTEX_POINT('',#2012);
#556=VERTEX_POINT('',#2016);
#557=VERTEX_POINT('',#2018);
#558=VERTEX_POINT('',#2024);
#559=VERTEX_POINT('',#2025);
#560=VERTEX_POINT('',#2032);
#561=VERTEX_POINT('',#2034);
#562=VERTEX_POINT('',#2040);
#563=VERTEX_POINT('',#2048);
#564=VERTEX_POINT('',#2051);
#565=VERTEX_POINT('',#2053);
#566=VERTEX_POINT('',#2057);
#567=VERTEX_POINT('',#2058);
#568=VERTEX_POINT('',#2063);
#569=EDGE_CURVE('',#467,#468,#255,.T.);
#570=EDGE_CURVE('',#468,#469,#256,.T.);
#571=EDGE_CURVE('',#469,#470,#257,.T.);
#572=EDGE_CURVE('',#470,#467,#258,.T.);
#573=EDGE_CURVE('',#468,#471,#259,.T.);
#574=EDGE_CURVE('',#471,#472,#260,.T.);
#575=EDGE_CURVE('',#472,#469,#261,.T.);
#576=EDGE_CURVE('',#471,#473,#262,.T.);
#577=EDGE_CURVE('',#473,#474,#263,.T.);
#578=EDGE_CURVE('',#474,#472,#264,.T.);
#579=EDGE_CURVE('',#473,#475,#265,.T.);
#580=EDGE_CURVE('',#475,#476,#266,.T.);
#581=EDGE_CURVE('',#476,#474,#267,.T.);
#582=EDGE_CURVE('',#475,#477,#268,.T.);
#583=EDGE_CURVE('',#477,#478,#269,.T.);
#584=EDGE_CURVE('',#478,#476,#270,.T.);
#585=EDGE_CURVE('',#477,#479,#271,.T.);
#586=EDGE_CURVE('',#479,#480,#272,.T.);
#587=EDGE_CURVE('',#480,#478,#273,.T.);
#588=EDGE_CURVE('',#481,#480,#274,.T.);
#589=EDGE_CURVE('',#479,#482,#275,.T.);
#590=EDGE_CURVE('',#482,#481,#276,.T.);
#591=EDGE_CURVE('',#483,#481,#277,.T.);
#592=EDGE_CURVE('',#482,#484,#278,.T.);
#593=EDGE_CURVE('',#484,#483,#279,.T.);
#594=EDGE_CURVE('',#485,#483,#280,.T.);
#595=EDGE_CURVE('',#484,#486,#281,.T.);
#596=EDGE_CURVE('',#486,#485,#282,.T.);
#597=EDGE_CURVE('',#487,#485,#283,.T.);
#598=EDGE_CURVE('',#486,#488,#284,.T.);
#599=EDGE_CURVE('',#488,#487,#285,.T.);
#600=EDGE_CURVE('',#489,#487,#286,.T.);
#601=EDGE_CURVE('',#488,#490,#287,.T.);
#602=EDGE_CURVE('',#490,#489,#288,.T.);
#603=EDGE_CURVE('',#490,#467,#289,.T.);
#604=EDGE_CURVE('',#470,#489,#290,.T.);
#605=EDGE_CURVE('',#483,#491,#291,.T.);
#606=EDGE_CURVE('',#491,#492,#292,.T.);
#607=EDGE_CURVE('',#481,#492,#293,.T.);
#608=EDGE_CURVE('',#485,#493,#294,.T.);
#609=EDGE_CURVE('',#493,#491,#295,.T.);
#610=EDGE_CURVE('',#487,#494,#296,.T.);
#611=EDGE_CURVE('',#494,#493,#297,.T.);
#612=EDGE_CURVE('',#489,#495,#298,.T.);
#613=EDGE_CURVE('',#495,#494,#299,.T.);
#614=EDGE_CURVE('',#470,#496,#300,.T.);
#615=EDGE_CURVE('',#496,#495,#301,.T.);
#616=EDGE_CURVE('',#469,#497,#302,.T.);
#617=EDGE_CURVE('',#497,#496,#303,.T.);
#618=EDGE_CURVE('',#498,#498,#53,.T.);
#619=EDGE_CURVE('',#472,#499,#304,.T.);
#620=EDGE_CURVE('',#499,#497,#305,.T.);
#621=EDGE_CURVE('',#474,#500,#306,.T.);
#622=EDGE_CURVE('',#500,#499,#307,.T.);
#623=EDGE_CURVE('',#476,#501,#308,.T.);
#624=EDGE_CURVE('',#501,#500,#309,.T.);
#625=EDGE_CURVE('',#478,#502,#310,.T.);
#626=EDGE_CURVE('',#502,#501,#311,.T.);
#627=EDGE_CURVE('',#480,#503,#312,.T.);
#628=EDGE_CURVE('',#503,#502,#313,.T.);
#629=EDGE_CURVE('',#492,#503,#314,.T.);
#630=EDGE_CURVE('',#498,#504,#315,.T.);
#631=EDGE_CURVE('',#504,#504,#54,.T.);
#632=EDGE_CURVE('',#505,#506,#26,.T.);
#633=EDGE_CURVE('',#506,#507,#316,.F.);
#634=EDGE_CURVE('',#507,#508,#317,.T.);
#635=EDGE_CURVE('',#509,#508,#318,.T.);
#636=EDGE_CURVE('',#509,#510,#319,.T.);
#637=EDGE_CURVE('',#510,#505,#320,.F.);
#638=EDGE_CURVE('',#511,#511,#55,.F.);
#639=EDGE_CURVE('',#511,#512,#56,.T.);
#640=EDGE_CURVE('',#513,#512,#27,.T.);
#641=EDGE_CURVE('',#514,#513,#57,.T.);
#642=EDGE_CURVE('',#515,#514,#28,.T.);
#643=EDGE_CURVE('',#516,#515,#58,.T.);
#644=EDGE_CURVE('',#517,#516,#29,.T.);
#645=EDGE_CURVE('',#506,#517,#59,.T.);
#646=EDGE_CURVE('',#518,#505,#60,.T.);
#647=EDGE_CURVE('',#512,#518,#30,.T.);
#648=EDGE_CURVE('',#514,#519,#321,.F.);
#649=EDGE_CURVE('',#519,#520,#322,.T.);
#650=EDGE_CURVE('',#521,#520,#323,.T.);
#651=EDGE_CURVE('',#521,#522,#324,.T.);
#652=EDGE_CURVE('',#522,#515,#325,.F.);
#653=EDGE_CURVE('',#518,#523,#326,.F.);
#654=EDGE_CURVE('',#523,#524,#327,.T.);
#655=EDGE_CURVE('',#525,#524,#328,.T.);
#656=EDGE_CURVE('',#525,#526,#329,.T.);
#657=EDGE_CURVE('',#526,#513,#330,.F.);
#658=EDGE_CURVE('',#516,#527,#331,.F.);
#659=EDGE_CURVE('',#527,#528,#332,.T.);
#660=EDGE_CURVE('',#529,#528,#333,.T.);
#661=EDGE_CURVE('',#529,#530,#334,.T.);
#662=EDGE_CURVE('',#530,#517,#335,.F.);
#663=EDGE_CURVE('',#507,#530,#61,.F.);
#664=EDGE_CURVE('',#527,#522,#62,.F.);
#665=EDGE_CURVE('',#519,#526,#63,.F.);
#666=EDGE_CURVE('',#523,#510,#64,.F.);
#667=EDGE_CURVE('',#524,#509,#65,.T.);
#668=EDGE_CURVE('',#508,#529,#66,.T.);
#669=EDGE_CURVE('',#520,#525,#67,.T.);
#670=EDGE_CURVE('',#528,#521,#68,.T.);
#671=EDGE_CURVE('',#531,#532,#69,.T.);
#672=EDGE_CURVE('',#532,#533,#70,.T.);
#673=EDGE_CURVE('',#533,#534,#71,.T.);
#674=EDGE_CURVE('',#534,#531,#72,.T.);
#675=EDGE_CURVE('',#535,#536,#73,.T.);
#676=EDGE_CURVE('',#536,#534,#336,.T.);
#677=EDGE_CURVE('',#533,#535,#337,.T.);
#678=EDGE_CURVE('',#537,#538,#74,.T.);
#679=EDGE_CURVE('',#538,#536,#75,.T.);
#680=EDGE_CURVE('',#535,#537,#76,.T.);
#681=EDGE_CURVE('',#539,#540,#77,.T.);
#682=EDGE_CURVE('',#540,#538,#338,.T.);
#683=EDGE_CURVE('',#537,#539,#339,.T.);
#684=EDGE_CURVE('',#541,#542,#78,.T.);
#685=EDGE_CURVE('',#542,#540,#79,.T.);
#686=EDGE_CURVE('',#539,#541,#80,.T.);
#687=EDGE_CURVE('',#543,#544,#81,.T.);
#688=EDGE_CURVE('',#544,#542,#340,.T.);
#689=EDGE_CURVE('',#541,#543,#341,.T.);
#690=EDGE_CURVE('',#545,#546,#82,.T.);
#691=EDGE_CURVE('',#546,#544,#83,.T.);
#692=EDGE_CURVE('',#543,#545,#84,.T.);
#693=EDGE_CURVE('',#545,#532,#342,.T.);
#694=EDGE_CURVE('',#531,#546,#343,.T.);
#695=EDGE_CURVE('',#547,#544,#344,.T.);
#696=EDGE_CURVE('',#548,#547,#345,.T.);
#697=EDGE_CURVE('',#542,#548,#346,.T.);
#698=EDGE_CURVE('',#546,#549,#347,.T.);
#699=EDGE_CURVE('',#547,#549,#85,.T.);
#700=EDGE_CURVE('',#550,#531,#348,.T.);
#701=EDGE_CURVE('',#549,#550,#349,.T.);
#702=EDGE_CURVE('',#534,#551,#350,.T.);
#703=EDGE_CURVE('',#550,#551,#86,.T.);
#704=EDGE_CURVE('',#549,#552,#87,.T.);
#705=EDGE_CURVE('',#552,#553,#88,.T.);
#706=EDGE_CURVE('',#553,#547,#89,.T.);
#707=EDGE_CURVE('',#554,#550,#90,.T.);
#708=EDGE_CURVE('',#554,#552,#351,.T.);
#709=EDGE_CURVE('',#551,#555,#91,.T.);
#710=EDGE_CURVE('',#555,#554,#92,.T.);
#711=EDGE_CURVE('',#551,#556,#352,.T.);
#712=EDGE_CURVE('',#557,#556,#93,.T.);
#713=EDGE_CURVE('',#557,#555,#353,.T.);
#714=EDGE_CURVE('',#556,#536,#354,.T.);
#715=EDGE_CURVE('',#558,#559,#94,.T.);
#716=EDGE_CURVE('',#559,#557,#95,.T.);
#717=EDGE_CURVE('',#556,#558,#96,.T.);
#718=EDGE_CURVE('',#538,#558,#355,.T.);
#719=EDGE_CURVE('',#558,#560,#356,.T.);
#720=EDGE_CURVE('',#561,#560,#97,.T.);
#721=EDGE_CURVE('',#561,#559,#357,.T.);
#722=EDGE_CURVE('',#560,#540,#358,.T.);
#723=EDGE_CURVE('',#548,#562,#98,.T.);
#724=EDGE_CURVE('',#562,#561,#99,.T.);
#725=EDGE_CURVE('',#560,#548,#100,.T.);
#726=EDGE_CURVE('',#553,#562,#359,.T.);
#727=EDGE_CURVE('',#563,#563,#101,.T.);
#728=EDGE_CURVE('',#563,#564,#102,.T.);
#729=EDGE_CURVE('',#564,#565,#103,.T.);
#730=EDGE_CURVE('',#565,#564,#104,.T.);
#731=EDGE_CURVE('',#566,#567,#105,.T.);
#732=EDGE_CURVE('',#566,#565,#360,.T.);
#733=EDGE_CURVE('',#567,#566,#106,.T.);
#734=EDGE_CURVE('',#568,#568,#107,.T.);
#735=EDGE_CURVE('',#568,#567,#108,.T.);
#736=ORIENTED_EDGE('',*,*,#569,.T.);
#737=ORIENTED_EDGE('',*,*,#570,.T.);
#738=ORIENTED_EDGE('',*,*,#571,.T.);
#739=ORIENTED_EDGE('',*,*,#572,.T.);
#740=ORIENTED_EDGE('',*,*,#573,.T.);
#741=ORIENTED_EDGE('',*,*,#574,.T.);
#742=ORIENTED_EDGE('',*,*,#575,.T.);
#743=ORIENTED_EDGE('',*,*,#570,.F.);
#744=ORIENTED_EDGE('',*,*,#576,.T.);
#745=ORIENTED_EDGE('',*,*,#577,.T.);
#746=ORIENTED_EDGE('',*,*,#578,.T.);
#747=ORIENTED_EDGE('',*,*,#574,.F.);
#748=ORIENTED_EDGE('',*,*,#579,.T.);
#749=ORIENTED_EDGE('',*,*,#580,.T.);
#750=ORIENTED_EDGE('',*,*,#581,.T.);
#751=ORIENTED_EDGE('',*,*,#577,.F.);
#752=ORIENTED_EDGE('',*,*,#582,.T.);
#753=ORIENTED_EDGE('',*,*,#583,.T.);
#754=ORIENTED_EDGE('',*,*,#584,.T.);
#755=ORIENTED_EDGE('',*,*,#580,.F.);
#756=ORIENTED_EDGE('',*,*,#585,.T.);
#757=ORIENTED_EDGE('',*,*,#586,.T.);
#758=ORIENTED_EDGE('',*,*,#587,.T.);
#759=ORIENTED_EDGE('',*,*,#583,.F.);
#760=ORIENTED_EDGE('',*,*,#588,.T.);
#761=ORIENTED_EDGE('',*,*,#586,.F.);
#762=ORIENTED_EDGE('',*,*,#589,.T.);
#763=ORIENTED_EDGE('',*,*,#590,.T.);
#764=ORIENTED_EDGE('',*,*,#591,.T.);
#765=ORIENTED_EDGE('',*,*,#590,.F.);
#766=ORIENTED_EDGE('',*,*,#592,.T.);
#767=ORIENTED_EDGE('',*,*,#593,.T.);
#768=ORIENTED_EDGE('',*,*,#594,.T.);
#769=ORIENTED_EDGE('',*,*,#593,.F.);
#770=ORIENTED_EDGE('',*,*,#595,.T.);
#771=ORIENTED_EDGE('',*,*,#596,.T.);
#772=ORIENTED_EDGE('',*,*,#597,.T.);
#773=ORIENTED_EDGE('',*,*,#596,.F.);
#774=ORIENTED_EDGE('',*,*,#598,.T.);
#775=ORIENTED_EDGE('',*,*,#599,.T.);
#776=ORIENTED_EDGE('',*,*,#600,.T.);
#777=ORIENTED_EDGE('',*,*,#599,.F.);
#778=ORIENTED_EDGE('',*,*,#601,.T.);
#779=ORIENTED_EDGE('',*,*,#602,.T.);
#780=ORIENTED_EDGE('',*,*,#603,.T.);
#781=ORIENTED_EDGE('',*,*,#572,.F.);
#782=ORIENTED_EDGE('',*,*,#604,.T.);
#783=ORIENTED_EDGE('',*,*,#602,.F.);
#784=ORIENTED_EDGE('',*,*,#591,.F.);
#785=ORIENTED_EDGE('',*,*,#605,.T.);
#786=ORIENTED_EDGE('',*,*,#606,.T.);
#787=ORIENTED_EDGE('',*,*,#607,.F.);
#788=ORIENTED_EDGE('',*,*,#594,.F.);
#789=ORIENTED_EDGE('',*,*,#608,.T.);
#790=ORIENTED_EDGE('',*,*,#609,.T.);
#791=ORIENTED_EDGE('',*,*,#605,.F.);
#792=ORIENTED_EDGE('',*,*,#597,.F.);
#793=ORIENTED_EDGE('',*,*,#610,.T.);
#794=ORIENTED_EDGE('',*,*,#611,.T.);
#795=ORIENTED_EDGE('',*,*,#608,.F.);
#796=ORIENTED_EDGE('',*,*,#600,.F.);
#797=ORIENTED_EDGE('',*,*,#612,.T.);
#798=ORIENTED_EDGE('',*,*,#613,.T.);
#799=ORIENTED_EDGE('',*,*,#610,.F.);
#800=ORIENTED_EDGE('',*,*,#604,.F.);
#801=ORIENTED_EDGE('',*,*,#614,.T.);
#802=ORIENTED_EDGE('',*,*,#615,.T.);
#803=ORIENTED_EDGE('',*,*,#612,.F.);
#804=ORIENTED_EDGE('',*,*,#571,.F.);
#805=ORIENTED_EDGE('',*,*,#616,.T.);
#806=ORIENTED_EDGE('',*,*,#617,.T.);
#807=ORIENTED_EDGE('',*,*,#614,.F.);
#808=ORIENTED_EDGE('',*,*,#618,.T.);
#809=ORIENTED_EDGE('',*,*,#569,.F.);
#810=ORIENTED_EDGE('',*,*,#603,.F.);
#811=ORIENTED_EDGE('',*,*,#601,.F.);
#812=ORIENTED_EDGE('',*,*,#598,.F.);
#813=ORIENTED_EDGE('',*,*,#595,.F.);
#814=ORIENTED_EDGE('',*,*,#592,.F.);
#815=ORIENTED_EDGE('',*,*,#589,.F.);
#816=ORIENTED_EDGE('',*,*,#585,.F.);
#817=ORIENTED_EDGE('',*,*,#582,.F.);
#818=ORIENTED_EDGE('',*,*,#579,.F.);
#819=ORIENTED_EDGE('',*,*,#576,.F.);
#820=ORIENTED_EDGE('',*,*,#573,.F.);
#821=ORIENTED_EDGE('',*,*,#575,.F.);
#822=ORIENTED_EDGE('',*,*,#619,.T.);
#823=ORIENTED_EDGE('',*,*,#620,.T.);
#824=ORIENTED_EDGE('',*,*,#616,.F.);
#825=ORIENTED_EDGE('',*,*,#578,.F.);
#826=ORIENTED_EDGE('',*,*,#621,.T.);
#827=ORIENTED_EDGE('',*,*,#622,.T.);
#828=ORIENTED_EDGE('',*,*,#619,.F.);
#829=ORIENTED_EDGE('',*,*,#581,.F.);
#830=ORIENTED_EDGE('',*,*,#623,.T.);
#831=ORIENTED_EDGE('',*,*,#624,.T.);
#832=ORIENTED_EDGE('',*,*,#621,.F.);
#833=ORIENTED_EDGE('',*,*,#584,.F.);
#834=ORIENTED_EDGE('',*,*,#625,.T.);
#835=ORIENTED_EDGE('',*,*,#626,.T.);
#836=ORIENTED_EDGE('',*,*,#623,.F.);
#837=ORIENTED_EDGE('',*,*,#587,.F.);
#838=ORIENTED_EDGE('',*,*,#627,.T.);
#839=ORIENTED_EDGE('',*,*,#628,.T.);
#840=ORIENTED_EDGE('',*,*,#625,.F.);
#841=ORIENTED_EDGE('',*,*,#588,.F.);
#842=ORIENTED_EDGE('',*,*,#607,.T.);
#843=ORIENTED_EDGE('',*,*,#629,.T.);
#844=ORIENTED_EDGE('',*,*,#627,.F.);
#845=ORIENTED_EDGE('',*,*,#615,.F.);
#846=ORIENTED_EDGE('',*,*,#617,.F.);
#847=ORIENTED_EDGE('',*,*,#620,.F.);
#848=ORIENTED_EDGE('',*,*,#622,.F.);
#849=ORIENTED_EDGE('',*,*,#624,.F.);
#850=ORIENTED_EDGE('',*,*,#626,.F.);
#851=ORIENTED_EDGE('',*,*,#628,.F.);
#852=ORIENTED_EDGE('',*,*,#629,.F.);
#853=ORIENTED_EDGE('',*,*,#606,.F.);
#854=ORIENTED_EDGE('',*,*,#609,.F.);
#855=ORIENTED_EDGE('',*,*,#611,.F.);
#856=ORIENTED_EDGE('',*,*,#613,.F.);
#857=ORIENTED_EDGE('',*,*,#618,.F.);
#858=ORIENTED_EDGE('',*,*,#630,.T.);
#859=ORIENTED_EDGE('',*,*,#631,.F.);
#860=ORIENTED_EDGE('',*,*,#630,.F.);
#861=ORIENTED_EDGE('',*,*,#632,.T.);
#862=ORIENTED_EDGE('',*,*,#633,.T.);
#863=ORIENTED_EDGE('',*,*,#634,.T.);
#864=ORIENTED_EDGE('',*,*,#635,.F.);
#865=ORIENTED_EDGE('',*,*,#636,.T.);
#866=ORIENTED_EDGE('',*,*,#637,.T.);
#867=ORIENTED_EDGE('',*,*,#638,.F.);
#868=ORIENTED_EDGE('',*,*,#639,.T.);
#869=ORIENTED_EDGE('',*,*,#640,.F.);
#870=ORIENTED_EDGE('',*,*,#641,.F.);
#871=ORIENTED_EDGE('',*,*,#642,.F.);
#872=ORIENTED_EDGE('',*,*,#643,.F.);
#873=ORIENTED_EDGE('',*,*,#644,.F.);
#874=ORIENTED_EDGE('',*,*,#645,.F.);
#875=ORIENTED_EDGE('',*,*,#632,.F.);
#876=ORIENTED_EDGE('',*,*,#646,.F.);
#877=ORIENTED_EDGE('',*,*,#647,.F.);
#878=ORIENTED_EDGE('',*,*,#639,.F.);
#879=ORIENTED_EDGE('',*,*,#642,.T.);
#880=ORIENTED_EDGE('',*,*,#648,.T.);
#881=ORIENTED_EDGE('',*,*,#649,.T.);
#882=ORIENTED_EDGE('',*,*,#650,.F.);
#883=ORIENTED_EDGE('',*,*,#651,.T.);
#884=ORIENTED_EDGE('',*,*,#652,.T.);
#885=ORIENTED_EDGE('',*,*,#640,.T.);
#886=ORIENTED_EDGE('',*,*,#647,.T.);
#887=ORIENTED_EDGE('',*,*,#653,.T.);
#888=ORIENTED_EDGE('',*,*,#654,.T.);
#889=ORIENTED_EDGE('',*,*,#655,.F.);
#890=ORIENTED_EDGE('',*,*,#656,.T.);
#891=ORIENTED_EDGE('',*,*,#657,.T.);
#892=ORIENTED_EDGE('',*,*,#644,.T.);
#893=ORIENTED_EDGE('',*,*,#658,.T.);
#894=ORIENTED_EDGE('',*,*,#659,.T.);
#895=ORIENTED_EDGE('',*,*,#660,.F.);
#896=ORIENTED_EDGE('',*,*,#661,.T.);
#897=ORIENTED_EDGE('',*,*,#662,.T.);
#898=ORIENTED_EDGE('',*,*,#662,.F.);
#899=ORIENTED_EDGE('',*,*,#663,.F.);
#900=ORIENTED_EDGE('',*,*,#633,.F.);
#901=ORIENTED_EDGE('',*,*,#645,.T.);
#902=ORIENTED_EDGE('',*,*,#652,.F.);
#903=ORIENTED_EDGE('',*,*,#664,.F.);
#904=ORIENTED_EDGE('',*,*,#658,.F.);
#905=ORIENTED_EDGE('',*,*,#643,.T.);
#906=ORIENTED_EDGE('',*,*,#657,.F.);
#907=ORIENTED_EDGE('',*,*,#665,.F.);
#908=ORIENTED_EDGE('',*,*,#648,.F.);
#909=ORIENTED_EDGE('',*,*,#641,.T.);
#910=ORIENTED_EDGE('',*,*,#666,.T.);
#911=ORIENTED_EDGE('',*,*,#636,.F.);
#912=ORIENTED_EDGE('',*,*,#667,.F.);
#913=ORIENTED_EDGE('',*,*,#654,.F.);
#914=ORIENTED_EDGE('',*,*,#663,.T.);
#915=ORIENTED_EDGE('',*,*,#661,.F.);
#916=ORIENTED_EDGE('',*,*,#668,.F.);
#917=ORIENTED_EDGE('',*,*,#634,.F.);
#918=ORIENTED_EDGE('',*,*,#665,.T.);
#919=ORIENTED_EDGE('',*,*,#656,.F.);
#920=ORIENTED_EDGE('',*,*,#669,.F.);
#921=ORIENTED_EDGE('',*,*,#649,.F.);
#922=ORIENTED_EDGE('',*,*,#664,.T.);
#923=ORIENTED_EDGE('',*,*,#651,.F.);
#924=ORIENTED_EDGE('',*,*,#670,.F.);
#925=ORIENTED_EDGE('',*,*,#659,.F.);
#926=ORIENTED_EDGE('',*,*,#646,.T.);
#927=ORIENTED_EDGE('',*,*,#637,.F.);
#928=ORIENTED_EDGE('',*,*,#666,.F.);
#929=ORIENTED_EDGE('',*,*,#653,.F.);
#930=ORIENTED_EDGE('',*,*,#638,.T.);
#931=ORIENTED_EDGE('',*,*,#631,.T.);
#932=ORIENTED_EDGE('',*,*,#671,.T.);
#933=ORIENTED_EDGE('',*,*,#672,.T.);
#934=ORIENTED_EDGE('',*,*,#673,.T.);
#935=ORIENTED_EDGE('',*,*,#674,.T.);
#936=ORIENTED_EDGE('',*,*,#675,.T.);
#937=ORIENTED_EDGE('',*,*,#676,.T.);
#938=ORIENTED_EDGE('',*,*,#673,.F.);
#939=ORIENTED_EDGE('',*,*,#677,.T.);
#940=ORIENTED_EDGE('',*,*,#678,.T.);
#941=ORIENTED_EDGE('',*,*,#679,.T.);
#942=ORIENTED_EDGE('',*,*,#675,.F.);
#943=ORIENTED_EDGE('',*,*,#680,.T.);
#944=ORIENTED_EDGE('',*,*,#681,.T.);
#945=ORIENTED_EDGE('',*,*,#682,.T.);
#946=ORIENTED_EDGE('',*,*,#678,.F.);
#947=ORIENTED_EDGE('',*,*,#683,.T.);
#948=ORIENTED_EDGE('',*,*,#684,.T.);
#949=ORIENTED_EDGE('',*,*,#685,.T.);
#950=ORIENTED_EDGE('',*,*,#681,.F.);
#951=ORIENTED_EDGE('',*,*,#686,.T.);
#952=ORIENTED_EDGE('',*,*,#687,.T.);
#953=ORIENTED_EDGE('',*,*,#688,.T.);
#954=ORIENTED_EDGE('',*,*,#684,.F.);
#955=ORIENTED_EDGE('',*,*,#689,.T.);
#956=ORIENTED_EDGE('',*,*,#690,.T.);
#957=ORIENTED_EDGE('',*,*,#691,.T.);
#958=ORIENTED_EDGE('',*,*,#687,.F.);
#959=ORIENTED_EDGE('',*,*,#692,.T.);
#960=ORIENTED_EDGE('',*,*,#690,.F.);
#961=ORIENTED_EDGE('',*,*,#693,.T.);
#962=ORIENTED_EDGE('',*,*,#671,.F.);
#963=ORIENTED_EDGE('',*,*,#694,.T.);
#964=ORIENTED_EDGE('',*,*,#688,.F.);
#965=ORIENTED_EDGE('',*,*,#695,.F.);
#966=ORIENTED_EDGE('',*,*,#696,.F.);
#967=ORIENTED_EDGE('',*,*,#697,.F.);
#968=ORIENTED_EDGE('',*,*,#691,.F.);
#969=ORIENTED_EDGE('',*,*,#698,.T.);
#970=ORIENTED_EDGE('',*,*,#699,.F.);
#971=ORIENTED_EDGE('',*,*,#695,.T.);
#972=ORIENTED_EDGE('',*,*,#694,.F.);
#973=ORIENTED_EDGE('',*,*,#700,.F.);
#974=ORIENTED_EDGE('',*,*,#701,.F.);
#975=ORIENTED_EDGE('',*,*,#698,.F.);
#976=ORIENTED_EDGE('',*,*,#674,.F.);
#977=ORIENTED_EDGE('',*,*,#702,.T.);
#978=ORIENTED_EDGE('',*,*,#703,.F.);
#979=ORIENTED_EDGE('',*,*,#700,.T.);
#980=ORIENTED_EDGE('',*,*,#672,.F.);
#981=ORIENTED_EDGE('',*,*,#693,.F.);
#982=ORIENTED_EDGE('',*,*,#692,.F.);
#983=ORIENTED_EDGE('',*,*,#689,.F.);
#984=ORIENTED_EDGE('',*,*,#686,.F.);
#985=ORIENTED_EDGE('',*,*,#683,.F.);
#986=ORIENTED_EDGE('',*,*,#680,.F.);
#987=ORIENTED_EDGE('',*,*,#677,.F.);
#988=ORIENTED_EDGE('',*,*,#660,.T.);
#989=ORIENTED_EDGE('',*,*,#670,.T.);
#990=ORIENTED_EDGE('',*,*,#650,.T.);
#991=ORIENTED_EDGE('',*,*,#669,.T.);
#992=ORIENTED_EDGE('',*,*,#655,.T.);
#993=ORIENTED_EDGE('',*,*,#667,.T.);
#994=ORIENTED_EDGE('',*,*,#635,.T.);
#995=ORIENTED_EDGE('',*,*,#668,.T.);
#996=ORIENTED_EDGE('',*,*,#704,.T.);
#997=ORIENTED_EDGE('',*,*,#705,.T.);
#998=ORIENTED_EDGE('',*,*,#706,.T.);
#999=ORIENTED_EDGE('',*,*,#699,.T.);
#1000=ORIENTED_EDGE('',*,*,#704,.F.);
#1001=ORIENTED_EDGE('',*,*,#701,.T.);
#1002=ORIENTED_EDGE('',*,*,#707,.F.);
#1003=ORIENTED_EDGE('',*,*,#708,.T.);
#1004=ORIENTED_EDGE('',*,*,#709,.T.);
#1005=ORIENTED_EDGE('',*,*,#710,.T.);
#1006=ORIENTED_EDGE('',*,*,#707,.T.);
#1007=ORIENTED_EDGE('',*,*,#703,.T.);
#1008=ORIENTED_EDGE('',*,*,#709,.F.);
#1009=ORIENTED_EDGE('',*,*,#711,.T.);
#1010=ORIENTED_EDGE('',*,*,#712,.F.);
#1011=ORIENTED_EDGE('',*,*,#713,.T.);
#1012=ORIENTED_EDGE('',*,*,#676,.F.);
#1013=ORIENTED_EDGE('',*,*,#714,.F.);
#1014=ORIENTED_EDGE('',*,*,#711,.F.);
#1015=ORIENTED_EDGE('',*,*,#702,.F.);
#1016=ORIENTED_EDGE('',*,*,#715,.T.);
#1017=ORIENTED_EDGE('',*,*,#716,.T.);
#1018=ORIENTED_EDGE('',*,*,#712,.T.);
#1019=ORIENTED_EDGE('',*,*,#717,.T.);
#1020=ORIENTED_EDGE('',*,*,#679,.F.);
#1021=ORIENTED_EDGE('',*,*,#718,.T.);
#1022=ORIENTED_EDGE('',*,*,#717,.F.);
#1023=ORIENTED_EDGE('',*,*,#714,.T.);
#1024=ORIENTED_EDGE('',*,*,#715,.F.);
#1025=ORIENTED_EDGE('',*,*,#719,.T.);
#1026=ORIENTED_EDGE('',*,*,#720,.F.);
#1027=ORIENTED_EDGE('',*,*,#721,.T.);
#1028=ORIENTED_EDGE('',*,*,#682,.F.);
#1029=ORIENTED_EDGE('',*,*,#722,.F.);
#1030=ORIENTED_EDGE('',*,*,#719,.F.);
#1031=ORIENTED_EDGE('',*,*,#718,.F.);
#1032=ORIENTED_EDGE('',*,*,#723,.T.);
#1033=ORIENTED_EDGE('',*,*,#724,.T.);
#1034=ORIENTED_EDGE('',*,*,#720,.T.);
#1035=ORIENTED_EDGE('',*,*,#725,.T.);
#1036=ORIENTED_EDGE('',*,*,#685,.F.);
#1037=ORIENTED_EDGE('',*,*,#697,.T.);
#1038=ORIENTED_EDGE('',*,*,#725,.F.);
#1039=ORIENTED_EDGE('',*,*,#722,.T.);
#1040=ORIENTED_EDGE('',*,*,#706,.F.);
#1041=ORIENTED_EDGE('',*,*,#726,.T.);
#1042=ORIENTED_EDGE('',*,*,#723,.F.);
#1043=ORIENTED_EDGE('',*,*,#696,.T.);
#1044=ORIENTED_EDGE('',*,*,#705,.F.);
#1045=ORIENTED_EDGE('',*,*,#708,.F.);
#1046=ORIENTED_EDGE('',*,*,#710,.F.);
#1047=ORIENTED_EDGE('',*,*,#713,.F.);
#1048=ORIENTED_EDGE('',*,*,#716,.F.);
#1049=ORIENTED_EDGE('',*,*,#721,.F.);
#1050=ORIENTED_EDGE('',*,*,#724,.F.);
#1051=ORIENTED_EDGE('',*,*,#726,.F.);
#1052=ORIENTED_EDGE('',*,*,#727,.F.);
#1053=ORIENTED_EDGE('',*,*,#727,.T.);
#1054=ORIENTED_EDGE('',*,*,#728,.T.);
#1055=ORIENTED_EDGE('',*,*,#729,.T.);
#1056=ORIENTED_EDGE('',*,*,#730,.T.);
#1057=ORIENTED_EDGE('',*,*,#728,.F.);
#1058=ORIENTED_EDGE('',*,*,#731,.F.);
#1059=ORIENTED_EDGE('',*,*,#732,.T.);
#1060=ORIENTED_EDGE('',*,*,#729,.F.);
#1061=ORIENTED_EDGE('',*,*,#730,.F.);
#1062=ORIENTED_EDGE('',*,*,#732,.F.);
#1063=ORIENTED_EDGE('',*,*,#733,.F.);
#1064=ORIENTED_EDGE('',*,*,#734,.T.);
#1065=ORIENTED_EDGE('',*,*,#735,.T.);
#1066=ORIENTED_EDGE('',*,*,#733,.T.);
#1067=ORIENTED_EDGE('',*,*,#731,.T.);
#1068=ORIENTED_EDGE('',*,*,#735,.F.);
#1069=ORIENTED_EDGE('',*,*,#734,.F.);
#1070=PLANE('',#1197);
#1071=PLANE('',#1198);
#1072=PLANE('',#1199);
#1073=PLANE('',#1200);
#1074=PLANE('',#1201);
#1075=PLANE('',#1202);
#1076=PLANE('',#1203);
#1077=PLANE('',#1204);
#1078=PLANE('',#1205);
#1079=PLANE('',#1206);
#1080=PLANE('',#1207);
#1081=PLANE('',#1208);
#1082=PLANE('',#1209);
#1083=PLANE('',#1210);
#1084=PLANE('',#1211);
#1085=PLANE('',#1212);
#1086=PLANE('',#1213);
#1087=PLANE('',#1214);
#1088=PLANE('',#1215);
#1089=PLANE('',#1217);
#1090=PLANE('',#1218);
#1091=PLANE('',#1219);
#1092=PLANE('',#1220);
#1093=PLANE('',#1221);
#1094=PLANE('',#1222);
#1095=PLANE('',#1223);
#1096=PLANE('',#1226);
#1097=PLANE('',#1234);
#1098=PLANE('',#1235);
#1099=PLANE('',#1236);
#1100=PLANE('',#1237);
#1101=PLANE('',#1239);
#1102=PLANE('',#1241);
#1103=PLANE('',#1252);
#1104=PLANE('',#1253);
#1105=PLANE('',#1278);
#1106=PLANE('',#1281);
#1107=PLANE('',#1284);
#1108=PLANE('',#1296);
#1109=PLANE('',#1304);
#1110=PLANE('',#1311);
#1111=PLANE('',#1323);
#1112=ADVANCED_FACE('',(#109),#1070,.T.);
#1113=ADVANCED_FACE('',(#110),#1071,.T.);
#1114=ADVANCED_FACE('',(#111),#1072,.T.);
#1115=ADVANCED_FACE('',(#112),#1073,.T.);
#1116=ADVANCED_FACE('',(#113),#1074,.T.);
#1117=ADVANCED_FACE('',(#114),#1075,.T.);
#1118=ADVANCED_FACE('',(#115),#1076,.T.);
#1119=ADVANCED_FACE('',(#116),#1077,.T.);
#1120=ADVANCED_FACE('',(#117),#1078,.T.);
#1121=ADVANCED_FACE('',(#118),#1079,.T.);
#1122=ADVANCED_FACE('',(#119),#1080,.T.);
#1123=ADVANCED_FACE('',(#120),#1081,.T.);
#1124=ADVANCED_FACE('',(#121),#1082,.F.);
#1125=ADVANCED_FACE('',(#122),#1083,.F.);
#1126=ADVANCED_FACE('',(#123),#1084,.F.);
#1127=ADVANCED_FACE('',(#124),#1085,.F.);
#1128=ADVANCED_FACE('',(#125),#1086,.F.);
#1129=ADVANCED_FACE('',(#126),#1087,.F.);
#1130=ADVANCED_FACE('',(#127,#49),#1088,.T.);
#1131=ADVANCED_FACE('',(#128),#1089,.F.);
#1132=ADVANCED_FACE('',(#129),#1090,.F.);
#1133=ADVANCED_FACE('',(#130),#1091,.F.);
#1134=ADVANCED_FACE('',(#131),#1092,.F.);
#1135=ADVANCED_FACE('',(#132),#1093,.F.);
#1136=ADVANCED_FACE('',(#133),#1094,.F.);
#1137=ADVANCED_FACE('',(#134),#1095,.F.);
#1138=ADVANCED_FACE('',(#135),#31,.T.);
#1139=ADVANCED_FACE('',(#136),#1096,.F.);
#1140=ADVANCED_FACE('',(#137),#15,.T.);
#1141=ADVANCED_FACE('',(#138),#1097,.F.);
#1142=ADVANCED_FACE('',(#139),#1098,.F.);
#1143=ADVANCED_FACE('',(#140),#1099,.F.);
#1144=ADVANCED_FACE('',(#141),#1100,.F.);
#1145=ADVANCED_FACE('',(#142),#1101,.F.);
#1146=ADVANCED_FACE('',(#143),#1102,.F.);
#1147=ADVANCED_FACE('',(#144),#32,.F.);
#1148=ADVANCED_FACE('',(#145),#33,.F.);
#1149=ADVANCED_FACE('',(#146),#34,.F.);
#1150=ADVANCED_FACE('',(#147),#35,.F.);
#1151=ADVANCED_FACE('',(#148),#1103,.F.);
#1152=ADVANCED_FACE('',(#149,#50),#1104,.F.);
#1153=ADVANCED_FACE('',(#150),#16,.T.);
#1154=ADVANCED_FACE('',(#151),#36,.T.);
#1155=ADVANCED_FACE('',(#152),#17,.T.);
#1156=ADVANCED_FACE('',(#153),#37,.T.);
#1157=ADVANCED_FACE('',(#154),#18,.T.);
#1158=ADVANCED_FACE('',(#155),#38,.T.);
#1159=ADVANCED_FACE('',(#156),#19,.T.);
#1160=ADVANCED_FACE('',(#157),#39,.T.);
#1161=ADVANCED_FACE('',(#158),#1105,.T.);
#1162=ADVANCED_FACE('',(#159),#40,.T.);
#1163=ADVANCED_FACE('',(#160),#1106,.T.);
#1164=ADVANCED_FACE('',(#161),#41,.T.);
#1165=ADVANCED_FACE('',(#162,#51),#1107,.F.);
#1166=ADVANCED_FACE('',(#163),#20,.T.);
#1167=ADVANCED_FACE('',(#164),#42,.T.);
#1168=ADVANCED_FACE('',(#165),#21,.T.);
#1169=ADVANCED_FACE('',(#166),#43,.T.);
#1170=ADVANCED_FACE('',(#167),#1108,.T.);
#1171=ADVANCED_FACE('',(#168),#22,.T.);
#1172=ADVANCED_FACE('',(#169),#44,.T.);
#1173=ADVANCED_FACE('',(#170),#45,.T.);
#1174=ADVANCED_FACE('',(#171),#1109,.T.);
#1175=ADVANCED_FACE('',(#172),#23,.T.);
#1176=ADVANCED_FACE('',(#173),#46,.T.);
#1177=ADVANCED_FACE('',(#174),#47,.T.);
#1178=ADVANCED_FACE('',(#175,#52),#1110,.T.);
#1179=ADVANCED_FACE('',(#176),#24,.F.);
#1180=ADVANCED_FACE('',(#177),#48,.T.);
#1181=ADVANCED_FACE('',(#178),#25,.T.);
#1182=ADVANCED_FACE('',(#179),#1111,.T.);
#1183=CLOSED_SHELL('',(#1112,#1113,#1114,#1115,#1116,#1117,#1118,#1119,
#1120,#1121,#1122,#1123,#1124,#1125,#1126,#1127,#1128,#1129,#1130,#1131,
#1132,#1133,#1134,#1135,#1136,#1137,#1138,#1139,#1140,#1141,#1142,#1143,
#1144,#1145,#1146,#1147,#1148,#1149,#1150,#1151,#1152,#1153,#1154,#1155,
#1156,#1157,#1158,#1159,#1160,#1161,#1162,#1163,#1164,#1165,#1166,#1167,
#1168,#1169,#1170,#1171,#1172,#1173,#1174,#1175,#1176,#1177,#1178,#1179,
#1180,#1181,#1182));
#1184=DERIVED_UNIT_ELEMENT(#1186,1.);
#1185=DERIVED_UNIT_ELEMENT(#2072,-3.);
#1186=(
MASS_UNIT()
NAMED_UNIT(*)
SI_UNIT(.KILO.,.GRAM.)
);
#1187=DERIVED_UNIT((#1184,#1185));
#1188=MEASURE_REPRESENTATION_ITEM('density measure',
POSITIVE_RATIO_MEASURE(7850.),#1187);
#1189=PROPERTY_DEFINITION_REPRESENTATION(#1194,#1191);
#1190=PROPERTY_DEFINITION_REPRESENTATION(#1195,#1192);
#1191=REPRESENTATION('material name',(#1193),#2069);
#1192=REPRESENTATION('density',(#1188),#2069);
#1193=DESCRIPTIVE_REPRESENTATION_ITEM('Steel','Steel');
#1194=PROPERTY_DEFINITION('material property','material name',#2079);
#1195=PROPERTY_DEFINITION('material property','density of part',#2079);
#1196=AXIS2_PLACEMENT_3D('',#1686,#1324,#1325);
#1197=AXIS2_PLACEMENT_3D('',#1687,#1326,#1327);
#1198=AXIS2_PLACEMENT_3D('',#1696,#1332,#1333);
#1199=AXIS2_PLACEMENT_3D('',#1702,#1337,#1338);
#1200=AXIS2_PLACEMENT_3D('',#1708,#1342,#1343);
#1201=AXIS2_PLACEMENT_3D('',#1714,#1347,#1348);
#1202=AXIS2_PLACEMENT_3D('',#1720,#1352,#1353);
#1203=AXIS2_PLACEMENT_3D('',#1726,#1357,#1358);
#1204=AXIS2_PLACEMENT_3D('',#1732,#1362,#1363);
#1205=AXIS2_PLACEMENT_3D('',#1738,#1367,#1368);
#1206=AXIS2_PLACEMENT_3D('',#1744,#1372,#1373);
#1207=AXIS2_PLACEMENT_3D('',#1750,#1377,#1378);
#1208=AXIS2_PLACEMENT_3D('',#1756,#1382,#1383);
#1209=AXIS2_PLACEMENT_3D('',#1759,#1386,#1387);
#1210=AXIS2_PLACEMENT_3D('',#1765,#1391,#1392);
#1211=AXIS2_PLACEMENT_3D('',#1769,#1395,#1396);
#1212=AXIS2_PLACEMENT_3D('',#1773,#1399,#1400);
#1213=AXIS2_PLACEMENT_3D('',#1777,#1403,#1404);
#1214=AXIS2_PLACEMENT_3D('',#1781,#1407,#1408);
#1215=AXIS2_PLACEMENT_3D('',#1785,#1411,#1412);
#1216=AXIS2_PLACEMENT_3D('',#1787,#1413,#1414);
#1217=AXIS2_PLACEMENT_3D('',#1788,#1415,#1416);
#1218=AXIS2_PLACEMENT_3D('',#1792,#1419,#1420);
#1219=AXIS2_PLACEMENT_3D('',#1796,#1423,#1424);
#1220=AXIS2_PLACEMENT_3D('',#1800,#1427,#1428);
#1221=AXIS2_PLACEMENT_3D('',#1804,#1431,#1432);
#1222=AXIS2_PLACEMENT_3D('',#1808,#1435,#1436);
#1223=AXIS2_PLACEMENT_3D('',#1810,#1438,#1439);
#1224=AXIS2_PLACEMENT_3D('',#1811,#1440,#1441);
#1225=AXIS2_PLACEMENT_3D('',#1814,#1443,#1444);
#1226=AXIS2_PLACEMENT_3D('',#1815,#1445,#1446);
#1227=AXIS2_PLACEMENT_3D('',#1838,#1452,#1453);
#1228=AXIS2_PLACEMENT_3D('',#1840,#1454,#1455);
#1229=AXIS2_PLACEMENT_3D('',#1842,#1456,#1457);
#1230=AXIS2_PLACEMENT_3D('',#1851,#1458,#1459);
#1231=AXIS2_PLACEMENT_3D('',#1865,#1460,#1461);
#1232=AXIS2_PLACEMENT_3D('',#1878,#1462,#1463);
#1233=AXIS2_PLACEMENT_3D('',#1880,#1464,#1465);
#1234=AXIS2_PLACEMENT_3D('',#1887,#1466,#1467);
#1235=AXIS2_PLACEMENT_3D('',#1897,#1473,#1474);
#1236=AXIS2_PLACEMENT_3D('',#1907,#1480,#1481);
#1237=AXIS2_PLACEMENT_3D('',#1917,#1487,#1488);
#1238=AXIS2_PLACEMENT_3D('',#1918,#1489,#1490);
#1239=AXIS2_PLACEMENT_3D('',#1919,#1491,#1492);
#1240=AXIS2_PLACEMENT_3D('',#1920,#1493,#1494);
#1241=AXIS2_PLACEMENT_3D('',#1921,#1495,#1496);
#1242=AXIS2_PLACEMENT_3D('',#1922,#1497,#1498);
#1243=AXIS2_PLACEMENT_3D('',#1923,#1499,#1500);
#1244=AXIS2_PLACEMENT_3D('',#1924,#1501,#1502);
#1245=AXIS2_PLACEMENT_3D('',#1925,#1503,#1504);
#1246=AXIS2_PLACEMENT_3D('',#1926,#1505,#1506);
#1247=AXIS2_PLACEMENT_3D('',#1927,#1507,#1508);
#1248=AXIS2_PLACEMENT_3D('',#1928,#1509,#1510);
#1249=AXIS2_PLACEMENT_3D('',#1929,#1511,#1512);
#1250=AXIS2_PLACEMENT_3D('',#1930,#1513,#1514);
#1251=AXIS2_PLACEMENT_3D('',#1931,#1515,#1516);
#1252=AXIS2_PLACEMENT_3D('',#1932,#1517,#1518);
#1253=AXIS2_PLACEMENT_3D('',#1933,#1519,#1520);
#1254=AXIS2_PLACEMENT_3D('',#1934,#1521,#1522);
#1255=AXIS2_PLACEMENT_3D('',#1937,#1523,#1524);
#1256=AXIS2_PLACEMENT_3D('',#1939,#1525,#1526);
#1257=AXIS2_PLACEMENT_3D('',#1941,#1527,#1528);
#1258=AXIS2_PLACEMENT_3D('',#1942,#1529,#1530);
#1259=AXIS2_PLACEMENT_3D('',#1943,#1531,#1532);
#1260=AXIS2_PLACEMENT_3D('',#1946,#1533,#1534);
#1261=AXIS2_PLACEMENT_3D('',#1949,#1537,#1538);
#1262=AXIS2_PLACEMENT_3D('',#1952,#1539,#1540);
#1263=AXIS2_PLACEMENT_3D('',#1953,#1541,#1542);
#1264=AXIS2_PLACEMENT_3D('',#1954,#1543,#1544);
#1265=AXIS2_PLACEMENT_3D('',#1955,#1545,#1546);
#1266=AXIS2_PLACEMENT_3D('',#1958,#1547,#1548);
#1267=AXIS2_PLACEMENT_3D('',#1961,#1551,#1552);
#1268=AXIS2_PLACEMENT_3D('',#1964,#1553,#1554);
#1269=AXIS2_PLACEMENT_3D('',#1965,#1555,#1556);
#1270=AXIS2_PLACEMENT_3D('',#1966,#1557,#1558);
#1271=AXIS2_PLACEMENT_3D('',#1967,#1559,#1560);
#1272=AXIS2_PLACEMENT_3D('',#1970,#1561,#1562);
#1273=AXIS2_PLACEMENT_3D('',#1973,#1565,#1566);
#1274=AXIS2_PLACEMENT_3D('',#1976,#1567,#1568);
#1275=AXIS2_PLACEMENT_3D('',#1977,#1569,#1570);
#1276=AXIS2_PLACEMENT_3D('',#1978,#1571,#1572);
#1277=AXIS2_PLACEMENT_3D('',#1979,#1573,#1574);
#1278=AXIS2_PLACEMENT_3D('',#1982,#1577,#1578);
#1279=AXIS2_PLACEMENT_3D('',#1988,#1582,#1583);
#1280=AXIS2_PLACEMENT_3D('',#1991,#1585,#1586);
#1281=AXIS2_PLACEMENT_3D('',#1992,#1587,#1588);
#1282=AXIS2_PLACEMENT_3D('',#1996,#1591,#1592);
#1283=AXIS2_PLACEMENT_3D('',#1999,#1594,#1595);
#1284=AXIS2_PLACEMENT_3D('',#2000,#1596,#1597);
#1285=AXIS2_PLACEMENT_3D('',#2001,#1598,#1599);
#1286=AXIS2_PLACEMENT_3D('',#2003,#1600,#1601);
#1287=AXIS2_PLACEMENT_3D('',#2005,#1602,#1603);
#1288=AXIS2_PLACEMENT_3D('',#2006,#1604,#1605);
#1289=AXIS2_PLACEMENT_3D('',#2007,#1606,#1607);
#1290=AXIS2_PLACEMENT_3D('',#2009,#1608,#1609);
#1291=AXIS2_PLACEMENT_3D('',#2011,#1611,#1612);
#1292=AXIS2_PLACEMENT_3D('',#2013,#1613,#1614);
#1293=AXIS2_PLACEMENT_3D('',#2014,#1615,#1616);
#1294=AXIS2_PLACEMENT_3D('',#2015,#1617,#1618);
#1295=AXIS2_PLACEMENT_3D('',#2019,#1620,#1621);
#1296=AXIS2_PLACEMENT_3D('',#2021,#1623,#1624);
#1297=AXIS2_PLACEMENT_3D('',#2023,#1626,#1627);
#1298=AXIS2_PLACEMENT_3D('',#2026,#1628,#1629);
#1299=AXIS2_PLACEMENT_3D('',#2027,#1630,#1631);
#1300=AXIS2_PLACEMENT_3D('',#2028,#1632,#1633);
#1301=AXIS2_PLACEMENT_3D('',#2029,#1634,#1635);
#1302=AXIS2_PLACEMENT_3D('',#2031,#1637,#1638);
#1303=AXIS2_PLACEMENT_3D('',#2035,#1640,#1641);
#1304=AXIS2_PLACEMENT_3D('',#2037,#1643,#1644);
#1305=AXIS2_PLACEMENT_3D('',#2039,#1646,#1647);
#1306=AXIS2_PLACEMENT_3D('',#2041,#1648,#1649);
#1307=AXIS2_PLACEMENT_3D('',#2042,#1650,#1651);
#1308=AXIS2_PLACEMENT_3D('',#2043,#1652,#1653);
#1309=AXIS2_PLACEMENT_3D('',#2044,#1654,#1655);
#1310=AXIS2_PLACEMENT_3D('',#2045,#1656,#1657);
#1311=AXIS2_PLACEMENT_3D('',#2047,#1659,#1660);
#1312=AXIS2_PLACEMENT_3D('',#2049,#1661,#1662);
#1313=AXIS2_PLACEMENT_3D('',#2050,#1663,#1664);
#1314=AXIS2_PLACEMENT_3D('',#2052,#1665,#1666);
#1315=AXIS2_PLACEMENT_3D('',#2054,#1667,#1668);
#1316=AXIS2_PLACEMENT_3D('',#2055,#1669,#1670);
#1317=AXIS2_PLACEMENT_3D('',#2056,#1671,#1672);
#1318=AXIS2_PLACEMENT_3D('',#2059,#1673,#1674);
#1319=AXIS2_PLACEMENT_3D('',#2061,#1676,#1677);
#1320=AXIS2_PLACEMENT_3D('',#2062,#1678,#1679);
#1321=AXIS2_PLACEMENT_3D('',#2064,#1680,#1681);
#1322=AXIS2_PLACEMENT_3D('',#2065,#1682,#1683);
#1323=AXIS2_PLACEMENT_3D('',#2066,#1684,#1685);
#1324=DIRECTION('axis',(0.,0.,1.));
#1325=DIRECTION('refdir',(1.,0.,0.));
#1326=DIRECTION('center_axis',(0.832050294337844,0.,-0.554700196225229));
#1327=DIRECTION('ref_axis',(-0.554700196225229,0.,-0.832050294337844));
#1328=DIRECTION('',(0.,1.,0.));
#1329=DIRECTION('',(0.485071250072666,-0.485071250072666,0.727606875108999));
#1330=DIRECTION('',(0.,-1.,0.));
#1331=DIRECTION('',(-0.485071250072665,0.485071250072666,-0.727606875108999));
#1332=DIRECTION('center_axis',(0.,-0.832050294337844,-0.554700196225229));
#1333=DIRECTION('ref_axis',(-1.,0.,0.));
#1334=DIRECTION('',(1.,0.,0.));
#1335=DIRECTION('',(-0.485071250072666,-0.485071250072666,0.727606875108999));
#1336=DIRECTION('',(-1.,0.,0.));
#1337=DIRECTION('center_axis',(-0.832050294337844,0.,-0.554700196225229));
#1338=DIRECTION('ref_axis',(-0.554700196225229,0.,0.832050294337844));
#1339=DIRECTION('',(0.,-1.,0.));
#1340=DIRECTION('',(-0.485071250072666,-0.485071250072666,0.727606875108999));
#1341=DIRECTION('',(0.,1.,0.));
#1342=DIRECTION('center_axis',(0.,-0.832050294337844,-0.554700196225229));
#1343=DIRECTION('ref_axis',(-1.,0.,0.));
#1344=DIRECTION('',(1.,0.,0.));
#1345=DIRECTION('',(-0.485071250072666,-0.485071250072666,0.727606875108999));
#1346=DIRECTION('',(-1.,0.,0.));
#1347=DIRECTION('center_axis',(-0.832050294337844,0.,-0.554700196225229));
#1348=DIRECTION('ref_axis',(-0.554700196225229,0.,0.832050294337844));
#1349=DIRECTION('',(0.,-1.,0.));
#1350=DIRECTION('',(-0.485071250072666,0.485071250072666,0.727606875108999));
#1351=DIRECTION('',(0.,1.,0.));
#1352=DIRECTION('center_axis',(0.,0.832050294337844,-0.554700196225229));
#1353=DIRECTION('ref_axis',(-1.,0.,0.));
#1354=DIRECTION('',(-1.,0.,0.));
#1355=DIRECTION('',(-0.485071250072665,0.485071250072666,0.727606875108999));
#1356=DIRECTION('',(1.,0.,0.));
#1357=DIRECTION('center_axis',(-0.832050294337844,0.,-0.554700196225229));
#1358=DIRECTION('ref_axis',(-0.554700196225229,0.,0.832050294337844));
#1359=DIRECTION('',(0.,1.,0.));
#1360=DIRECTION('',(0.,-1.,0.));
#1361=DIRECTION('',(-0.485071250072666,0.485071250072666,0.727606875108999));
#1362=DIRECTION('center_axis',(0.,0.832050294337844,-0.554700196225229));
#1363=DIRECTION('ref_axis',(-1.,0.,0.));
#1364=DIRECTION('',(1.,0.,0.));
#1365=DIRECTION('',(-1.,0.,0.));
#1366=DIRECTION('',(0.485071250072666,0.485071250072666,0.727606875108999));
#1367=DIRECTION('center_axis',(0.832050294337844,0.,-0.554700196225229));
#1368=DIRECTION('ref_axis',(-0.554700196225229,0.,-0.832050294337844));
#1369=DIRECTION('',(0.,-1.,0.));
#1370=DIRECTION('',(0.,1.,0.));
#1371=DIRECTION('',(0.485071250072666,0.485071250072666,0.727606875108999));
#1372=DIRECTION('center_axis',(0.,0.832050294337844,-0.554700196225229));
#1373=DIRECTION('ref_axis',(-1.,0.,0.));
#1374=DIRECTION('',(1.,0.,0.));
#1375=DIRECTION('',(-1.,0.,0.));
#1376=DIRECTION('',(0.485071250072666,0.485071250072666,0.727606875108999));
#1377=DIRECTION('center_axis',(0.832050294337844,0.,-0.554700196225229));
#1378=DIRECTION('ref_axis',(-0.554700196225229,0.,-0.832050294337844));
#1379=DIRECTION('',(0.,-1.,0.));
#1380=DIRECTION('',(0.,1.,0.));
#1381=DIRECTION('',(0.485071250072666,-0.485071250072666,0.727606875108999));
#1382=DIRECTION('center_axis',(0.,-0.832050294337844,-0.554700196225229));
#1383=DIRECTION('ref_axis',(-1.,0.,0.));
#1384=DIRECTION('',(1.,0.,0.));
#1385=DIRECTION('',(-1.,0.,0.));
#1386=DIRECTION('center_axis',(0.,-1.,0.));
#1387=DIRECTION('ref_axis',(1.,0.,0.));
#1388=DIRECTION('',(0.,0.,1.));
#1389=DIRECTION('',(1.,0.,0.));
#1390=DIRECTION('',(0.,0.,1.));
#1391=DIRECTION('center_axis',(-1.,0.,0.));
#1392=DIRECTION('ref_axis',(0.,-1.,0.));
#1393=DIRECTION('',(0.,0.,1.));
#1394=DIRECTION('',(0.,-1.,0.));
#1395=DIRECTION('center_axis',(0.,-1.,0.));
#1396=DIRECTION('ref_axis',(1.,0.,0.));
#1397=DIRECTION('',(0.,0.,1.));
#1398=DIRECTION('',(1.,0.,0.));
#1399=DIRECTION('center_axis',(-1.,0.,0.));
#1400=DIRECTION('ref_axis',(0.,-1.,0.));
#1401=DIRECTION('',(0.,0.,1.));
#1402=DIRECTION('',(0.,-1.,0.));
#1403=DIRECTION('center_axis',(0.,1.,0.));
#1404=DIRECTION('ref_axis',(-1.,0.,0.));
#1405=DIRECTION('',(0.,0.,1.));
#1406=DIRECTION('',(-1.,0.,0.));
#1407=DIRECTION('center_axis',(-1.,0.,0.));
#1408=DIRECTION('ref_axis',(0.,-1.,0.));
#1409=DIRECTION('',(0.,0.,1.));
#1410=DIRECTION('',(0.,-1.,0.));
#1411=DIRECTION('center_axis',(0.,0.,-1.));
#1412=DIRECTION('ref_axis',(1.,0.,0.));
#1413=DIRECTION('center_axis',(0.,0.,-1.));
#1414=DIRECTION('ref_axis',(1.,0.,0.));
#1415=DIRECTION('center_axis',(0.,1.,0.));
#1416=DIRECTION('ref_axis',(-1.,0.,0.));
#1417=DIRECTION('',(0.,0.,1.));
#1418=DIRECTION('',(-1.,0.,0.));
#1419=DIRECTION('center_axis',(1.,0.,0.));
#1420=DIRECTION('ref_axis',(0.,1.,0.));
#1421=DIRECTION('',(0.,0.,1.));
#1422=DIRECTION('',(0.,1.,0.));
#1423=DIRECTION('center_axis',(0.,1.,0.));
#1424=DIRECTION('ref_axis',(-1.,0.,0.));
#1425=DIRECTION('',(0.,0.,1.));
#1426=DIRECTION('',(-1.,0.,0.));
#1427=DIRECTION('center_axis',(1.,0.,0.));
#1428=DIRECTION('ref_axis',(0.,1.,0.));
#1429=DIRECTION('',(0.,0.,1.));
#1430=DIRECTION('',(0.,1.,0.));
#1431=DIRECTION('center_axis',(0.,-1.,0.));
#1432=DIRECTION('ref_axis',(1.,0.,0.));
#1433=DIRECTION('',(0.,0.,1.));
#1434=DIRECTION('',(1.,0.,0.));
#1435=DIRECTION('center_axis',(1.,0.,0.));
#1436=DIRECTION('ref_axis',(0.,1.,0.));
#1437=DIRECTION('',(0.,1.,0.));
#1438=DIRECTION('center_axis',(0.,0.,1.));
#1439=DIRECTION('ref_axis',(1.,0.,0.));
#1440=DIRECTION('center_axis',(0.,0.,-1.));
#1441=DIRECTION('ref_axis',(1.,0.,0.));
#1442=DIRECTION('',(0.,0.,1.));
#1443=DIRECTION('center_axis',(0.,0.,1.));
#1444=DIRECTION('ref_axis',(1.,0.,0.));
#1445=DIRECTION('center_axis',(-6.06679248429047E-17,-1.,0.));
#1446=DIRECTION('ref_axis',(1.,-6.06679248429047E-17,0.));
#1447=DIRECTION('',(-1.,6.06679248429047E-17,0.));
#1448=DIRECTION('',(0.,0.,-1.));
#1449=DIRECTION('',(1.,-6.06679248429047E-17,0.));
#1450=DIRECTION('',(0.,0.,1.));
#1451=DIRECTION('',(-1.,6.06679248429047E-17,0.));
#1452=DIRECTION('center_axis',(0.,0.,1.));
#1453=DIRECTION('ref_axis',(1.,0.,0.));
#1454=DIRECTION('center_axis',(0.,0.,1.));
#1455=DIRECTION('ref_axis',(-1.,0.,0.));
#1456=DIRECTION('center_axis',(-1.22464679914735E-16,1.,0.));
#1457=DIRECTION('ref_axis',(-1.,-1.22464679914735E-16,0.));
#1458=DIRECTION('center_axis',(0.,0.,1.));
#1459=DIRECTION('ref_axis',(-1.,0.,0.));
#1460=DIRECTION('center_axis',(0.,0.,1.));
#1461=DIRECTION('ref_axis',(-1.,0.,0.));
#1462=DIRECTION('center_axis',(0.,0.,1.));
#1463=DIRECTION('ref_axis',(-1.,0.,0.));
#1464=DIRECTION('center_axis',(0.,0.,1.));
#1465=DIRECTION('ref_axis',(-1.,0.,0.));
#1466=DIRECTION('center_axis',(0.,1.,0.));
#1467=DIRECTION('ref_axis',(-1.,0.,0.));
#1468=DIRECTION('',(1.,0.,0.));
#1469=DIRECTION('',(0.,0.,-1.));
#1470=DIRECTION('',(-1.,0.,0.));
#1471=DIRECTION('',(0.,0.,1.));
#1472=DIRECTION('',(1.,0.,0.));
#1473=DIRECTION('center_axis',(-1.,-2.42671699371619E-16,0.));
#1474=DIRECTION('ref_axis',(2.42671699371619E-16,-1.,0.));
#1475=DIRECTION('',(-2.42671699371619E-16,1.,0.));
#1476=DIRECTION('',(0.,0.,-1.));
#1477=DIRECTION('',(2.42671699371619E-16,-1.,0.));
#1478=DIRECTION('',(0.,0.,1.));
#1479=DIRECTION('',(-2.42671699371619E-16,1.,0.));
#1480=DIRECTION('center_axis',(1.,1.21335849685809E-16,0.));
#1481=DIRECTION('ref_axis',(-1.21335849685809E-16,1.,0.));
#1482=DIRECTION('',(1.21335849685809E-16,-1.,0.));
#1483=DIRECTION('',(0.,0.,-1.));
#1484=DIRECTION('',(-1.21335849685809E-16,1.,0.));
#1485=DIRECTION('',(0.,0.,1.));
#1486=DIRECTION('',(1.21335849685809E-16,-1.,0.));
#1487=DIRECTION('center_axis',(0.,0.,1.));
#1488=DIRECTION('ref_axis',(-1.,0.,0.));
#1489=DIRECTION('center_axis',(0.,0.,-1.));
#1490=DIRECTION('ref_axis',(0.707106781186548,-0.707106781186548,0.));
#1491=DIRECTION('center_axis',(0.,0.,1.));
#1492=DIRECTION('ref_axis',(-1.,0.,0.));
#1493=DIRECTION('center_axis',(0.,0.,-1.));
#1494=DIRECTION('ref_axis',(0.707106781186548,0.707106781186547,0.));
#1495=DIRECTION('center_axis',(0.,0.,1.));
#1496=DIRECTION('ref_axis',(-1.,0.,0.));
#1497=DIRECTION('center_axis',(0.,0.,-1.));
#1498=DIRECTION('ref_axis',(-0.707106781186547,0.707106781186548,0.));
#1499=DIRECTION('center_axis',(0.,0.,1.));
#1500=DIRECTION('ref_axis',(-0.707106781186548,-0.707106781186548,0.));
#1501=DIRECTION('center_axis',(0.,0.,-1.));
#1502=DIRECTION('ref_axis',(-0.707106781186548,-0.707106781186548,0.));
#1503=DIRECTION('center_axis',(0.,0.,1.));
#1504=DIRECTION('ref_axis',(-0.707106781186548,-0.707106781186548,0.));
#1505=DIRECTION('center_axis',(0.,0.,1.));
#1506=DIRECTION('ref_axis',(0.707106781186548,-0.707106781186548,0.));
#1507=DIRECTION('center_axis',(0.,0.,1.));
#1508=DIRECTION('ref_axis',(0.707106781186548,-0.707106781186548,0.));
#1509=DIRECTION('center_axis',(0.,0.,1.));
#1510=DIRECTION('ref_axis',(-0.707106781186547,0.707106781186548,0.));
#1511=DIRECTION('center_axis',(0.,0.,1.));
#1512=DIRECTION('ref_axis',(-0.707106781186547,0.707106781186548,0.));
#1513=DIRECTION('center_axis',(0.,0.,1.));
#1514=DIRECTION('ref_axis',(0.707106781186548,0.707106781186547,0.));
#1515=DIRECTION('center_axis',(0.,0.,1.));
#1516=DIRECTION('ref_axis',(0.707106781186548,0.707106781186547,0.));
#1517=DIRECTION('center_axis',(0.,0.,1.));
#1518=DIRECTION('ref_axis',(-1.,0.,0.));
#1519=DIRECTION('center_axis',(0.,0.,1.));
#1520=DIRECTION('ref_axis',(1.,0.,0.));
#1521=DIRECTION('center_axis',(0.,0.,1.));
#1522=DIRECTION('ref_axis',(1.,0.,0.));
#1523=DIRECTION('center_axis',(-1.,0.,0.));
#1524=DIRECTION('ref_axis',(0.,1.,0.));
#1525=DIRECTION('center_axis',(0.,0.,1.));
#1526=DIRECTION('ref_axis',(-0.707106781186547,0.707106781186547,0.));
#1527=DIRECTION('center_axis',(0.,1.,0.));
#1528=DIRECTION('ref_axis',(0.,0.,-1.));
#1529=DIRECTION('center_axis',(0.,0.,-1.));
#1530=DIRECTION('ref_axis',(-0.707106781186547,0.707106781186547,0.));
#1531=DIRECTION('center_axis',(-2.42671699371619E-16,1.,0.));
#1532=DIRECTION('ref_axis',(-0.707106781186548,0.,-0.707106781186547));
#1533=DIRECTION('center_axis',(7.93016446160819E-15,1.,0.));
#1534=DIRECTION('ref_axis',(0.,0.,-1.));
#1535=DIRECTION('',(-2.42671699371619E-16,1.,0.));
#1536=DIRECTION('',(2.42671699371619E-16,-1.,0.));
#1537=DIRECTION('center_axis',(0.,0.,1.));
#1538=DIRECTION('ref_axis',(1.,0.,0.));
#1539=DIRECTION('center_axis',(-1.,0.,0.));
#1540=DIRECTION('ref_axis',(0.,0.,-1.));
#1541=DIRECTION('center_axis',(0.,0.,-1.));
#1542=DIRECTION('ref_axis',(-0.707106781186547,-0.707106781186547,0.));
#1543=DIRECTION('center_axis',(0.,0.,1.));
#1544=DIRECTION('ref_axis',(-0.707106781186548,-0.707106781186548,0.));
#1545=DIRECTION('center_axis',(-1.,6.06679248429047E-17,0.));
#1546=DIRECTION('ref_axis',(0.,-0.707106781186548,-0.707106781186547));
#1547=DIRECTION('center_axis',(-1.,0.,0.));
#1548=DIRECTION('ref_axis',(0.,0.,-1.));
#1549=DIRECTION('',(-1.,6.06679248429047E-17,0.));
#1550=DIRECTION('',(1.,-6.06679248429047E-17,0.));
#1551=DIRECTION('center_axis',(0.,0.,1.));
#1552=DIRECTION('ref_axis',(1.,0.,0.));
#1553=DIRECTION('center_axis',(0.,-1.,0.));
#1554=DIRECTION('ref_axis',(0.,0.,-1.));
#1555=DIRECTION('center_axis',(0.,0.,-1.));
#1556=DIRECTION('ref_axis',(0.707106781186547,-0.707106781186547,0.));
#1557=DIRECTION('center_axis',(0.,0.,1.));
#1558=DIRECTION('ref_axis',(0.707106781186548,-0.707106781186548,0.));
#1559=DIRECTION('center_axis',(1.21335849685809E-16,-1.,0.));
#1560=DIRECTION('ref_axis',(0.707106781186548,0.,-0.707106781186547));
#1561=DIRECTION('center_axis',(7.93016446160825E-15,-1.,0.));
#1562=DIRECTION('ref_axis',(0.,0.,-1.));
#1563=DIRECTION('',(1.21335849685809E-16,-1.,0.));
#1564=DIRECTION('',(-1.21335849685809E-16,1.,0.));
#1565=DIRECTION('center_axis',(0.,0.,1.));
#1566=DIRECTION('ref_axis',(1.,0.,0.));
#1567=DIRECTION('center_axis',(1.,0.,0.));
#1568=DIRECTION('ref_axis',(0.,0.,-1.));
#1569=DIRECTION('center_axis',(0.,0.,-1.));
#1570=DIRECTION('ref_axis',(0.707106781186547,0.707106781186547,0.));
#1571=DIRECTION('center_axis',(0.,0.,1.));
#1572=DIRECTION('ref_axis',(0.707106781186547,0.707106781186547,0.));
#1573=DIRECTION('center_axis',(1.,0.,0.));
#1574=DIRECTION('ref_axis',(0.,0.707106781186548,-0.707106781186547));
#1575=DIRECTION('',(-1.,0.,0.));
#1576=DIRECTION('',(1.,0.,0.));
#1577=DIRECTION('center_axis',(1.,1.21335849685809E-16,0.));
#1578=DIRECTION('ref_axis',(-1.21335849685809E-16,1.,0.));
#1579=DIRECTION('',(0.,0.,-1.));
#1580=DIRECTION('',(-1.21335849685809E-16,1.,0.));
#1581=DIRECTION('',(0.,0.,1.));
#1582=DIRECTION('center_axis',(0.,0.,1.));
#1583=DIRECTION('ref_axis',(0.707106781186548,0.707106781186547,0.));
#1584=DIRECTION('',(0.,0.,1.));
#1585=DIRECTION('center_axis',(0.,0.,1.));
#1586=DIRECTION('ref_axis',(0.707106781186547,0.707106781186548,0.));
#1587=DIRECTION('center_axis',(0.,1.,0.));
#1588=DIRECTION('ref_axis',(-1.,0.,0.));
#1589=DIRECTION('',(0.,0.,-1.));
#1590=DIRECTION('',(-1.,0.,0.));
#1591=DIRECTION('center_axis',(0.,0.,1.));
#1592=DIRECTION('ref_axis',(-0.707106781186547,0.707106781186548,0.));
#1593=DIRECTION('',(0.,0.,1.));
#1594=DIRECTION('center_axis',(0.,0.,1.));
#1595=DIRECTION('ref_axis',(-0.707106781186547,0.707106781186548,0.));
#1596=DIRECTION('center_axis',(0.,0.,1.));
#1597=DIRECTION('ref_axis',(1.,0.,0.));
#1598=DIRECTION('center_axis',(0.,0.,1.));
#1599=DIRECTION('ref_axis',(1.,0.,0.));
#1600=DIRECTION('center_axis',(1.,0.,0.));
#1601=DIRECTION('ref_axis',(0.,1.,0.));
#1602=DIRECTION('center_axis',(0.,0.,-1.));
#1603=DIRECTION('ref_axis',(0.707106781186547,0.707106781186548,0.));
#1604=DIRECTION('center_axis',(0.,1.,0.));
#1605=DIRECTION('ref_axis',(3.70074341541719E-15,0.,1.));
#1606=DIRECTION('center_axis',(1.,0.,0.));
#1607=DIRECTION('ref_axis',(0.,0.707106781186547,0.707106781186547));
#1608=DIRECTION('center_axis',(-1.,0.,0.));
#1609=DIRECTION('ref_axis',(0.,7.40148683083437E-15,1.));
#1610=DIRECTION('',(1.,0.,0.));
#1611=DIRECTION('center_axis',(0.,0.,1.));
#1612=DIRECTION('ref_axis',(1.,0.,0.));
#1613=DIRECTION('center_axis',(0.,1.,0.));
#1614=DIRECTION('ref_axis',(-1.,0.,0.));
#1615=DIRECTION('center_axis',(0.,0.,-1.));
#1616=DIRECTION('ref_axis',(-0.707106781186547,0.707106781186548,0.));
#1617=DIRECTION('center_axis',(-2.42671699371619E-16,1.,0.));
#1618=DIRECTION('ref_axis',(-0.707106781186547,0.,0.707106781186547));
#1619=DIRECTION('',(2.42671699371619E-16,-1.,0.));
#1620=DIRECTION('center_axis',(0.,-1.,0.));
#1621=DIRECTION('ref_axis',(-3.70074341541719E-15,0.,1.));
#1622=DIRECTION('',(-2.42671699371619E-16,1.,0.));
#1623=DIRECTION('center_axis',(-1.,-2.42671699371619E-16,0.));
#1624=DIRECTION('ref_axis',(2.42671699371619E-16,-1.,0.));
#1625=DIRECTION('',(0.,0.,-1.));
#1626=DIRECTION('center_axis',(0.,0.,1.));
#1627=DIRECTION('ref_axis',(1.,0.,0.));
#1628=DIRECTION('center_axis',(-1.,0.,0.));
#1629=DIRECTION('ref_axis',(0.,-1.,0.));
#1630=DIRECTION('center_axis',(0.,0.,-1.));
#1631=DIRECTION('ref_axis',(-0.707106781186548,-0.707106781186548,0.));
#1632=DIRECTION('center_axis',(0.,0.,1.));
#1633=DIRECTION('ref_axis',(-0.707106781186547,-0.707106781186547,0.));
#1634=DIRECTION('center_axis',(0.,0.,1.));
#1635=DIRECTION('ref_axis',(-0.707106781186547,-0.707106781186547,0.));
#1636=DIRECTION('',(0.,0.,1.));
#1637=DIRECTION('center_axis',(-1.,6.06679248429047E-17,0.));
#1638=DIRECTION('ref_axis',(0.,-0.707106781186547,0.707106781186547));
#1639=DIRECTION('',(1.,-6.06679248429047E-17,0.));
#1640=DIRECTION('center_axis',(1.,0.,0.));
#1641=DIRECTION('ref_axis',(0.,-7.40148683083437E-15,1.));
#1642=DIRECTION('',(-1.,6.06679248429047E-17,0.));
#1643=DIRECTION('center_axis',(-6.06679248429047E-17,-1.,0.));
#1644=DIRECTION('ref_axis',(1.,-6.06679248429047E-17,0.));
#1645=DIRECTION('',(0.,0.,-1.));
#1646=DIRECTION('center_axis',(0.,0.,1.));
#1647=DIRECTION('ref_axis',(1.,0.,0.));
#1648=DIRECTION('center_axis',(0.,-1.,0.));
#1649=DIRECTION('ref_axis',(1.,0.,0.));
#1650=DIRECTION('center_axis',(0.,0.,-1.));
#1651=DIRECTION('ref_axis',(0.707106781186547,-0.707106781186548,0.));
#1652=DIRECTION('center_axis',(0.,0.,1.));
#1653=DIRECTION('ref_axis',(0.707106781186547,-0.707106781186548,0.));
#1654=DIRECTION('center_axis',(0.,0.,1.));
#1655=DIRECTION('ref_axis',(0.707106781186547,-0.707106781186547,0.));
#1656=DIRECTION('center_axis',(1.21335849685809E-16,-1.,0.));
#1657=DIRECTION('ref_axis',(0.707106781186547,0.,0.707106781186547));
#1658=DIRECTION('',(1.21335849685809E-16,-1.,0.));
#1659=DIRECTION('center_axis',(0.,0.,1.));
#1660=DIRECTION('ref_axis',(-1.,0.,0.));
#1661=DIRECTION('center_axis',(0.,0.,1.));
#1662=DIRECTION('ref_axis',(-1.,0.,0.));
#1663=DIRECTION('center_axis',(0.,0.,1.));
#1664=DIRECTION('ref_axis',(1.,0.,0.));
#1665=DIRECTION('center_axis',(1.22464679914735E-16,-1.,0.));
#1666=DIRECTION('ref_axis',(-1.,-1.22464679914735E-16,0.));
#1667=DIRECTION('center_axis',(0.,0.,-1.));
#1668=DIRECTION('ref_axis',(-1.,0.,0.));
#1669=DIRECTION('center_axis',(0.,0.,-1.));
#1670=DIRECTION('ref_axis',(-1.,0.,0.));
#1671=DIRECTION('center_axis',(0.,0.,-1.));
#1672=DIRECTION('ref_axis',(-1.,0.,0.));
#1673=DIRECTION('center_axis',(0.,0.,1.));
#1674=DIRECTION('ref_axis',(-1.,0.,0.));
#1675=DIRECTION('',(0.,0.,-1.));
#1676=DIRECTION('center_axis',(0.,0.,1.));
#1677=DIRECTION('ref_axis',(-1.,0.,0.));
#1678=DIRECTION('center_axis',(0.,0.,1.));
#1679=DIRECTION('ref_axis',(1.,0.,0.));
#1680=DIRECTION('center_axis',(0.,0.,-1.));
#1681=DIRECTION('ref_axis',(-1.,0.,0.));
#1682=DIRECTION('center_axis',(1.22464679914735E-16,-1.,0.));
#1683=DIRECTION('ref_axis',(-1.,-1.22464679914735E-16,0.));
#1684=DIRECTION('center_axis',(0.,0.,1.));
#1685=DIRECTION('ref_axis',(1.,0.,0.));
#1686=CARTESIAN_POINT('',(0.,0.,0.));
#1687=CARTESIAN_POINT('Origin',(-0.725,1.0375,0.15));
#1688=CARTESIAN_POINT('',(-0.825,0.825,0.));
#1689=CARTESIAN_POINT('',(-0.825,2.275,0.));
#1690=CARTESIAN_POINT('',(-0.825,1.0375,0.));
#1691=CARTESIAN_POINT('',(-0.625,2.075,0.3));
#1692=CARTESIAN_POINT('',(-0.825,2.275,0.));
#1693=CARTESIAN_POINT('',(-0.625,0.625,0.3));
#1694=CARTESIAN_POINT('',(-0.625,1.0375,0.3));
#1695=CARTESIAN_POINT('',(-0.625,0.625,0.3));
#1696=CARTESIAN_POINT('Origin',(0.3125,2.175,0.15));
#1697=CARTESIAN_POINT('',(0.825,2.275,0.));
#1698=CARTESIAN_POINT('',(0.3125,2.275,0.));
#1699=CARTESIAN_POINT('',(0.625,2.075,0.3));
#1700=CARTESIAN_POINT('',(0.825,2.275,0.));
#1701=CARTESIAN_POINT('',(0.3125,2.075,0.3));
#1702=CARTESIAN_POINT('Origin',(0.725,0.3125,0.15));
#1703=CARTESIAN_POINT('',(0.825,0.825,0.));
#1704=CARTESIAN_POINT('',(0.825,0.3125,0.));
#1705=CARTESIAN_POINT('',(0.625,0.625,0.3));
#1706=CARTESIAN_POINT('',(0.825,0.825,0.));
#1707=CARTESIAN_POINT('',(0.625,0.3125,0.3));
#1708=CARTESIAN_POINT('Origin',(1.0375,0.725,0.15));
#1709=CARTESIAN_POINT('',(2.275,0.825,0.));
#1710=CARTESIAN_POINT('',(1.0375,0.825,0.));
#1711=CARTESIAN_POINT('',(2.075,0.625,0.3));
#1712=CARTESIAN_POINT('',(2.275,0.825,0.));
#1713=CARTESIAN_POINT('',(1.0375,0.625,0.3));
#1714=CARTESIAN_POINT('Origin',(2.175,-0.3125,0.15));
#1715=CARTESIAN_POINT('',(2.275,-0.825,0.));
#1716=CARTESIAN_POINT('',(2.275,-0.3125,0.));
#1717=CARTESIAN_POINT('',(2.075,-0.625,0.3));
#1718=CARTESIAN_POINT('',(2.275,-0.825,0.));
#1719=CARTESIAN_POINT('',(2.075,-0.3125,0.3));
#1720=CARTESIAN_POINT('Origin',(0.3125,-0.725,0.15));
#1721=CARTESIAN_POINT('',(0.825,-0.825,0.));
#1722=CARTESIAN_POINT('',(0.3125,-0.825,0.));
#1723=CARTESIAN_POINT('',(0.625,-0.625,0.3));
#1724=CARTESIAN_POINT('',(0.825,-0.825,0.));
#1725=CARTESIAN_POINT('',(0.3125,-0.625,0.3));
#1726=CARTESIAN_POINT('Origin',(0.725,-1.0375,0.15));
#1727=CARTESIAN_POINT('',(0.625,-2.075,0.3));
#1728=CARTESIAN_POINT('',(0.625,-1.0375,0.3));
#1729=CARTESIAN_POINT('',(0.825,-2.275,0.));
#1730=CARTESIAN_POINT('',(0.825,-1.0375,0.));
#1731=CARTESIAN_POINT('',(0.825,-2.275,0.));
#1732=CARTESIAN_POINT('Origin',(-0.3125,-2.175,0.15));
#1733=CARTESIAN_POINT('',(-0.625,-2.075,0.3));
#1734=CARTESIAN_POINT('',(-0.3125,-2.075,0.3));
#1735=CARTESIAN_POINT('',(-0.825,-2.275,0.));
#1736=CARTESIAN_POINT('',(-0.3125,-2.275,0.));
#1737=CARTESIAN_POINT('',(-0.825,-2.275,0.));
#1738=CARTESIAN_POINT('Origin',(-0.725,-0.3125,0.15));
#1739=CARTESIAN_POINT('',(-0.625,-0.625,0.3));
#1740=CARTESIAN_POINT('',(-0.625,-0.3125,0.3));
#1741=CARTESIAN_POINT('',(-0.825,-0.825,0.));
#1742=CARTESIAN_POINT('',(-0.825,-0.3125,0.));
#1743=CARTESIAN_POINT('',(-0.825,-0.825,0.));
#1744=CARTESIAN_POINT('Origin',(-1.0375,-0.725,0.15));
#1745=CARTESIAN_POINT('',(-2.075,-0.625,0.3));
#1746=CARTESIAN_POINT('',(-1.0375,-0.625,0.3));
#1747=CARTESIAN_POINT('',(-2.275,-0.825,0.));
#1748=CARTESIAN_POINT('',(-1.0375,-0.825,0.));
#1749=CARTESIAN_POINT('',(-2.275,-0.825,0.));
#1750=CARTESIAN_POINT('Origin',(-2.175,0.3125,0.15));
#1751=CARTESIAN_POINT('',(-2.075,0.625,0.3));
#1752=CARTESIAN_POINT('',(-2.075,0.3125,0.3));
#1753=CARTESIAN_POINT('',(-2.275,0.825,0.));
#1754=CARTESIAN_POINT('',(-2.275,0.3125,0.));
#1755=CARTESIAN_POINT('',(-2.275,0.825,0.));
#1756=CARTESIAN_POINT('Origin',(-0.3125,0.725,0.15));
#1757=CARTESIAN_POINT('',(-0.3125,0.825,0.));
#1758=CARTESIAN_POINT('',(-0.3125,0.625,0.3));
#1759=CARTESIAN_POINT('Origin',(-0.625,-2.075,0.));
#1760=CARTESIAN_POINT('',(-0.625,-2.075,4.5));
#1761=CARTESIAN_POINT('',(-0.625,-2.075,0.));
#1762=CARTESIAN_POINT('',(0.625,-2.075,4.5));
#1763=CARTESIAN_POINT('',(-0.625,-2.075,4.5));
#1764=CARTESIAN_POINT('',(0.625,-2.075,0.));
#1765=CARTESIAN_POINT('Origin',(-0.625,-0.625,0.));
#1766=CARTESIAN_POINT('',(-0.625,-0.625,4.5));
#1767=CARTESIAN_POINT('',(-0.625,-0.625,0.));
#1768=CARTESIAN_POINT('',(-0.625,2.075,4.5));
#1769=CARTESIAN_POINT('Origin',(-2.075,-0.625,0.));
#1770=CARTESIAN_POINT('',(-2.075,-0.625,4.5));
#1771=CARTESIAN_POINT('',(-2.075,-0.625,0.));
#1772=CARTESIAN_POINT('',(-2.075,-0.625,4.5));
#1773=CARTESIAN_POINT('Origin',(-2.075,0.625,0.));
#1774=CARTESIAN_POINT('',(-2.075,0.625,4.5));
#1775=CARTESIAN_POINT('',(-2.075,0.625,0.));
#1776=CARTESIAN_POINT('',(-2.075,0.625,4.5));
#1777=CARTESIAN_POINT('Origin',(-0.625,0.625,0.));
#1778=CARTESIAN_POINT('',(-0.625,0.625,4.5));
#1779=CARTESIAN_POINT('',(-0.625,0.625,0.));
#1780=CARTESIAN_POINT('',(2.075,0.625,4.5));
#1781=CARTESIAN_POINT('Origin',(-0.625,2.075,0.));
#1782=CARTESIAN_POINT('',(-0.625,2.075,4.5));
#1783=CARTESIAN_POINT('',(-0.625,2.075,0.));
#1784=CARTESIAN_POINT('',(-0.625,2.075,4.5));
#1785=CARTESIAN_POINT('Origin',(0.,0.,0.));
#1786=CARTESIAN_POINT('',(-2.75,3.36777869765522E-16,0.));
#1787=CARTESIAN_POINT('Origin',(0.,0.,0.));
#1788=CARTESIAN_POINT('Origin',(0.625,2.075,0.));
#1789=CARTESIAN_POINT('',(0.625,2.075,4.5));
#1790=CARTESIAN_POINT('',(0.625,2.075,0.));
#1791=CARTESIAN_POINT('',(0.625,2.075,4.5));
#1792=CARTESIAN_POINT('Origin',(0.625,0.625,0.));
#1793=CARTESIAN_POINT('',(0.625,0.625,4.5));
#1794=CARTESIAN_POINT('',(0.625,0.625,0.));
#1795=CARTESIAN_POINT('',(0.625,-2.075,4.5));
#1796=CARTESIAN_POINT('Origin',(2.075,0.625,0.));
#1797=CARTESIAN_POINT('',(2.075,0.625,4.5));
#1798=CARTESIAN_POINT('',(2.075,0.625,0.));
#1799=CARTESIAN_POINT('',(2.075,0.625,4.5));
#1800=CARTESIAN_POINT('Origin',(2.075,-0.625,0.));
#1801=CARTESIAN_POINT('',(2.075,-0.625,4.5));
#1802=CARTESIAN_POINT('',(2.075,-0.625,0.));
#1803=CARTESIAN_POINT('',(2.075,-0.625,4.5));
#1804=CARTESIAN_POINT('Origin',(0.625,-0.625,0.));
#1805=CARTESIAN_POINT('',(0.625,-0.625,4.5));
#1806=CARTESIAN_POINT('',(0.625,-0.625,0.));
#1807=CARTESIAN_POINT('',(-2.075,-0.625,4.5));
#1808=CARTESIAN_POINT('Origin',(0.625,-2.075,0.));
#1809=CARTESIAN_POINT('',(0.625,-2.075,4.5));
#1810=CARTESIAN_POINT('Origin',(0.,0.,4.5));
#1811=CARTESIAN_POINT('Origin',(0.,0.,7.));
#1812=CARTESIAN_POINT('',(-2.75,3.36777869765522E-16,7.));
#1813=CARTESIAN_POINT('',(-2.75,3.36777869765522E-16,7.));
#1814=CARTESIAN_POINT('Origin',(0.,0.,7.));
#1815=CARTESIAN_POINT('Origin',(-9.15,-7.65,0.));
#1816=CARTESIAN_POINT('',(-2.50599281722834,-7.65,5.2));
#1817=CARTESIAN_POINT('',(2.50599281722833,-7.65,5.2));
#1818=CARTESIAN_POINT('Ctrl Pts',(-2.50599281722834,-7.65,5.2));
#1819=CARTESIAN_POINT('Ctrl Pts',(-2.27128274449576,-7.65,5.2));
#1820=CARTESIAN_POINT('Ctrl Pts',(-1.98968211665203,-7.65,5.20538374095584));
#1821=CARTESIAN_POINT('Ctrl Pts',(-1.20661943234691,-7.65,5.22508556939372));
#1822=CARTESIAN_POINT('Ctrl Pts',(-0.548600421002145,-7.65,5.24500712252158));
#1823=CARTESIAN_POINT('Ctrl Pts',(-4.64109625048221E-16,-7.65,5.24500712252158));
#1824=CARTESIAN_POINT('Ctrl Pts',(0.548600421002144,-7.65,5.24500712252158));
#1825=CARTESIAN_POINT('Ctrl Pts',(1.20661943234691,-7.65,5.22508556939372));
#1826=CARTESIAN_POINT('Ctrl Pts',(1.98968211665203,-7.65,5.20538374095584));
#1827=CARTESIAN_POINT('Ctrl Pts',(2.27128274449576,-7.65,5.2));
#1828=CARTESIAN_POINT('Ctrl Pts',(2.50599281722834,-7.65,5.2));
#1829=CARTESIAN_POINT('',(7.35,-7.65,5.2));
#1830=CARTESIAN_POINT('',(-4.575,-7.65,5.2));
#1831=CARTESIAN_POINT('',(7.35,-7.65,0.));
#1832=CARTESIAN_POINT('',(7.35,-7.65,0.));
#1833=CARTESIAN_POINT('',(-7.35,-7.65,0.));
#1834=CARTESIAN_POINT('',(-4.575,-7.65,0.));
#1835=CARTESIAN_POINT('',(-7.35,-7.65,5.2));
#1836=CARTESIAN_POINT('',(-7.35,-7.65,0.));
#1837=CARTESIAN_POINT('',(-4.575,-7.65,5.2));
#1838=CARTESIAN_POINT('Origin',(0.,0.,7.));
#1839=CARTESIAN_POINT('',(-6.25,-7.65404249467096E-16,7.));
#1840=CARTESIAN_POINT('Origin',(0.,0.,7.));
#1841=CARTESIAN_POINT('',(-7.65,-1.30109466914273E-15,5.24500712252158));
#1842=CARTESIAN_POINT('Origin',(-8.05,-9.85840673313619E-16,7.));
#1843=CARTESIAN_POINT('',(-7.65,2.50599281722834,5.2));
#1844=CARTESIAN_POINT('Ctrl Pts',(-7.65,2.50599281722834,5.2));
#1845=CARTESIAN_POINT('Ctrl Pts',(-7.65,2.27128274449576,5.2));
#1846=CARTESIAN_POINT('Ctrl Pts',(-7.65,1.98968211665202,5.20538374095584));
#1847=CARTESIAN_POINT('Ctrl Pts',(-7.65,1.20661943234691,5.22508556939372));
#1848=CARTESIAN_POINT('Ctrl Pts',(-7.65,0.548600421002141,5.24500712252158));
#1849=CARTESIAN_POINT('Ctrl Pts',(-7.65,-2.0122792321331E-15,5.24500712252158));
#1850=CARTESIAN_POINT('',(-2.50599281722834,7.65,5.2));
#1851=CARTESIAN_POINT('Origin',(0.,0.,5.2));
#1852=CARTESIAN_POINT('',(2.50599281722834,7.65,5.2));
#1853=CARTESIAN_POINT('Ctrl Pts',(2.50599281722833,7.65,5.2));
#1854=CARTESIAN_POINT('Ctrl Pts',(2.27128274449576,7.65,5.2));
#1855=CARTESIAN_POINT('Ctrl Pts',(1.98968211665203,7.65,5.20538374095584));
#1856=CARTESIAN_POINT('Ctrl Pts',(1.20661943234691,7.65,5.22508556939372));
#1857=CARTESIAN_POINT('Ctrl Pts',(0.548600421002145,7.65,5.24500712252158));
#1858=CARTESIAN_POINT('Ctrl Pts',(0.,7.65,5.24500712252158));
#1859=CARTESIAN_POINT('Ctrl Pts',(-0.548600421002145,7.65,5.24500712252158));
#1860=CARTESIAN_POINT('Ctrl Pts',(-1.20661943234691,7.65,5.22508556939372));
#1861=CARTESIAN_POINT('Ctrl Pts',(-1.98968211665203,7.65,5.20538374095584));
#1862=CARTESIAN_POINT('Ctrl Pts',(-2.27128274449576,7.65,5.2));
#1863=CARTESIAN_POINT('Ctrl Pts',(-2.50599281722833,7.65,5.2));
#1864=CARTESIAN_POINT('',(7.65,2.50599281722833,5.2));
#1865=CARTESIAN_POINT('Origin',(0.,0.,5.2));
#1866=CARTESIAN_POINT('',(7.65,-2.50599281722833,5.2));
#1867=CARTESIAN_POINT('Ctrl Pts',(7.65,-2.50599281722833,5.2));
#1868=CARTESIAN_POINT('Ctrl Pts',(7.65,-2.27128274449576,5.2));
#1869=CARTESIAN_POINT('Ctrl Pts',(7.65,-1.98968211665202,5.20538374095584));
#1870=CARTESIAN_POINT('Ctrl Pts',(7.65,-1.20661943234691,5.22508556939372));
#1871=CARTESIAN_POINT('Ctrl Pts',(7.65,-0.548600421002142,5.24500712252158));
#1872=CARTESIAN_POINT('Ctrl Pts',(7.65,9.28219250096442E-16,5.24500712252158));
#1873=CARTESIAN_POINT('Ctrl Pts',(7.65,0.548600421002143,5.24500712252158));
#1874=CARTESIAN_POINT('Ctrl Pts',(7.65,1.20661943234691,5.22508556939372));
#1875=CARTESIAN_POINT('Ctrl Pts',(7.65,1.98968211665202,5.20538374095584));
#1876=CARTESIAN_POINT('Ctrl Pts',(7.65,2.27128274449576,5.2));
#1877=CARTESIAN_POINT('Ctrl Pts',(7.65,2.50599281722833,5.2));
#1878=CARTESIAN_POINT('Origin',(0.,0.,5.2));
#1879=CARTESIAN_POINT('',(-7.65,-2.50599281722834,5.2));
#1880=CARTESIAN_POINT('Origin',(0.,0.,5.2));
#1881=CARTESIAN_POINT('Ctrl Pts',(-7.65,-1.66533453693773E-15,5.24500712252158));
#1882=CARTESIAN_POINT('Ctrl Pts',(-7.65,-0.548600421002144,5.24500712252158));
#1883=CARTESIAN_POINT('Ctrl Pts',(-7.65,-1.20661943234691,5.22508556939372));
#1884=CARTESIAN_POINT('Ctrl Pts',(-7.65,-1.98968211665202,5.20538374095584));
#1885=CARTESIAN_POINT('Ctrl Pts',(-7.65,-2.27128274449576,5.2));
#1886=CARTESIAN_POINT('Ctrl Pts',(-7.65,-2.50599281722834,5.2));
#1887=CARTESIAN_POINT('Origin',(9.15,7.65,0.));
#1888=CARTESIAN_POINT('',(-7.35,7.65,5.2));
#1889=CARTESIAN_POINT('',(4.575,7.65,5.2));
#1890=CARTESIAN_POINT('',(-7.35,7.65,0.));
#1891=CARTESIAN_POINT('',(-7.35,7.65,0.));
#1892=CARTESIAN_POINT('',(7.35,7.65,0.));
#1893=CARTESIAN_POINT('',(4.575,7.65,0.));
#1894=CARTESIAN_POINT('',(7.35,7.65,5.2));
#1895=CARTESIAN_POINT('',(7.35,7.65,0.));
#1896=CARTESIAN_POINT('',(4.575,7.65,5.2));
#1897=CARTESIAN_POINT('Origin',(-7.65,9.15,0.));
#1898=CARTESIAN_POINT('',(-7.65,-7.35,5.2));
#1899=CARTESIAN_POINT('',(-7.65,4.575,5.2));
#1900=CARTESIAN_POINT('',(-7.65,-7.35,0.));
#1901=CARTESIAN_POINT('',(-7.65,-7.35,0.));
#1902=CARTESIAN_POINT('',(-7.65,7.35,0.));
#1903=CARTESIAN_POINT('',(-7.65,4.575,0.));
#1904=CARTESIAN_POINT('',(-7.65,7.35,5.2));
#1905=CARTESIAN_POINT('',(-7.65,7.35,0.));
#1906=CARTESIAN_POINT('',(-7.65,4.575,5.2));
#1907=CARTESIAN_POINT('Origin',(7.65,-9.15,0.));
#1908=CARTESIAN_POINT('',(7.65,7.35,5.2));
#1909=CARTESIAN_POINT('',(7.65,-4.575,5.2));
#1910=CARTESIAN_POINT('',(7.65,7.35,0.));
#1911=CARTESIAN_POINT('',(7.65,7.35,0.));
#1912=CARTESIAN_POINT('',(7.65,-7.35,0.));
#1913=CARTESIAN_POINT('',(7.65,-4.575,0.));
#1914=CARTESIAN_POINT('',(7.65,-7.35,5.2));
#1915=CARTESIAN_POINT('',(7.65,-7.35,0.));
#1916=CARTESIAN_POINT('',(7.65,-4.575,5.2));
#1917=CARTESIAN_POINT('Origin',(0.,0.,5.2));
#1918=CARTESIAN_POINT('Origin',(7.35,-7.35,5.2));
#1919=CARTESIAN_POINT('Origin',(0.,0.,5.2));
#1920=CARTESIAN_POINT('Origin',(7.35,7.35,5.2));
#1921=CARTESIAN_POINT('Origin',(0.,0.,5.2));
#1922=CARTESIAN_POINT('Origin',(-7.35,7.35,5.2));
#1923=CARTESIAN_POINT('Origin',(-7.35,-7.35,0.));
#1924=CARTESIAN_POINT('Origin',(-7.35,-7.35,5.2));
#1925=CARTESIAN_POINT('Origin',(-7.35,-7.35,0.));
#1926=CARTESIAN_POINT('Origin',(7.35,-7.35,0.));
#1927=CARTESIAN_POINT('Origin',(7.35,-7.35,0.));
#1928=CARTESIAN_POINT('Origin',(-7.35,7.35,0.));
#1929=CARTESIAN_POINT('Origin',(-7.35,7.35,0.));
#1930=CARTESIAN_POINT('Origin',(7.35,7.35,0.));
#1931=CARTESIAN_POINT('Origin',(7.35,7.35,0.));
#1932=CARTESIAN_POINT('Origin',(0.,0.,5.2));
#1933=CARTESIAN_POINT('Origin',(0.,-1.11022302462516E-15,7.));
#1934=CARTESIAN_POINT('Origin',(-7.35,7.35,0.14));
#1935=CARTESIAN_POINT('',(-7.35,9.15,0.14));
#1936=CARTESIAN_POINT('',(-7.35,9.01,0.));
#1937=CARTESIAN_POINT('Origin',(-7.35,9.01,0.14));
#1938=CARTESIAN_POINT('',(-9.01,7.35,0.));
#1939=CARTESIAN_POINT('Origin',(-7.35,7.35,0.));
#1940=CARTESIAN_POINT('',(-9.15,7.35,0.14));
#1941=CARTESIAN_POINT('Origin',(-9.01,7.35,0.14));
#1942=CARTESIAN_POINT('Origin',(-7.35,7.35,0.14));
#1943=CARTESIAN_POINT('Origin',(-9.01,4.575,0.14));
#1944=CARTESIAN_POINT('',(-9.01,-7.35,0.));
#1945=CARTESIAN_POINT('',(-9.15,-7.35,0.14));
#1946=CARTESIAN_POINT('Origin',(-9.01,-7.35,0.14));
#1947=CARTESIAN_POINT('',(-9.15,4.575,0.14));
#1948=CARTESIAN_POINT('',(-9.01,4.575,0.));
#1949=CARTESIAN_POINT('Origin',(-7.35,-7.35,0.14));
#1950=CARTESIAN_POINT('',(-7.35,-9.01,0.));
#1951=CARTESIAN_POINT('',(-7.35,-9.15,0.14));
#1952=CARTESIAN_POINT('Origin',(-7.35,-9.01,0.14));
#1953=CARTESIAN_POINT('Origin',(-7.35,-7.35,0.14));
#1954=CARTESIAN_POINT('Origin',(-7.35,-7.35,0.));
#1955=CARTESIAN_POINT('Origin',(-4.575,-9.01,0.14));
#1956=CARTESIAN_POINT('',(7.35,-9.01,0.));
#1957=CARTESIAN_POINT('',(7.35,-9.15,0.14));
#1958=CARTESIAN_POINT('Origin',(7.35,-9.01,0.14));
#1959=CARTESIAN_POINT('',(-4.575,-9.15,0.14));
#1960=CARTESIAN_POINT('',(-4.575,-9.01,0.));
#1961=CARTESIAN_POINT('Origin',(7.35,-7.35,0.14));
#1962=CARTESIAN_POINT('',(9.01,-7.35,0.));
#1963=CARTESIAN_POINT('',(9.15,-7.35,0.14));
#1964=CARTESIAN_POINT('Origin',(9.01,-7.35,0.14));
#1965=CARTESIAN_POINT('Origin',(7.35,-7.35,0.14));
#1966=CARTESIAN_POINT('Origin',(7.35,-7.35,0.));
#1967=CARTESIAN_POINT('Origin',(9.01,-4.575,0.14));
#1968=CARTESIAN_POINT('',(9.01,7.35,0.));
#1969=CARTESIAN_POINT('',(9.15,7.35,0.14));
#1970=CARTESIAN_POINT('Origin',(9.01,7.35,0.14));
#1971=CARTESIAN_POINT('',(9.15,-4.575,0.14));
#1972=CARTESIAN_POINT('',(9.01,-4.575,0.));
#1973=CARTESIAN_POINT('Origin',(7.35,7.35,0.14));
#1974=CARTESIAN_POINT('',(7.35,9.01,0.));
#1975=CARTESIAN_POINT('',(7.35,9.15,0.14));
#1976=CARTESIAN_POINT('Origin',(7.35,9.01,0.14));
#1977=CARTESIAN_POINT('Origin',(7.35,7.35,0.14));
#1978=CARTESIAN_POINT('Origin',(7.35,7.35,0.));
#1979=CARTESIAN_POINT('Origin',(4.575,9.01,0.14));
#1980=CARTESIAN_POINT('',(4.575,9.01,0.));
#1981=CARTESIAN_POINT('',(4.575,9.15,0.14));
#1982=CARTESIAN_POINT('Origin',(9.15,-9.15,0.));
#1983=CARTESIAN_POINT('',(9.15,7.35,6.4));
#1984=CARTESIAN_POINT('',(9.15,7.35,0.));
#1985=CARTESIAN_POINT('',(9.15,-7.35,6.4));
#1986=CARTESIAN_POINT('',(9.15,-4.575,6.4));
#1987=CARTESIAN_POINT('',(9.15,-7.35,0.));
#1988=CARTESIAN_POINT('Origin',(7.35,7.35,0.));
#1989=CARTESIAN_POINT('',(7.35,9.15,6.4));
#1990=CARTESIAN_POINT('',(7.35,9.15,0.));
#1991=CARTESIAN_POINT('Origin',(7.35,7.35,6.4));
#1992=CARTESIAN_POINT('Origin',(9.15,9.15,0.));
#1993=CARTESIAN_POINT('',(-7.35,9.15,6.4));
#1994=CARTESIAN_POINT('',(-7.35,9.15,0.));
#1995=CARTESIAN_POINT('',(4.575,9.15,6.4));
#1996=CARTESIAN_POINT('Origin',(-7.35,7.35,0.));
#1997=CARTESIAN_POINT('',(-9.15,7.35,6.4));
#1998=CARTESIAN_POINT('',(-9.15,7.35,0.));
#1999=CARTESIAN_POINT('Origin',(-7.35,7.35,6.4));
#2000=CARTESIAN_POINT('Origin',(0.,-1.11022302462516E-15,0.));
#2001=CARTESIAN_POINT('Origin',(7.35,7.35,6.4));
#2002=CARTESIAN_POINT('',(7.35,8.85,6.7));
#2003=CARTESIAN_POINT('Origin',(7.35,8.85,6.4));
#2004=CARTESIAN_POINT('',(8.85,7.35,6.7));
#2005=CARTESIAN_POINT('Origin',(7.35,7.35,6.7));
#2006=CARTESIAN_POINT('Origin',(8.85,7.35,6.4));
#2007=CARTESIAN_POINT('Origin',(4.575,8.85,6.4));
#2008=CARTESIAN_POINT('',(-7.35,8.85,6.7));
#2009=CARTESIAN_POINT('Origin',(-7.35,8.85,6.4));
#2010=CARTESIAN_POINT('',(4.575,8.85,6.7));
#2011=CARTESIAN_POINT('Origin',(-7.35,7.35,6.4));
#2012=CARTESIAN_POINT('',(-8.85,7.35,6.7));
#2013=CARTESIAN_POINT('Origin',(-8.85,7.35,6.4));
#2014=CARTESIAN_POINT('Origin',(-7.35,7.35,6.7));
#2015=CARTESIAN_POINT('Origin',(-8.85,4.575,6.4));
#2016=CARTESIAN_POINT('',(-9.15,-7.35,6.4));
#2017=CARTESIAN_POINT('',(-9.15,4.575,6.4));
#2018=CARTESIAN_POINT('',(-8.85,-7.35,6.7));
#2019=CARTESIAN_POINT('Origin',(-8.85,-7.35,6.4));
#2020=CARTESIAN_POINT('',(-8.85,4.575,6.7));
#2021=CARTESIAN_POINT('Origin',(-9.15,9.15,0.));
#2022=CARTESIAN_POINT('',(-9.15,-7.35,0.));
#2023=CARTESIAN_POINT('Origin',(-7.35,-7.35,6.4));
#2024=CARTESIAN_POINT('',(-7.35,-9.15,6.4));
#2025=CARTESIAN_POINT('',(-7.35,-8.85,6.7));
#2026=CARTESIAN_POINT('Origin',(-7.35,-8.85,6.4));
#2027=CARTESIAN_POINT('Origin',(-7.35,-7.35,6.7));
#2028=CARTESIAN_POINT('Origin',(-7.35,-7.35,6.4));
#2029=CARTESIAN_POINT('Origin',(-7.35,-7.35,0.));
#2030=CARTESIAN_POINT('',(-7.35,-9.15,0.));
#2031=CARTESIAN_POINT('Origin',(-4.575,-8.85,6.4));
#2032=CARTESIAN_POINT('',(7.35,-9.15,6.4));
#2033=CARTESIAN_POINT('',(-4.575,-9.15,6.4));
#2034=CARTESIAN_POINT('',(7.35,-8.85,6.7));
#2035=CARTESIAN_POINT('Origin',(7.35,-8.85,6.4));
#2036=CARTESIAN_POINT('',(-4.575,-8.85,6.7));
#2037=CARTESIAN_POINT('Origin',(-9.15,-9.15,0.));
#2038=CARTESIAN_POINT('',(7.35,-9.15,0.));
#2039=CARTESIAN_POINT('Origin',(7.35,-7.35,6.4));
#2040=CARTESIAN_POINT('',(8.85,-7.35,6.7));
#2041=CARTESIAN_POINT('Origin',(8.85,-7.35,6.4));
#2042=CARTESIAN_POINT('Origin',(7.35,-7.35,6.7));
#2043=CARTESIAN_POINT('Origin',(7.35,-7.35,6.4));
#2044=CARTESIAN_POINT('Origin',(7.35,-7.35,0.));
#2045=CARTESIAN_POINT('Origin',(8.85,-4.575,6.4));
#2046=CARTESIAN_POINT('',(8.85,-4.575,6.7));
#2047=CARTESIAN_POINT('Origin',(0.,0.,6.7));
#2048=CARTESIAN_POINT('',(-8.05,-9.85840673313619E-16,6.7));
#2049=CARTESIAN_POINT('Origin',(0.,0.,6.7));
#2050=CARTESIAN_POINT('Origin',(0.,0.,7.));
#2051=CARTESIAN_POINT('',(-7.75,-9.49101269339199E-16,7.));
#2052=CARTESIAN_POINT('Origin',(-8.05,-9.85840673313619E-16,7.));
#2053=CARTESIAN_POINT('',(7.75,-9.49101269339199E-16,7.));
#2054=CARTESIAN_POINT('Origin',(0.,0.,7.));
#2055=CARTESIAN_POINT('Origin',(0.,0.,7.));
#2056=CARTESIAN_POINT('Origin',(0.,0.,8.5));
#2057=CARTESIAN_POINT('',(7.75,9.49101269339199E-16,8.2));
#2058=CARTESIAN_POINT('',(-7.75,-9.49101269339199E-16,8.2));
#2059=CARTESIAN_POINT('Origin',(0.,0.,8.2));
#2060=CARTESIAN_POINT('',(7.75,-9.49101269339199E-16,8.5));
#2061=CARTESIAN_POINT('Origin',(0.,0.,8.2));
#2062=CARTESIAN_POINT('Origin',(0.,0.,8.2));
#2063=CARTESIAN_POINT('',(-7.45,-9.12361865364778E-16,8.5));
#2064=CARTESIAN_POINT('Origin',(0.,0.,8.5));
#2065=CARTESIAN_POINT('Origin',(-7.45,-9.12361865364778E-16,8.2));
#2066=CARTESIAN_POINT('Origin',(0.,-1.11022302462516E-15,8.5));
#2067=UNCERTAINTY_MEASURE_WITH_UNIT(LENGTH_MEASURE(0.01),#2071,
'DISTANCE_ACCURACY_VALUE',
'Maximum model space distance between geometric entities at asserted c
onnectivities');
#2068=UNCERTAINTY_MEASURE_WITH_UNIT(LENGTH_MEASURE(0.01),#2071,
'DISTANCE_ACCURACY_VALUE',
'Maximum model space distance between geometric entities at asserted c
onnectivities');
#2069=(
GEOMETRIC_REPRESENTATION_CONTEXT(3)
GLOBAL_UNCERTAINTY_ASSIGNED_CONTEXT((#2067))
GLOBAL_UNIT_ASSIGNED_CONTEXT((#2071,#2073,#2074))
REPRESENTATION_CONTEXT('','3D')
);
#2070=(
GEOMETRIC_REPRESENTATION_CONTEXT(3)
GLOBAL_UNCERTAINTY_ASSIGNED_CONTEXT((#2068))
GLOBAL_UNIT_ASSIGNED_CONTEXT((#2071,#2073,#2074))
REPRESENTATION_CONTEXT('','3D')
);
#2071=(
LENGTH_UNIT()
NAMED_UNIT(*)
SI_UNIT(.MILLI.,.METRE.)
);
#2072=(
LENGTH_UNIT()
NAMED_UNIT(*)
SI_UNIT($,.METRE.)
);
#2073=(
NAMED_UNIT(*)
PLANE_ANGLE_UNIT()
SI_UNIT($,.RADIAN.)
);
#2074=(
NAMED_UNIT(*)
SI_UNIT($,.STERADIAN.)
SOLID_ANGLE_UNIT()
);
#2075=SHAPE_DEFINITION_REPRESENTATION(#2076,#2077);
#2076=PRODUCT_DEFINITION_SHAPE('',$,#2079);
#2077=SHAPE_REPRESENTATION('',(#1196),#2069);
#2078=PRODUCT_DEFINITION_CONTEXT('part definition',#2083,'design');
#2079=PRODUCT_DEFINITION('2026-08-21-00-57-21-408','round keycap',#2080,
#2078);
#2080=PRODUCT_DEFINITION_FORMATION('',$,#2085);
#2081=PRODUCT_RELATED_PRODUCT_CATEGORY('round keycap','round keycap',(#2085));
#2082=APPLICATION_PROTOCOL_DEFINITION('international standard',
'automotive_design',2009,#2083);
#2083=APPLICATION_CONTEXT(
'Core Data for Automotive Mechanical Design Process');
#2084=PRODUCT_CONTEXT('part definition',#2083,'mechanical');
#2085=PRODUCT('2026-08-21-00-57-21-408','round keycap',$,(#2084));
#2086=PRESENTATION_STYLE_ASSIGNMENT((#2088));
#2087=PRESENTATION_STYLE_ASSIGNMENT((#2089));
#2088=SURFACE_STYLE_USAGE(.BOTH.,#2090);
#2089=SURFACE_STYLE_USAGE(.BOTH.,#2091);
#2090=SURFACE_SIDE_STYLE('',(#2092));
#2091=SURFACE_SIDE_STYLE('',(#2093));
#2092=SURFACE_STYLE_FILL_AREA(#2094);
#2093=SURFACE_STYLE_FILL_AREA(#2095);
#2094=FILL_AREA_STYLE('Steel - Satin',(#2096));
#2095=FILL_AREA_STYLE('ABS (White)',(#2097));
#2096=FILL_AREA_STYLE_COLOUR('Steel - Satin',#2098);
#2097=FILL_AREA_STYLE_COLOUR('ABS (White)',#2099);
#2098=COLOUR_RGB('Steel - Satin',0.627450980392157,0.627450980392157,0.627450980392157);
#2099=COLOUR_RGB('ABS (White)',0.,0.,0.);
ENDSEC;
END-ISO-10303-21;
